<?xml version="1.0" encoding="UTF-8"?>
<svg version="1.1" xmlns="http://www.w3.org/2000/svg" width="500" height="500">
<path d="M0 0 C0 0.66 0 1.32 0 2 C0.66644531 2.17917969 1.33289063 2.35835937 2.01953125 2.54296875 C6.36700086 4.66827172 9.31998647 7.8861938 12.6875 11.3125 C13.70166992 12.30926758 13.70166992 12.30926758 14.73632812 13.32617188 C20.75922324 19.38502457 20.75922324 19.38502457 22 24 C22.66 24 23.32 24 24 24 C35.00317167 37.21963791 41.58205009 54.57715668 46 71 C46.23332031 71.83660156 46.46664062 72.67320312 46.70703125 73.53515625 C54.46921868 104.3046906 47.20318458 138.79117834 32 166 C29.56012854 169.88416318 26.90406107 173.45369465 24 177 C23.2678125 177.93199219 22.535625 178.86398437 21.78125 179.82421875 C1.97226328 204.68721065 -27.07832306 222.37775892 -59 226 C-64.29227909 226.31959816 -69.58914425 226.33014224 -74.8894043 226.31567383 C-77.29847738 226.31251837 -79.70631238 226.3360434 -82.11523438 226.36132812 C-95.0118744 226.41483567 -107.18120346 224.83738364 -119.375 220.375 C-120.07141602 220.12266602 -120.76783203 219.87033203 -121.48535156 219.61035156 C-135.00602694 214.5135842 -147.03523749 207.3723114 -158 198 C-158.77102051 197.34644531 -158.77102051 197.34644531 -159.55761719 196.6796875 C-167.10995617 190.21030758 -174.29152743 183.18382793 -180 175 C-180 174.01 -180 173.02 -180 172 C-180.66 172 -181.32 172 -182 172 C-201.30133764 147.53524719 -205.27222542 112.26494458 -202.1184082 82.44921875 C-199.84354243 64.40804528 -193.01294712 44.63746136 -182 30 C-181.34 30 -180.68 30 -180 30 C-179.855625 29.38125 -179.71125 28.7625 -179.5625 28.125 C-179 26 -179 26 -178 24 C-177.34 24 -176.68 24 -176 24 C-175.63068359 23.15695313 -175.63068359 23.15695313 -175.25390625 22.296875 C-170.9837373 14.47488327 -163.05891781 7.34269043 -156 2 C-155.34 2 -154.68 2 -154 2 C-154 1.34 -154 0.68 -154 0 C-140.78487025 -10.99941937 -123.42146738 -17.59242608 -107 -22 C-105.71029297 -22.34998047 -105.71029297 -22.34998047 -104.39453125 -22.70703125 C-70.57427584 -31.02741267 -26.90101741 -22.45227035 0 0 Z " fill="#94B2C8" transform="translate(327,149)"/>
<path d="M0 0 C3.38266131 -0.30751466 5.32867163 -0.46476833 8.17176819 1.50354004 C10.70452642 4.96203446 10.55321985 8.06870749 10.50170898 12.19335938 C10.50981346 13.42817802 10.50981346 13.42817802 10.51808167 14.6879425 C10.53058078 17.40691164 10.51407047 20.12482433 10.49609375 22.84375 C10.49624871 24.73417211 10.49773721 26.62459455 10.50050354 28.51501465 C10.50188806 32.47613578 10.48932058 36.43689506 10.46655273 40.39794922 C10.43816798 45.475769 10.44090473 50.55298748 10.45364285 55.63085175 C10.46059733 59.5342116 10.45281337 63.43743243 10.44038582 67.34077454 C10.43586907 69.21307339 10.43553646 71.08538716 10.43945122 72.95768738 C10.44236117 75.57431639 10.42586711 78.19011636 10.40405273 80.80664062 C10.40855438 81.58078812 10.41305603 82.35493561 10.41769409 83.15254211 C10.37380177 86.32071056 10.18820857 88.64324437 8.69740295 91.46911621 C7 93 7 93 3.4375 93.6875 C-1.36150358 93.41080069 -4.17107351 91.10345025 -7.90625 88.26171875 C-11.76496106 85.4407671 -15.78835802 82.97434063 -19.875 80.5 C-20.65004883 80.02788086 -21.42509766 79.55576172 -22.22363281 79.06933594 C-27.75678639 75.71316082 -33.34718689 72.47696553 -39.0078125 69.33984375 C-39.66523438 68.89769531 -40.32265625 68.45554687 -41 68 C-41 67.34 -41 66.68 -41 66 C-42.32 65.67 -43.64 65.34 -45 65 C-45 64.34 -45 63.68 -45 63 C-45.71027344 62.90589844 -46.42054688 62.81179688 -47.15234375 62.71484375 C-50.49294364 61.87625695 -52.70522122 60.47397579 -55.5625 58.5625 C-59.30124297 56.05089876 -59.30124297 56.05089876 -63.27734375 53.96484375 C-65 53 -65 53 -66 50 C-66.45791605 43.58917537 -66.45791605 43.58917537 -64.80078125 41.45703125 C-62.6346516 39.70439273 -60.40789995 38.47779523 -57.9375 37.1875 C-53.27957035 34.71355326 -48.76679328 32.08235301 -44.2890625 29.296875 C-41.92195968 27.95578603 -39.5451547 26.95330883 -37 26 C-37 25.34 -37 24.68 -37 24 C-31.25 21 -31.25 21 -29 21 C-29 20.34 -29 19.68 -29 19 C-26.59183485 17.34721915 -24.18758144 15.81478858 -21.6875 14.3125 C-20.21972172 13.41590518 -18.75227537 12.51876677 -17.28515625 11.62109375 C-16.55828613 11.17878418 -15.83141602 10.73647461 -15.08251953 10.28076172 C-11.35372496 7.9875312 -7.69984837 5.5796589 -4.0390625 3.1796875 C-2 2 -2 2 0 2 C0 1.34 0 0.68 0 0 Z " fill="#ECB9BB" transform="translate(233,202)"/>
<path d="M0 0 C2.57404063 2.57404063 2.24858356 4.30217698 2.28216553 7.81121826 C2.27968811 8.62375061 2.27721069 9.43628296 2.2746582 10.2734375 C2.27976913 11.12883118 2.28488007 11.98422485 2.29014587 12.86553955 C2.30408262 15.7020969 2.30308221 18.53841242 2.30078125 21.375 C2.30466563 23.34033296 2.30899975 25.30566508 2.31376648 27.27099609 C2.32123725 31.39358235 2.32093099 35.51608299 2.31567383 39.63867188 C2.30987473 44.93192895 2.32681671 50.22483662 2.3500185 55.51803589 C2.36472105 59.57741356 2.36563236 63.63670638 2.36250877 67.69610596 C2.36302363 69.64822075 2.36829199 71.6003401 2.37832069 73.5524292 C2.39060212 76.27737415 2.38394397 79.00162931 2.37231445 81.7265625 C2.37995819 82.53909485 2.38760193 83.3516272 2.39547729 84.18878174 C2.3742218 86.43212891 2.3742218 86.43212891 2 90 C-1.66865241 92.44576827 -3.67200343 92.23607254 -8 92 C-8.66 91.67 -9.32 91.34 -10 91 C-10 90.34 -10 89.68 -10 89 C-10.61875 88.855625 -11.2375 88.71125 -11.875 88.5625 C-14 88 -14 88 -16 87 C-16 86.34 -16 85.68 -16 85 C-16.71929687 84.89945312 -17.43859375 84.79890625 -18.1796875 84.6953125 C-21.36297007 83.9105143 -23.40079025 82.68842917 -26.125 80.875 C-27.57326172 79.92367187 -27.57326172 79.92367187 -29.05078125 78.953125 C-30.51064453 77.98632812 -30.51064453 77.98632812 -32 77 C-33.76837505 75.87113979 -35.53918825 74.74608926 -37.3125 73.625 C-40.36626239 71.68367962 -43.41456021 69.73452577 -46.453125 67.76953125 C-51.73781814 64.35407757 -57.01968712 60.95293193 -62.4375 57.75 C-63.21738281 57.27820313 -63.99726563 56.80640625 -64.80078125 56.3203125 C-66.24111794 55.45559882 -67.69679251 54.61582251 -69.16796875 53.8046875 C-71.66268345 52.30088742 -73.61608847 50.87118386 -74.8125 48.15625 C-75.2018177 45.62568497 -75.0670741 44.34038942 -74 42 C-70.66638262 39.09734456 -66.84992378 37.14093322 -63 35 C-60.98725733 33.68598147 -58.98710324 32.35247865 -57 31 C-52.18458827 27.77304876 -47.32105082 24.63481127 -42.41796875 21.54296875 C-40.39539719 20.25231323 -38.4118294 18.9249307 -36.4375 17.5625 C-34 16 -34 16 -32 16 C-32 15.34 -32 14.68 -32 14 C-30.2675 13.1646875 -30.2675 13.1646875 -28.5 12.3125 C-24.71287381 10.43241422 -21.18854867 8.28406008 -17.6640625 5.953125 C-16 5 -16 5 -14 5 C-14 4.34 -14 3.68 -14 3 C-8.88990896 -0.44148988 -6.24135045 -1.71331189 0 0 Z " fill="#ECBABD" transform="translate(324,203)"/>
<path d="M0 0 C3.38266131 -0.30751466 5.32867163 -0.46476833 8.17176819 1.50354004 C10.70452642 4.96203446 10.55321985 8.06870749 10.50170898 12.19335938 C10.50711197 13.01657181 10.51251495 13.83978424 10.51808167 14.6879425 C10.53058078 17.40691164 10.51407047 20.12482433 10.49609375 22.84375 C10.49624871 24.73417211 10.49773721 26.62459455 10.50050354 28.51501465 C10.50188806 32.47613578 10.48932058 36.43689506 10.46655273 40.39794922 C10.43816798 45.475769 10.44090473 50.55298748 10.45364285 55.63085175 C10.46059733 59.5342116 10.45281337 63.43743243 10.44038582 67.34077454 C10.43586907 69.21307339 10.43553646 71.08538716 10.43945122 72.95768738 C10.44236117 75.57431639 10.42586711 78.19011636 10.40405273 80.80664062 C10.40855438 81.58078812 10.41305603 82.35493561 10.41769409 83.15254211 C10.37293783 86.3830708 10.20313586 88.64050664 8.59803772 91.4810791 C7 93 7 93 5.02734375 93.49609375 C3.01222719 93.43959515 1.00357861 93.22261985 -1 93 C-1.66 92.01 -2.32 91.02 -3 90 C0.3 90.33 3.6 90.66 7 91 C7 61.63 7 32.26 7 2 C3.7 2.66 0.4 3.32 -3 4 C-2.67 3.34 -2.34 2.68 -2 2 C-1.34 2 -0.68 2 0 2 C0 1.34 0 0.68 0 0 Z " fill="#D5BDC6" transform="translate(233,202)"/>
<path d="M0 0 C3.3125 0.875 3.3125 0.875 5.3125 2.875 C5.51637703 5.66524544 5.59567039 8.35664866 5.5871582 11.1484375 C5.5948246 12.43152802 5.5948246 12.43152802 5.60264587 13.74053955 C5.61658262 16.5770969 5.61558221 19.41341242 5.61328125 22.25 C5.61716563 24.21533296 5.62149975 26.18066508 5.62626648 28.14599609 C5.63373725 32.26858235 5.63343099 36.39108299 5.62817383 40.51367188 C5.62237473 45.80692895 5.63931671 51.09983662 5.6625185 56.39303589 C5.67722105 60.45241356 5.67813236 64.51170638 5.67500877 68.57110596 C5.67552363 70.52322075 5.68079199 72.4753401 5.69082069 74.4274292 C5.70310212 77.15237415 5.69644397 79.87662931 5.68481445 82.6015625 C5.69628006 83.82036102 5.69628006 83.82036102 5.70797729 85.06378174 C5.6867218 87.30712891 5.6867218 87.30712891 5.3125 90.875 C1.64384759 93.32076827 -0.35950343 93.11107254 -4.6875 92.875 C-5.3475 92.545 -6.0075 92.215 -6.6875 91.875 C-6.6875 91.215 -6.6875 90.555 -6.6875 89.875 C-7.615625 89.689375 -7.615625 89.689375 -8.5625 89.5 C-10.6875 88.875 -10.6875 88.875 -12.6875 86.875 C-8.17339342 86.49882445 -8.17339342 86.49882445 -5.75 88.375 C-2.9925831 90.38039411 -1.01429926 90.10182722 2.3125 89.875 C3.89366025 86.7126795 3.44187122 83.31658293 3.42602539 79.84521484 C3.42617142 79.01586929 3.42631744 78.18652374 3.4264679 77.33204651 C3.42576971 74.58331715 3.41798171 71.83465506 3.41015625 69.0859375 C3.40829174 67.18307533 3.40686799 65.28021268 3.40586853 63.37734985 C3.40204599 58.36318644 3.39221793 53.34905189 3.38116455 48.3348999 C3.37094479 43.22066641 3.3663697 38.10642826 3.36132812 32.9921875 C3.35059545 22.95311231 3.33352216 12.91405855 3.3125 2.875 C1.64638095 2.832279 -0.02132885 2.83436168 -1.6875 2.875 C-2.0175 3.205 -2.3475 3.535 -2.6875 3.875 C-4.68708364 3.91580783 -6.68795254 3.91754356 -8.6875 3.875 C-5.62672898 0.81422898 -4.42361413 -0.14995302 0 0 Z " fill="#DCBEC5" transform="translate(320.6875,202.125)"/>
<path d="M0 0 C0.66 0.33 1.32 0.66 2 1 C1.67 1.53625 1.34 2.0725 1 2.625 C-0.22628024 5.53741558 -0.06865438 7.86764377 0 11 C0.98742187 11.53109375 1.97484375 12.0621875 2.9921875 12.609375 C4.28677743 13.32233757 5.58103087 14.03591136 6.875 14.75 C7.52597656 15.09804688 8.17695313 15.44609375 8.84765625 15.8046875 C12.32168779 17.73868444 14.7527268 19.10007535 16 23 C12.15628436 21.62921252 9.16166017 19.84470218 5.875 17.4375 C3.16499947 15.45648138 1.1961513 14.06538377 -2 13 C-3.1845131 9.44646071 -3.26641894 6.72986522 -3 3 C-1.5 1.0625 -1.5 1.0625 0 0 Z " fill="#D3BCC5" transform="translate(170,242)"/>
<path d="M0 0 C7.66742597 5.96583144 7.66742597 5.96583144 9 11 C9.66 11 10.32 11 11 11 C11.99 12.98 12.98 14.96 14 17 C13.01 17 12.02 17 11 17 C11 16.34 11 15.68 11 15 C10.34 15 9.68 15 9 15 C8.67 13.68 8.34 12.36 8 11 C7.34 11 6.68 11 6 11 C4 8 4 8 4 5 C2.68 4.67 1.36 4.34 0 4 C0 2.68 0 1.36 0 0 Z " fill="#AFC3CF" transform="translate(340,162)"/>
<path d="M0 0 C0.66 0.33 1.32 0.66 2 1 C-4 5 -4 5 -10 9 C-11.04542969 9.69996094 -12.09085938 10.39992187 -13.16796875 11.12109375 C-16.40564518 13.26912459 -19.53606562 15.23535419 -23 17 C-23.99 16.67 -24.98 16.34 -26 16 C-8.91292135 5 -8.91292135 5 -6 5 C-6 4.34 -6 3.68 -6 3 C-4.03533587 1.93224776 -2.03144641 0.93446535 0 0 Z " fill="#DABCC4" transform="translate(202,223)"/>
<path d="M0 0 C4.44380808 1.13273539 8.26436721 2.28317615 12 5 C12 5.66 12 6.32 12 7 C12.598125 7.12375 13.19625 7.2475 13.8125 7.375 C16 8 16 8 19 10 C19 10.66 19 11.32 19 12 C14.46463751 10.41305672 10.68503997 8.0435173 6.6875 5.4375 C6.04232422 5.02564453 5.39714844 4.61378906 4.73242188 4.18945312 C3.13495169 3.15659145 1.56465902 2.08192254 0 1 C0 0.67 0 0.34 0 0 Z " fill="#D7BBC5" transform="translate(211,280)"/>
<path d="M0 0 C-0.99 0.33 -1.98 0.66 -3 1 C-3.33 1.66 -3.66 2.32 -4 3 C-6.2408573 3.60262099 -8.48570975 3.95607183 -10.7734375 4.33984375 C-13.28427596 5.08428533 -14.33030912 6.02330144 -16 8 C-16.66 7.34 -17.32 6.68 -18 6 C-18 5.34 -18 4.68 -18 4 C-15.75438718 3.13237686 -13.50473745 2.2807897 -11.25 1.4375 C-10.61578125 1.19064453 -9.9815625 0.94378906 -9.328125 0.68945312 C-5.88990821 -0.58197079 -3.47831118 -1.46686355 0 0 Z " fill="#AFC0D0" transform="translate(220,129)"/>
<path d="M0 0 C0.66 1.32 1.32 2.64 2 4 C-3.75 8 -3.75 8 -6 8 C-6.33 9.32 -6.66 10.64 -7 12 C-7.33 11.01 -7.66 10.02 -8 9 C-9.98 9.99 -9.98 9.99 -12 11 C-9.19195732 8.03595495 -6.81684226 5.55500981 -3 4 C-3 3.34 -3 2.68 -3 2 C-2.01 1.34 -1.02 0.68 0 0 Z " fill="#ADC0CF" transform="translate(176,147)"/>
<path d="M0 0 C0 2.8431994 -0.41712103 5.23132491 -1 8 C-1 8.33 -1 8.66 -1 9 C-2.65 9.33 -4.3 9.66 -6 10 C-6.33 10.99 -6.66 11.98 -7 13 C-8.32 12.67 -9.64 12.34 -11 12 C-7.37 8.04 -3.74 4.08 0 0 Z " fill="#A4BCCD" transform="translate(163,158)"/>
<path d="M0 0 C6.87695043 3.68468702 13.45574894 7.75541099 20 12 C16.25 13.125 16.25 13.125 14 12 C14 11.34 14 10.68 14 10 C13.27425781 9.731875 12.54851562 9.46375 11.80078125 9.1875 C9.03135976 8.01329619 6.69080566 6.6605676 4.1875 5 C3.39730469 4.484375 2.60710937 3.96875 1.79296875 3.4375 C1.20128906 2.963125 0.60960937 2.48875 0 2 C0 1.34 0 0.68 0 0 Z " fill="#A3AEBB" transform="translate(208,279)"/>
<path d="M0 0 C0 0.66 0 1.32 0 2 C-0.99 2 -1.98 2 -3 2 C-3.33 2.99 -3.66 3.98 -4 5 C-5.70703125 6.38671875 -5.70703125 6.38671875 -7.8125 7.6875 C-8.49957031 8.12449219 -9.18664062 8.56148437 -9.89453125 9.01171875 C-12 10 -12 10 -16 10 C-16 9.34 -16 8.68 -16 8 C-15.49210937 7.75765625 -14.98421875 7.5153125 -14.4609375 7.265625 C-11.03866909 5.59935199 -7.75738369 3.92095899 -4.625 1.75 C-2 0 -2 0 0 0 Z " fill="#D3BAC4" transform="translate(308,209)"/>
<path d="M0 0 C0.66 0.33 1.32 0.66 2 1 C0.92130607 1.96355244 -0.16318743 2.92061417 -1.25 3.875 C-1.85328125 4.40867188 -2.4565625 4.94234375 -3.078125 5.4921875 C-5 7 -5 7 -7.171875 8.0703125 C-9.17932177 8.86319792 -9.17932177 8.86319792 -10 11 C-11.65 11 -13.3 11 -15 11 C-12.4650336 8.18911889 -9.58096754 6.36286905 -6.375 4.375 C-3.00896249 2.42174335 -3.00896249 2.42174335 0 0 Z " fill="#D7BAC5" transform="translate(282,224)"/>
<path d="M0 0 C0.33 0 0.66 0 1 0 C1 1.65 1 3.3 1 5 C1.66 5 2.32 5 3 5 C3.39036513 6.60049704 3.76178619 8.20562371 4.125 9.8125 C4.33382812 10.70582031 4.54265625 11.59914063 4.7578125 12.51953125 C5 15 5 15 3 18 C1.14256832 11.88595404 -0.42765417 6.41481258 0 0 Z " fill="#B2C5CF" transform="translate(126,269)"/>
<path d="M0 0 C2.97 0.99 5.94 1.98 9 3 C9 3.66 9 4.32 9 5 C10.175625 5.4640625 10.175625 5.4640625 11.375 5.9375 C14 7 14 7 16 8 C16 8.66 16 9.32 16 10 C9.8034553 8.53239731 4.93130534 4.88851943 0 1 C0 0.67 0 0.34 0 0 Z " fill="#D2BCC4" transform="translate(272,266)"/>
<path d="M0 0 C2.475 0.99 2.475 0.99 5 2 C5.33 4.31 5.66 6.62 6 9 C6.99 9.33 7.98 9.66 9 10 C8.67 11.32 8.34 12.64 8 14 C7.67 12.68 7.34 11.36 7 10 C6.34 10 5.68 10 5 10 C3.35 6.7 1.7 3.4 0 0 Z " fill="#B3C4CF" transform="translate(140,311)"/>
<path d="M0 0 C0.66 0.33 1.32 0.66 2 1 C0.61860662 2.3482881 -0.7807648 3.67817378 -2.1875 5 C-2.96480469 5.7425 -3.74210938 6.485 -4.54296875 7.25 C-7.33045204 9.23536171 -8.65781368 9.37992882 -12 9 C-8.63378119 5.21300384 -4.58358196 2.1727369 0 0 Z " fill="#D9BBC3" transform="translate(224,208)"/>
<path d="M0 0 C3.37462715 0.54723683 5.08235 1.0549 8 3 C8.99 3 9.98 3 11 3 C13.1875 4.875 13.1875 4.875 15 7 C15 7.66 15 8.32 15 9 C11.32305352 7.62859834 8.04681411 5.96304199 4.6875 3.9375 C3.80449219 3.41027344 2.92148438 2.88304687 2.01171875 2.33984375 C1.34785156 1.89769531 0.68398437 1.45554687 0 1 C0 0.67 0 0.34 0 0 Z " fill="#DEBAC5" transform="translate(196,271)"/>
<path d="M0 0 C0.66 0.33 1.32 0.66 2 1 C1.484375 1.350625 0.96875 1.70125 0.4375 2.0625 C-1.38471859 4.06984193 -1.38471859 4.06984193 -0.6875 7.5 C-0.460625 8.655 -0.23375 9.81 0 11 C0 11.99 0 12.98 0 14 C-2 13 -2 13 -4 11 C-4.59789899 8.24046621 -4.59789899 5.75953379 -4 3 C-2 1 -2 1 0 0 Z " fill="#D2BCC8" transform="translate(254,242)"/>
<path d="M0 0 C5.37305699 0.2642487 5.37305699 0.2642487 8 1 C10 3.5625 10 3.5625 11 6 C6.48986609 5.46939601 3.61621781 3.69113883 0 1 C0 0.67 0 0.34 0 0 Z " fill="#B4C6D3" transform="translate(178,353)"/>
<path d="M0 0 C0.886875 0.12375 1.77375 0.2475 2.6875 0.375 C-0.05645564 3.32221162 -2.69587216 5.56668608 -6.3125 7.375 C-6.9725 7.045 -7.6325 6.715 -8.3125 6.375 C-4.12788462 0.46730769 -4.12788462 0.46730769 0 0 Z " fill="#A1AEBE" transform="translate(179.3125,234.625)"/>
<path d="M0 0 C0.33 0.66 0.66 1.32 1 2 C0.26821134 4.07196631 -0.55899003 6.1108552 -1.4375 8.125 C-1.91058594 9.22070312 -2.38367188 10.31640625 -2.87109375 11.4453125 C-3.24363281 12.28835938 -3.61617188 13.13140625 -4 14 C-5.43737869 11.12524262 -4.52819784 9.49349643 -3.6875 6.4375 C-3.42324219 5.44621094 -3.15898437 4.45492188 -2.88671875 3.43359375 C-2 1 -2 1 0 0 Z " fill="#B2C6D4" transform="translate(369,288)"/>
<path d="M0 0 C5.625 -0.25 5.625 -0.25 9 2 C9 2.66 9 3.32 9 4 C8.34 4 7.68 4 7 4 C7 3.34 7 2.68 7 2 C3.7 2.66 0.4 3.32 -3 4 C-2.67 3.34 -2.34 2.68 -2 2 C-1.34 2 -0.68 2 0 2 C0 1.34 0 0.68 0 0 Z " fill="#D0BAC6" transform="translate(233,202)"/>
<path d="M0 0 C1.65 0 3.3 0 5 0 C5 3 5 3 4 5 C2.02 5 0.04 5 -2 5 C-1.34 4.34 -0.68 3.68 0 3 C0 2.01 0 1.02 0 0 Z " fill="#9FBDD0" transform="translate(233,370)"/>
<path d="M0 0 C0.99 0 1.98 0 3 0 C1.66667905 3.99996286 -0.4957827 4.83782337 -4 7 C-4.66 6.67 -5.32 6.34 -6 6 C-6 5.34 -6 4.68 -6 4 C-4.68 4 -3.36 4 -2 4 C-1.34 2.68 -0.68 1.36 0 0 Z " fill="#B8CAD4" transform="translate(319,352)"/>
<path d="M0 0 C1.21236328 0.02707031 1.21236328 0.02707031 2.44921875 0.0546875 C3.37154297 0.08949219 3.37154297 0.08949219 4.3125 0.125 C4.6425 1.445 4.9725 2.765 5.3125 4.125 C4.4771875 3.63 4.4771875 3.63 3.625 3.125 C0.92874708 1.95905279 -0.77407033 1.83365703 -3.6875 2.125 C-5.93882517 3.04068906 -5.93882517 3.04068906 -7.6875 4.125 C-7.6875 3.465 -7.6875 2.805 -7.6875 2.125 C-4.48369983 -0.01086678 -3.66810033 -0.10632175 0 0 Z " fill="#A2B0BD" transform="translate(320.6875,200.875)"/>
<path d="M0 0 C0.33 0.99 0.66 1.98 1 3 C0 4 0 4 -1.84765625 4.09765625 C-3.8984375 4.06510417 -5.94921875 4.03255208 -8 4 C-8 3.34 -8 2.68 -8 2 C-5.36 1.34 -2.72 0.68 0 0 Z " fill="#A9B1C0" transform="translate(325,293)"/>
<path d="M0 0 C-0.625 1.875 -0.625 1.875 -2 4 C-5.125 5.25 -5.125 5.25 -8 6 C-8 5.34 -8 4.68 -8 4 C-2.58823529 0 -2.58823529 0 0 0 Z " fill="#D7BCC5" transform="translate(212,217)"/>
<path d="M0 0 C2.76223278 2.76223278 2.57856291 5.20706617 3 9 C2.01 9.33 1.02 9.66 0 10 C0 6.7 0 3.4 0 0 Z " fill="#B1C1CE" transform="translate(368,207)"/>
<path d="M0 0 C3.36591866 1.44253657 5.51047079 3.33264727 8 6 C5.07120629 5.37240135 2.63904371 4.41377341 0 3 C0 2.01 0 1.02 0 0 Z " fill="#A6AFBE" transform="translate(250,253)"/>
<path d="M0 0 C0.99 0 1.98 0 3 0 C3 0.66 3 1.32 3 2 C4.65 2.33 6.3 2.66 8 3 C8.33 3.99 8.66 4.98 9 6 C5.06326356 4.68775452 2.77280706 3.08089673 0 0 Z " fill="#D6BAC5" transform="translate(256,256)"/>
<path d="M0 0 C0 3.57575896 -1.08840607 5.05295935 -3 8 C-3.99 7.34 -4.98 6.68 -6 6 C-4.02 4.02 -2.04 2.04 0 0 Z " fill="#B5C6D3" transform="translate(163,158)"/>
<path d="M0 0 C2.31 1.98 4.62 3.96 7 6 C5.68 6.33 4.36 6.66 3 7 C2.67 5.68 2.34 4.36 2 3 C1.34 3 0.68 3 0 3 C0 2.01 0 1.02 0 0 Z " fill="#B8CBD8" transform="translate(333,155)"/>
<path d="M0 0 C2.58797991 1.72531994 3.8557088 2.8557088 6 5 C5.34 5 4.68 5 4 5 C3.67 5.66 3.34 6.32 3 7 C1.68 5.35 0.36 3.7 -1 2 C-0.67 1.34 -0.34 0.68 0 0 Z " fill="#B6C9D7" transform="translate(155,330)"/>
<path d="M0 0 C0.66 0.33 1.32 0.66 2 1 C0.02 1.99 0.02 1.99 -2 3 C-2 3.66 -2 4.32 -2 5 C-3.32 5.33 -4.64 5.66 -6 6 C-4.98545548 3.4636387 -4.3146444 2.20648539 -2 0.6875 C-1.34 0.460625 -0.68 0.23375 0 0 Z " fill="#A9B1BE" transform="translate(206,218)"/>
<path d="M0 0 C2 4 2 4 1.3125 6.1875 C0 8 0 8 -3 9 C-2.01 6.03 -1.02 3.06 0 0 Z " fill="#B6C5D5" transform="translate(135,197)"/>
<path d="M0 0 C-2.36292656 2.52588702 -3.66462511 3.88820837 -7 5 C-7.33 3.68 -7.66 2.36 -8 1 C-5.29120665 -0.35439668 -2.99066732 -0.06501451 0 0 Z " fill="#A4BBCC" transform="translate(210,132)"/>
</svg>
