<?xml version="1.0" encoding="UTF-8"?>
<svg version="1.1" xmlns="http://www.w3.org/2000/svg" width="500" height="500">
<path d="M0 0 C0 0.66 0 1.32 0 2 C0.58523438 2.26941406 1.17046875 2.53882813 1.7734375 2.81640625 C9.75052874 7.05686001 16.38004146 15.05566598 22 22 C22 22.66 22 23.32 22 24 C22.66 24 23.32 24 24 24 C26 27 26 27 26 30 C26.66 30 27.32 30 28 30 C47.42040433 57.05533901 52.20622542 92.22743546 47.4453125 124.48388672 C45.00181137 138.29020395 39.7201742 150.78777379 33 163 C32.46503906 163.98613281 31.93007813 164.97226562 31.37890625 165.98828125 C30.27206952 168.00441728 29.1505747 170.00862071 28 172 C27.34 172 26.68 172 26 172 C25.93425781 172.53496094 25.86851562 173.06992187 25.80078125 173.62109375 C24.66016414 177.00956117 22.49067608 179.39855221 20.1875 182.0625 C19.69612549 182.63395752 19.20475098 183.20541504 18.69848633 183.79418945 C-0.95208529 206.22576646 -28.04597252 222.44033105 -58 226 C-60.74668585 226.11240855 -63.46823058 226.18698027 -66.21484375 226.203125 C-66.988246 226.20882507 -67.76164825 226.21452515 -68.55848694 226.22039795 C-70.19140275 226.22979862 -71.82433711 226.23636218 -73.45727539 226.24023438 C-75.89960987 226.24985081 -78.34106869 226.28088341 -80.78320312 226.3125 C-94.56514021 226.40708166 -107.62534378 224.8527039 -120.5625 219.8125 C-121.74900146 219.35967651 -121.74900146 219.35967651 -122.95947266 218.89770508 C-154.02889599 206.70681588 -179.46702658 182.56218798 -192.95703125 151.98828125 C-206.45470545 119.84225568 -206.47636916 84.06928481 -193.625 51.75 C-189.47527729 42.26677788 -184.67615939 31.99898973 -178 24 C-177.34 24 -176.68 24 -176 24 C-175.82082031 23.33355469 -175.64164063 22.66710937 -175.45703125 21.98046875 C-173.33172828 17.63299914 -170.1138062 14.68001353 -166.6875 11.3125 C-166.02298828 10.63638672 -165.35847656 9.96027344 -164.67382812 9.26367188 C-158.61497543 3.24077676 -158.61497543 3.24077676 -154 2 C-154 1.34 -154 0.68 -154 0 C-151.67764037 -1.66929135 -149.37069518 -3.19427659 -146.9375 -4.6875 C-146.21304688 -5.13375732 -145.48859375 -5.58001465 -144.7421875 -6.03979492 C-101.77673991 -32.02922055 -40.13397069 -33.49682825 0 0 Z " fill="#94B2C8" transform="translate(327,149)"/>
<path d="M0 0 C3.52383774 0.73803091 6.10459407 2.42233528 9.0234375 4.4296875 C9.62776611 4.83098877 10.23209473 5.23229004 10.85473633 5.64575195 C12.79417143 6.93696347 14.72211002 8.24401525 16.6484375 9.5546875 C19.20812925 11.28804748 21.77056475 13.01724652 24.3359375 14.7421875 C24.95718506 15.16081055 25.57843262 15.57943359 26.21850586 16.01074219 C31.5119617 19.54203903 36.98192154 22.65663568 42.6484375 25.5546875 C42.6484375 26.2146875 42.6484375 26.8746875 42.6484375 27.5546875 C44.0096875 27.9878125 44.0096875 27.9878125 45.3984375 28.4296875 C47.97046658 29.32000526 50.26190516 30.26963163 52.6484375 31.5546875 C52.6484375 32.2146875 52.6484375 32.8746875 52.6484375 33.5546875 C53.3290625 33.8021875 54.0096875 34.0496875 54.7109375 34.3046875 C58.21708833 35.79666658 61.36464118 37.62304261 64.6484375 39.5546875 C64.6484375 40.2146875 64.6484375 40.8746875 64.6484375 41.5546875 C66.2984375 42.2146875 67.9484375 42.8746875 69.6484375 43.5546875 C69.7734375 50.1796875 69.7734375 50.1796875 68.6484375 53.5546875 C66.96875 54.6953125 66.96875 54.6953125 64.7734375 55.8046875 C61.21931187 57.67969866 57.82987682 59.67612919 54.4609375 61.8671875 C50.25059503 64.58562991 45.95735672 67.1070467 41.5859375 69.5546875 C36.58917762 72.36258933 31.873465 75.40342593 27.2265625 78.7578125 C22.19192686 82.26680097 16.90214614 85.38731401 11.6484375 88.5546875 C10.28138672 89.41320312 10.28138672 89.41320312 8.88671875 90.2890625 C6.6484375 91.5546875 6.6484375 91.5546875 4.6484375 91.5546875 C4.6484375 92.2146875 4.6484375 92.8746875 4.6484375 93.5546875 C-1.64564019 94.03884732 -1.64564019 94.03884732 -4.55358887 92.04441833 C-7.03180137 88.61273171 -6.91239202 85.54592193 -6.86914062 81.46899414 C-6.8761499 80.65714157 -6.88315918 79.845289 -6.89038086 79.00883484 C-6.90797498 76.32715572 -6.89633237 73.64653347 -6.8828125 70.96484375 C-6.88550728 69.09923602 -6.88938958 67.23362966 -6.89440918 65.36802673 C-6.90030636 61.45818712 -6.89173522 57.54871312 -6.87304688 53.63891602 C-6.85027296 48.63058601 -6.86336904 43.62311414 -6.88733673 38.61481571 C-6.90180229 34.76201431 -6.89718497 30.90941577 -6.88682556 27.0566082 C-6.88415955 25.21024918 -6.88742363 23.36387167 -6.89674377 21.51753426 C-6.90692018 18.9344531 -6.89139321 16.35275381 -6.86914062 13.76977539 C-6.87723755 13.00857391 -6.88533447 12.24737244 -6.89367676 11.46310425 C-6.83515939 7.79059113 -6.44877901 5.70828345 -4.46618652 2.57591248 C-2.3515625 0.5546875 -2.3515625 0.5546875 0 0 Z " fill="#ECB9BC" transform="translate(263.3515625,201.4453125)"/>
<path d="M0 0 C3.84166254 0.61466601 5.11422904 2.06412873 8.125 4.5 C10.5143119 6.00387704 12.9705801 7.3780775 15.4375 8.75 C16.08267578 9.11351562 16.72785156 9.47703125 17.39257812 9.8515625 C18.96781416 10.73836205 20.54609714 11.61974563 22.125 12.5 C22.125 13.16 22.125 13.82 22.125 14.5 C22.96804687 14.7371875 23.81109375 14.974375 24.6796875 15.21875 C28.62589437 16.68627365 31.77587811 18.66150505 35.25 21 C40.51933396 24.53892377 40.51933396 24.53892377 46.125 27.5 C46.125 28.16 46.125 28.82 46.125 29.5 C46.90875 29.685625 47.6925 29.87125 48.5 30.0625 C52.72038941 31.7361027 55.93721721 34.0299054 59.578125 36.7109375 C61.90653613 38.34653918 64.23263652 39.62525733 66.75 40.9375 C68.6953125 42.1015625 68.6953125 42.1015625 70.125 43.5 C70.82031539 46.44681286 70.54021316 48.43780292 70.125 51.5 C69.465 51.5 68.805 51.5 68.125 51.5 C68.125 52.16 68.125 52.82 68.125 53.5 C66.35253906 54.81274414 66.35253906 54.81274414 63.890625 56.28515625 C63.00632812 56.81560547 62.12203125 57.34605469 61.2109375 57.89257812 C59.80714844 58.71918945 59.80714844 58.71918945 58.375 59.5625 C57.45460937 60.11744141 56.53421875 60.67238281 55.5859375 61.24414062 C48.0454287 65.73019695 48.0454287 65.73019695 44.125 66.5 C44.125 67.16 44.125 67.82 44.125 68.5 C38.375 71.5 38.375 71.5 36.125 71.5 C36.125 72.16 36.125 72.82 36.125 73.5 C33.8515625 75.015625 33.8515625 75.015625 30.75 76.75 C29.09871094 77.68779297 29.09871094 77.68779297 27.4140625 78.64453125 C26.32867187 79.25683594 25.24328125 79.86914062 24.125 80.5 C17.48335975 84.3593315 11.14353254 88.50013835 4.88671875 92.9609375 C1.89972432 94.6255426 0.46574388 95.27223225 -2.875 94.5 C-6.23324832 90.32777165 -6.30369214 86.33316551 -6.26318359 81.19311523 C-6.26844055 80.36975677 -6.27369751 79.54639832 -6.27911377 78.6980896 C-6.29228519 75.98472964 -6.28358673 73.27195936 -6.2734375 70.55859375 C-6.27545886 68.6696003 -6.27837083 66.78060761 -6.28213501 64.89161682 C-6.28655432 60.93653926 -6.2801392 56.98166521 -6.26611328 53.02661133 C-6.24900993 47.95668843 -6.25887235 42.88724158 -6.27683067 37.81733608 C-6.2876691 33.91828318 -6.28422209 30.01934324 -6.2764473 26.12028694 C-6.27444606 24.25077317 -6.27690187 22.38124915 -6.28388596 20.51174736 C-6.29150269 17.90005168 -6.27989388 15.28912836 -6.26318359 12.67749023 C-6.26925629 11.90491379 -6.27532898 11.13233734 -6.28158569 10.33634949 C-6.24370908 7.14181827 -6.06686945 4.8538713 -4.53042603 2.02015686 C-2.875 0.5 -2.875 0.5 0 0 Z " fill="#ECBABD" transform="translate(179.875,201.5)"/>
<path d="M0 0 C3.04967516 0.59779237 4.84357456 1.694837 7.36328125 3.5 C8.15347656 4.056875 8.94367188 4.61375 9.7578125 5.1875 C10.34949219 5.620625 10.94117188 6.05375 11.55078125 6.5 C10.56078125 6.995 10.56078125 6.995 9.55078125 7.5 C7.81770576 6.48631434 6.08605208 5.46982492 4.37109375 4.42578125 C2.01794147 3.22900638 0.14755271 3.18523982 -2.44921875 3.5 C-3.99990541 6.60137331 -3.58764676 9.87931732 -3.57861328 13.28271484 C-3.5803656 14.08612808 -3.58211792 14.88954132 -3.58392334 15.71730042 C-3.58833622 18.38186788 -3.58540529 21.04636932 -3.58203125 23.7109375 C-3.58270458 25.55937716 -3.58367486 27.40781674 -3.58493042 29.2562561 C-3.58640674 33.13503867 -3.58425544 37.01379823 -3.57958984 40.89257812 C-3.57390056 45.86491419 -3.5771669 50.83719619 -3.58316231 55.80953026 C-3.58677649 59.62877815 -3.58562524 63.44801323 -3.58303452 67.26726151 C-3.58236721 69.10049063 -3.58318683 70.93372093 -3.58551407 72.7669487 C-3.58805373 75.33082912 -3.58418104 77.89462218 -3.57861328 80.45849609 C-3.58063751 81.2170842 -3.58266174 81.9756723 -3.58474731 82.75724792 C-3.57112503 86.14362537 -3.51251076 89.26328871 -2.44921875 92.5 C-3.10921875 92.5 -3.76921875 92.5 -4.44921875 92.5 C-6.93927458 88.76491625 -6.74485808 85.8527412 -6.73974609 81.52783203 C-6.74646332 80.71612549 -6.75318054 79.90441895 -6.76010132 79.06811523 C-6.77911931 76.3812856 -6.78300747 73.69470528 -6.78515625 71.0078125 C-6.79158174 69.14077654 -6.79830991 67.27374159 -6.80532837 65.40670776 C-6.81731078 61.49100408 -6.82100822 57.57538869 -6.81982422 53.65966797 C-6.81962102 48.64352518 -6.84691966 43.62794891 -6.88136864 38.61194038 C-6.9036134 34.75488692 -6.9076625 30.89797027 -6.90660477 27.04085922 C-6.90896452 25.1916903 -6.91780906 23.34251782 -6.9332695 21.49341202 C-6.9528799 18.90552441 -6.94711128 16.31886468 -6.93505859 13.73095703 C-6.94629761 12.96818451 -6.95753662 12.20541199 -6.96911621 11.41952515 C-6.92563057 7.74261343 -6.5486176 5.65795393 -4.57192993 2.51681519 C-2.44921875 0.5 -2.44921875 0.5 0 0 Z " fill="#D5BDC6" transform="translate(263.44921875,201.5)"/>
<path d="M0 0 C3 0.5 3 0.5 4.875 2.5 C5.431875 3.49 5.431875 3.49 6 4.5 C3.03 4.17 0.06 3.84 -3 3.5 C-4.59231101 6.68462202 -4.12929857 10.12510533 -4.11352539 13.62158203 C-4.11367142 14.46068115 -4.11381744 15.29978027 -4.1139679 16.16430664 C-4.11326968 18.94550131 -4.10548155 21.72662949 -4.09765625 24.5078125 C-4.09579175 26.43309492 -4.094368 28.35837782 -4.09336853 30.28366089 C-4.08954591 35.3570079 -4.07971779 40.43032639 -4.06866455 45.50366211 C-4.05844495 50.67821873 -4.05386973 55.85277995 -4.04882812 61.02734375 C-4.03809531 71.18490838 -4.02102193 81.34245182 -4 91.5 C-2.09154297 91.30277344 -2.09154297 91.30277344 -0.14453125 91.1015625 C0.57114014 91.02760254 1.28681152 90.95364258 2.02416992 90.87744141 C4.57021609 90.39107203 6.01826162 89.11474979 8 87.5 C8.99 87.83 9.98 88.16 11 88.5 C9.61447798 89.51423834 8.21605712 90.51087002 6.8125 91.5 C6.03519531 92.056875 5.25789062 92.61375 4.45703125 93.1875 C1.61712868 94.70452267 0.16126987 95.16226275 -3 94.5 C-6.36422309 90.33419524 -6.42866941 86.3302825 -6.38818359 81.19311523 C-6.39344055 80.36975677 -6.39869751 79.54639832 -6.40411377 78.6980896 C-6.41728519 75.98472964 -6.40858673 73.27195936 -6.3984375 70.55859375 C-6.40045886 68.6696003 -6.40337083 66.78060761 -6.40713501 64.89161682 C-6.41155432 60.93653926 -6.4051392 56.98166521 -6.39111328 53.02661133 C-6.37400993 47.95668843 -6.38387235 42.88724158 -6.40183067 37.81733608 C-6.4126691 33.91828318 -6.40922209 30.01934324 -6.4014473 26.12028694 C-6.39944606 24.25077317 -6.40190187 22.38124915 -6.40888596 20.51174736 C-6.41650269 17.90005168 -6.40489388 15.28912836 -6.38818359 12.67749023 C-6.39425629 11.90491379 -6.40032898 11.13233734 -6.40658569 10.33634949 C-6.36876367 7.14642161 -6.19037176 4.85316107 -4.66323853 2.02015686 C-3 0.5 -3 0.5 0 0 Z " fill="#DCBEC5" transform="translate(180,201.5)"/>
<path d="M0 0 C-0.6875 1.875 -0.6875 1.875 -2 4 C-3.66020716 4.68259388 -5.32815851 5.34641891 -7 6 C-8.83652348 7.08533993 -10.6485953 8.21284631 -12.4375 9.375 C-13.87802734 10.30699219 -13.87802734 10.30699219 -15.34765625 11.2578125 C-17.3620888 12.58098911 -19.37288468 13.90832272 -21.375 15.25 C-23.03421813 16.35614542 -24.71982267 17.42451081 -26.4375 18.4375 C-28.5412964 19.72030269 -30.50675772 21.05780526 -32.5 22.5 C-36.54326701 25.41289129 -40.72983751 27.90431219 -45.125 30.25 C-46.11886719 30.78367187 -46.11886719 30.78367187 -47.1328125 31.328125 C-49 32 -49 32 -52 31 C-51.33097656 30.62230469 -50.66195313 30.24460937 -49.97265625 29.85546875 C-41.4347974 24.96195771 -33.20329385 19.65850626 -24.96533203 14.28076172 C-18.40512681 10.00562674 -11.82458341 5.83882817 -5 2 C-2 0 -2 0 0 0 Z " fill="#A5AFBD" transform="translate(320,262)"/>
<path d="M0 0 C0.33 0.66 0.66 1.32 1 2 C0.01 3.485 0.01 3.485 -1 5 C-1.66 5 -2.32 5 -3 5 C-3.66 8.3 -4.32 11.6 -5 15 C-5.928125 15.20625 -6.85625 15.4125 -7.8125 15.625 C-11.26004095 16.74446192 -11.26004095 16.74446192 -12.875 20.125 C-13.24625 21.07375 -13.6175 22.0225 -14 23 C-14.99 22.01 -15.98 21.02 -17 20 C-15.625 17.5 -15.625 17.5 -14 15 C-13.34 15 -12.68 15 -12 15 C-11.66355469 13.92685547 -11.66355469 13.92685547 -11.3203125 12.83203125 C-9.70390489 9.36488474 -7.6259455 7.3326399 -4.875 4.6875 C-3.96492187 3.80449219 -3.05484375 2.92148438 -2.1171875 2.01171875 C-1.41851562 1.34785156 -0.71984375 0.68398437 0 0 Z " fill="#A9C0CE" transform="translate(163,158)"/>
<path d="M0 0 C2.475 0.99 2.475 0.99 5 2 C5.125 8.625 5.125 8.625 4 12 C2.109375 13.28125 2.109375 13.28125 -0.25 14.5 C-2.87233988 15.87995946 -5.41319164 17.25494803 -7.9375 18.8125 C-10 20 -10 20 -12 20 C-12 19.34 -12 18.68 -12 18 C-10.453125 17.1028125 -10.453125 17.1028125 -8.875 16.1875 C-7.92173828 15.62869141 -7.92173828 15.62869141 -6.94921875 15.05859375 C-5 14 -5 14 -1.6875 12.75 C1.36247143 10.76397209 1.52699645 10.18672392 2.375 6.8125 C2.58125 5.554375 2.7875 4.29625 3 3 C2.01 2.67 1.02 2.34 0 2 C0 1.34 0 0.68 0 0 Z " fill="#D9BDC6" transform="translate(328,243)"/>
<path d="M0 0 C0.66 0.33 1.32 0.66 2 1 C-1.46533865 4.87302555 -3.97824253 6.69434306 -9 8 C-10.29236208 8.37259633 -11.58403246 8.74760022 -12.875 9.125 C-14.421875 9.558125 -14.421875 9.558125 -16 10 C-16 10.66 -16 11.32 -16 12 C-17.32 11.67 -18.64 11.34 -20 11 C-5.82089552 2.58706468 -5.82089552 2.58706468 0 0 Z " fill="#ACC3D0" transform="translate(199,134)"/>
<path d="M0 0 C0.66 0.33 1.32 0.66 2 1 C2 1.99 2 2.98 2 4 C-0.13824216 5.70060743 -2.22089861 7.20205658 -4.5 8.6875 C-5.12003906 9.10322266 -5.74007813 9.51894531 -6.37890625 9.94726562 C-7.91315943 10.97403506 -9.45581929 11.98822225 -11 13 C-11.33 12.01 -11.66 11.02 -12 10 C-10.35 9.67 -8.7 9.34 -7 9 C-7 8.01 -7 7.02 -7 6 C-5.46875 4.39453125 -5.46875 4.39453125 -3.5 2.8125 C-2.8503125 2.28269531 -2.200625 1.75289063 -1.53125 1.20703125 C-0.77328125 0.60955078 -0.77328125 0.60955078 0 0 Z " fill="#B4C5D3" transform="translate(327,345)"/>
<path d="M0 0 C2.97 0 5.94 0 9 0 C8.67 0.66 8.34 1.32 8 2 C7.071875 1.9175 6.14375 1.835 5.1875 1.75 C1.98599249 1.65435447 1.98599249 1.65435447 0.33276367 3.66308594 C-1.28286112 6.4959785 -1.42528929 8.39087741 -1.51171875 11.640625 C-1.54716797 12.71054688 -1.58261719 13.78046875 -1.61914062 14.8828125 C-1.64169922 15.99398437 -1.66425781 17.10515625 -1.6875 18.25 C-1.72166016 19.37664062 -1.75582031 20.50328125 -1.79101562 21.6640625 C-1.87343014 24.44260901 -1.94260298 27.22084252 -2 30 C-2.33 30 -2.66 30 -3 30 C-3 21.09 -3 12.18 -3 3 C-2.34 3 -1.68 3 -1 3 C-0.67 2.01 -0.34 1.02 0 0 Z " fill="#9DAFC0" transform="translate(175,201)"/>
<path d="M0 0 C0.33 1.32 0.66 2.64 1 4 C1.66 4 2.32 4 3 4 C3.66 5.32 4.32 6.64 5 8 C10.28798182 7.58525633 13.11690718 6.64775386 17 3 C17.66 3.33 18.32 3.66 19 4 C17.36587557 5.70840281 16.13093906 6.93453047 14 8 C13.67 8.99 13.34 9.98 13 11 C11.01926635 10.719172 9.04041552 10.42503386 7.0625 10.125 C5.40927734 9.88136719 5.40927734 9.88136719 3.72265625 9.6328125 C2.82417969 9.42398437 1.92570313 9.21515625 1 9 C-0.4783226 6.04335481 -0.06032783 3.25770263 0 0 Z " fill="#A0B0BE" transform="translate(172,287)"/>
<path d="M0 0 C0.99 0.33 1.98 0.66 3 1 C1.55367188 1.92232422 1.55367188 1.92232422 0.078125 2.86328125 C-1.19796882 3.67960597 -2.47400759 4.49601676 -3.75 5.3125 C-4.38421875 5.71662109 -5.0184375 6.12074219 -5.671875 6.53710938 C-8.29755252 8.21918404 -10.8558015 9.8889478 -13.328125 11.79296875 C-15 13 -15 13 -17 13 C-16.34 11.68 -15.68 10.36 -15 9 C-14.01 9 -13.02 9 -12 9 C-12 8.34 -12 7.68 -12 7 C-11.13375 6.5875 -10.2675 6.175 -9.375 5.75 C-5.9403676 4.06606802 -5.9403676 4.06606802 -2.8125 1.75 C-1.884375 1.1725 -0.95625 0.595 0 0 Z " fill="#D8BCC6" transform="translate(289,278)"/>
<path d="M0 0 C0.33 0 0.66 0 1 0 C1 3.3 1 6.6 1 10 C-1.28703308 11.19725883 -3.57884862 12.38297018 -5.875 13.5625 C-6.52597656 13.90474609 -7.17695313 14.24699219 -7.84765625 14.59960938 C-9.53529857 15.46082891 -11.26579593 16.23686703 -13 17 C-13.66 16.67 -14.32 16.34 -15 16 C-13.21190303 14.82786955 -11.41940875 13.66244474 -9.625 12.5 C-8.62726563 11.8503125 -7.62953125 11.200625 -6.6015625 10.53125 C-4 9 -4 9 -2 9 C-2 8.34 -2 7.68 -2 7 C-1.34 7 -0.68 7 0 7 C0 4.69 0 2.38 0 0 Z " fill="#A2AFBF" transform="translate(250,246)"/>
<path d="M0 0 C0.33 0 0.66 0 1 0 C1.05395478 1.62463842 1.09277195 3.24978541 1.125 4.875 C1.14820313 5.77992188 1.17140625 6.68484375 1.1953125 7.6171875 C1 10 1 10 -1 12 C-1.64767793 14.57061311 -1.64767793 14.57061311 -2 17 C-2.66 17 -3.32 17 -4 17 C-3.45018084 10.95198929 -2.09570426 5.69398894 0 0 Z " fill="#AFC1CF" transform="translate(131,207)"/>
<path d="M0 0 C2.875 0.25 2.875 0.25 6 1 C7.125 3 7.125 3 8 5 C9.89179203 5.6814823 9.89179203 5.6814823 12 6 C13.3479743 6.63654342 14.68596724 7.29605388 16 8 C16 8.66 16 9.32 16 10 C9.8034553 8.53239731 4.93130534 4.88851943 0 1 C0 0.67 0 0.34 0 0 Z " fill="#A7AFBE" transform="translate(208,218)"/>
<path d="M0 0 C1.1484375 1.703125 1.1484375 1.703125 2 4 C1.1015625 6.359375 1.1015625 6.359375 -0.375 8.75 C-1.09816406 9.94882813 -1.09816406 9.94882813 -1.8359375 11.171875 C-2.22007812 11.77515625 -2.60421875 12.3784375 -3 13 C-3.66 13 -4.32 13 -5 13 C-4.39254603 8.14036821 -2.27241033 4.2594482 0 0 Z " fill="#ACC1D2" transform="translate(139,189)"/>
<path d="M0 0 C4.99213851 0.46801299 9.12963993 2.91715737 13 6 C13 6.66 13 7.32 13 8 C7.73691968 6.58795406 4.2437012 4.31008693 0 1 C0 0.67 0 0.34 0 0 Z " fill="#AAB0BE" transform="translate(291,218)"/>
<path d="M0 0 C5.80342274 1.48805711 10.17590879 4.59097555 15 8 C13.203125 8.61328125 13.203125 8.61328125 11 9 C7.75 7.1875 7.75 7.1875 5 5 C5 4.34 5 3.68 5 3 C3.68 3 2.36 3 1 3 C0.67 2.01 0.34 1.02 0 0 Z " fill="#DDBEC5" transform="translate(202,216)"/>
<path d="M0 0 C7.26153846 -0.49230769 7.26153846 -0.49230769 11 2 C11.66 2.66 12.32 3.32 13 4 C8.428721 3.45144652 4.32564205 2.58255197 0 1 C0 0.67 0 0.34 0 0 Z " fill="#B3C8D2" transform="translate(207,368)"/>
<path d="M0 0 C1.65 0 3.3 0 5 0 C5.33 1.32 5.66 2.64 6 4 C6.99 4 7.98 4 9 4 C9 4.66 9 5.32 9 6 C5.59687262 4.94124926 2.98646769 3.99097846 0 2 C0 1.34 0 0.68 0 0 Z " fill="#A0ADBE" transform="translate(319,235)"/>
<path d="M0 0 C4.24822374 0.47202486 6.19989709 2.96655518 9 6 C4.9666466 6 3.16482462 4.39120082 0 2 C0 1.34 0 0.68 0 0 Z " fill="#B7C8D3" transform="translate(178,352)"/>
<path d="M0 0 C0.33 0 0.66 0 1 0 C1.33 3.96 1.66 7.92 2 12 C1.34 12 0.68 12 0 12 C-0.76173392 7.6835078 -1.16063604 4.25566547 0 0 Z " fill="#B3C6D4" transform="translate(373,224)"/>
<path d="M0 0 C1.65 0 3.3 0 5 0 C4.01 0.495 4.01 0.495 3 1 C3 1.66 3 2.32 3 3 C1.03533587 4.06775224 -0.96855359 5.06553465 -3 6 C-3.66 5.67 -4.32 5.34 -5 5 C-4.01 4.67 -3.02 4.34 -2 4 C-0.79117904 1.99983534 -0.79117904 1.99983534 0 0 Z " fill="#DABEC6" transform="translate(221,267)"/>
<path d="M0 0 C0.66 1.32 1.32 2.64 2 4 C0.35 5.98 -1.3 7.96 -3 10 C-3.66 9.01 -4.32 8.02 -5 7 C-4.0409375 6.6596875 -4.0409375 6.6596875 -3.0625 6.3125 C-0.72806339 5.14749104 -0.72806339 5.14749104 -0.25 2.375 C-0.1675 1.59125 -0.085 0.8075 0 0 Z " fill="#B3C5D1" transform="translate(347,325)"/>
<path d="M0 0 C6.75 -0.125 6.75 -0.125 9 1 C9 1.99 9 2.98 9 4 C6.03 3.01 3.06 2.02 0 1 C0 0.67 0 0.34 0 0 Z " fill="#B2C6D2" transform="translate(197,364)"/>
<path d="M0 0 C1.98 0.66 3.96 1.32 6 2 C6 2.66 6 3.32 6 4 C6.99 4.33 7.98 4.66 9 5 C7.68 5.33 6.36 5.66 5 6 C4.731875 5.360625 4.46375 4.72125 4.1875 4.0625 C3.11332248 1.66868314 3.11332248 1.66868314 0 1 C0 0.67 0 0.34 0 0 Z " fill="#DABBC2" transform="translate(300,225)"/>
<path d="M0 0 C1.32 0.33 2.64 0.66 4 1 C2.35 2.65 0.7 4.3 -1 6 C-1.33 5.01 -1.66 4.02 -2 3 C-1.34 2.01 -0.68 1.02 0 0 Z " fill="#AFC1D0" transform="translate(332,341)"/>
<path d="M0 0 C0.8971875 0.309375 0.8971875 0.309375 1.8125 0.625 C0.4925 0.955 -0.8275 1.285 -2.1875 1.625 C-2.1875 2.285 -2.1875 2.945 -2.1875 3.625 C-4.4975 3.625 -6.8075 3.625 -9.1875 3.625 C-8.2903125 3.191875 -8.2903125 3.191875 -7.375 2.75 C-1.52083333 -0.26071429 -1.52083333 -0.26071429 0 0 Z " fill="#D8BBC6" transform="translate(270.1875,291.375)"/>
<path d="M0 0 C0 0.66 0 1.32 0 2 C-0.99 2 -1.98 2 -3 2 C-3.33 2.99 -3.66 3.98 -4 5 C-5.32 5 -6.64 5 -8 5 C-8 4.34 -8 3.68 -8 3 C-2.25 0 -2.25 0 0 0 Z " fill="#A2B1BE" transform="translate(232,265)"/>
<path d="M0 0 C1.32 1.32 2.64 2.64 4 4 C2.35 4.33 0.7 4.66 -1 5 C-1.33 3.68 -1.66 2.36 -2 1 C-1.34 0.67 -0.68 0.34 0 0 Z " fill="#ACBFD0" transform="translate(332,154)"/>
<path d="M0 0 C0.66 0.33 1.32 0.66 2 1 C2 1.99 2 2.98 2 4 C0.02 4.99 0.02 4.99 -2 6 C-2 4.35 -2 2.7 -2 1 C-1.34 0.67 -0.68 0.34 0 0 Z " fill="#A9BCCB" transform="translate(327,345)"/>
<path d="M0 0 C-1 3 -1 3 -4 5 C-6.1875 4.625 -6.1875 4.625 -8 4 C-2.25 0 -2.25 0 0 0 Z " fill="#A4AFBD" transform="translate(328,257)"/>
<path d="M0 0 C0.66 0 1.32 0 2 0 C2.33 2.64 2.66 5.28 3 8 C2.34 8 1.68 8 1 8 C0.67 5.36 0.34 2.72 0 0 Z " fill="#B0C3D0" transform="translate(370,216)"/>
</svg>
