<?xml version="1.0" encoding="UTF-8"?>
<svg version="1.1" xmlns="http://www.w3.org/2000/svg" width="500" height="500">
<path d="M0 0 C0 0.66 0 1.32 0 2 C0.58136719 2.26425781 1.16273438 2.52851563 1.76171875 2.80078125 C9.19804908 6.78499314 17.49439607 14.84404082 22 22 C22 22.66 22 23.32 22 24 C22.66 24 23.32 24 24 24 C44.56692046 48.70989724 51.26127923 83.39948202 48.484375 114.61962891 C45.94048686 139.77762261 36.05966007 162.55935886 20 182 C18.93652344 183.29550781 18.93652344 183.29550781 17.8515625 184.6171875 C0.71089132 204.56153723 -21.69159821 217.3868895 -47 224 C-47.89074219 224.23332031 -48.78148437 224.46664062 -49.69921875 224.70703125 C-84.57860883 232.31807555 -120.7140205 223.66562024 -150.3125 204.6875 C-152.48828125 203.26171875 -152.48828125 203.26171875 -154 202 C-154 201.34 -154 200.68 -154 200 C-154.84304687 199.63068359 -154.84304687 199.63068359 -155.703125 199.25390625 C-163.52511673 194.9837373 -170.65730957 187.05891781 -176 180 C-176 179.34 -176 178.68 -176 178 C-176.66 178 -177.32 178 -178 178 C-198.91914567 152.8669257 -205.36869315 117.36601845 -202.53759766 85.6862793 C-200.41136373 65.62542366 -192.64574479 47.00141332 -182 30 C-181.37738281 28.97519531 -181.37738281 28.97519531 -180.7421875 27.9296875 C-179.6875 26.25 -179.6875 26.25 -178 24 C-177.34 24 -176.68 24 -176 24 C-175.82082031 23.33355469 -175.64164063 22.66710937 -175.45703125 21.98046875 C-173.33172828 17.63299914 -170.1138062 14.68001353 -166.6875 11.3125 C-166.02298828 10.63638672 -165.35847656 9.96027344 -164.67382812 9.26367188 C-158.61497543 3.24077676 -158.61497543 3.24077676 -154 2 C-154 1.34 -154 0.68 -154 0 C-151.67764037 -1.66929135 -149.37069518 -3.19427659 -146.9375 -4.6875 C-146.21304688 -5.13375732 -145.48859375 -5.58001465 -144.7421875 -6.03979492 C-101.77673991 -32.02922055 -40.13397069 -33.49682825 0 0 Z " fill="#95B4C9" transform="translate(327,149)"/>
<path d="M0 0 C0.98613281 0.00322266 1.97226562 0.00644531 2.98828125 0.00976562 C4.02082031 0.01814453 5.05335938 0.02652344 6.1171875 0.03515625 C7.67759766 0.04192383 7.67759766 0.04192383 9.26953125 0.04882812 C11.84380712 0.06063673 14.41796896 0.0771055 16.9921875 0.09765625 C16.9921875 0.75765625 16.9921875 1.41765625 16.9921875 2.09765625 C18.3121875 2.75765625 19.6321875 3.41765625 20.9921875 4.09765625 C21.10902976 18.74456985 21.19717983 33.39142171 21.25124836 48.03870678 C21.27702159 54.83984654 21.31215451 61.64069659 21.36938477 68.44165039 C21.42457515 75.0033281 21.4535989 81.56478367 21.46657372 88.12670326 C21.47582165 90.63180597 21.49388047 93.13689195 21.52083778 95.64186668 C21.55706539 99.14726926 21.56213521 102.65142316 21.55981445 106.15698242 C21.57779083 107.1956395 21.59576721 108.23429657 21.61428833 109.3044281 C21.56376904 116.34337455 21.56376904 116.34337455 18.60870361 120.24299622 C15.7714545 122.25411799 14.48163773 122.72077831 11.05078125 122.69140625 C10.13748047 122.68882812 9.22417969 122.68625 8.28320312 122.68359375 C7.34154297 122.65523438 6.39988281 122.626875 5.4296875 122.59765625 C4.01139648 122.60152344 4.01139648 122.60152344 2.56445312 122.60546875 C-5.40012111 122.49289526 -5.40012111 122.49289526 -9.0078125 119.09765625 C-9.95080943 116.26866546 -10.1373843 114.52490427 -10.14825439 111.59451294 C-10.15396454 110.6720578 -10.15967468 109.74960266 -10.16555786 108.79919434 C-10.16723465 107.28428406 -10.16723465 107.28428406 -10.16894531 105.73876953 C-10.17391022 104.67347015 -10.17887512 103.60817078 -10.18399048 102.5105896 C-10.19861866 98.97970946 -10.20541487 95.44887424 -10.2109375 91.91796875 C-10.21668798 89.46800739 -10.22244572 87.01804604 -10.22821045 84.56808472 C-10.23872201 79.42836293 -10.24456381 74.2886568 -10.24804688 69.14892578 C-10.25353489 62.5590381 -10.27756905 55.9693567 -10.30601883 49.37953377 C-10.32462959 44.31809888 -10.32984996 39.25671387 -10.33138275 34.19524765 C-10.33441283 31.76554104 -10.34245326 29.33583537 -10.35556793 26.90616226 C-10.37259697 23.50905845 -10.37075573 20.11246105 -10.36425781 16.71533203 C-10.3734726 15.70944031 -10.38268738 14.70354858 -10.3921814 13.66717529 C-10.34044978 5.04614419 -10.34044978 5.04614419 -7.0078125 1.09765625 C-4.50284246 -0.15482877 -2.79927976 -0.01608781 0 0 Z " fill="#EDBABD" transform="translate(277.0078125,188.90234375)"/>
<path d="M0 0 C0.85078125 -0.02900391 1.7015625 -0.05800781 2.578125 -0.08789062 C3.40570313 -0.09626953 4.23328125 -0.10464844 5.0859375 -0.11328125 C6.21201416 -0.13515503 6.21201416 -0.13515503 7.36083984 -0.1574707 C10.85583361 0.56798358 12.20736565 1.64274681 14.625 4.3125 C15.39798992 7.9186599 15.30756604 11.49186318 15.27197266 15.16796875 C15.28511505 16.82706772 15.28511505 16.82706772 15.29852295 18.51968384 C15.32055107 22.18018686 15.30595069 25.83948444 15.2890625 29.5 C15.29242961 32.04061109 15.29728135 34.58122061 15.30355835 37.12182617 C15.31093439 42.44825045 15.30067614 47.77424166 15.27685547 53.10058594 C15.24964412 59.25612395 15.25845857 65.41083394 15.2859875 71.56635189 C15.31142192 77.49097011 15.30871672 83.41533131 15.29407883 89.33999634 C15.29073925 91.85983394 15.29485116 94.37969262 15.30647659 96.89950562 C15.31915091 100.41925333 15.29985306 103.93740284 15.27197266 107.45703125 C15.28209381 108.50235016 15.29221497 109.54766907 15.30264282 110.62466431 C15.19895827 117.67662072 15.19895827 117.67662072 12.23655701 120.95861816 C9.46598746 122.39493519 7.784216 122.82685781 4.68359375 122.84375 C3.31364258 122.85148437 3.31364258 122.85148437 1.91601562 122.859375 C0.97435547 122.84390625 0.03269531 122.8284375 -0.9375 122.8125 C-2.35579102 122.83570313 -2.35579102 122.83570313 -3.80273438 122.859375 C-4.71474609 122.85421875 -5.62675781 122.8490625 -6.56640625 122.84375 C-7.39342041 122.83923828 -8.22043457 122.83472656 -9.07250977 122.83007812 C-12.44013092 122.0730686 -13.34973573 121.15288992 -15.375 118.3125 C-15.98661619 114.69522181 -15.91051706 111.10204885 -15.87670898 107.44116211 C-15.88211197 106.33348984 -15.88751495 105.22581757 -15.89308167 104.08457947 C-15.9055998 100.41939666 -15.88905754 96.75499454 -15.87109375 93.08984375 C-15.87124865 90.54683898 -15.8727362 88.00383396 -15.87550354 85.46083069 C-15.87688889 80.13026608 -15.86473868 74.79997769 -15.84155273 69.46948242 C-15.81492981 63.30614183 -15.81320049 57.14317762 -15.8249411 50.97979921 C-15.83571787 45.04986917 -15.82943277 39.12005405 -15.81538582 33.19012642 C-15.81086089 30.66667643 -15.81054356 28.14321535 -15.81445122 25.61976433 C-15.81735218 22.09775746 -15.80090954 18.57637185 -15.77905273 15.05444336 C-15.78355438 14.00552917 -15.78805603 12.95661499 -15.79269409 11.87591553 C-15.78278946 10.91835861 -15.77288483 9.9608017 -15.76268005 8.97422791 C-15.76025016 8.14151336 -15.75782026 7.30879881 -15.75531673 6.45085049 C-15.28206274 3.78995545 -14.50121547 2.93744472 -12.375 1.3125 C-8.23608843 -0.06713719 -4.33606224 0.04882953 0 0 Z " fill="#EDBABD" transform="translate(217.375,188.6875)"/>
<path d="M0 0 C0.98613281 0.00322266 1.97226562 0.00644531 2.98828125 0.00976562 C4.02082031 0.01814453 5.05335938 0.02652344 6.1171875 0.03515625 C7.67759766 0.04192383 7.67759766 0.04192383 9.26953125 0.04882812 C11.84380712 0.06063673 14.41796896 0.0771055 16.9921875 0.09765625 C16.9921875 0.75765625 16.9921875 1.41765625 16.9921875 2.09765625 C18.3121875 2.75765625 19.6321875 3.41765625 20.9921875 4.09765625 C21.10902976 18.74456985 21.19717983 33.39142171 21.25124836 48.03870678 C21.27702159 54.83984654 21.31215451 61.64069659 21.36938477 68.44165039 C21.42457515 75.0033281 21.4535989 81.56478367 21.46657372 88.12670326 C21.47582165 90.63180597 21.49388047 93.13689195 21.52083778 95.64186668 C21.55706539 99.14726926 21.56213521 102.65142316 21.55981445 106.15698242 C21.57779083 107.1956395 21.59576721 108.23429657 21.61428833 109.3044281 C21.56376904 116.34337455 21.56376904 116.34337455 18.60870361 120.24299622 C15.7714545 122.25411799 14.48163773 122.72077831 11.05078125 122.69140625 C10.13748047 122.68882812 9.22417969 122.68625 8.28320312 122.68359375 C7.34154297 122.65523438 6.39988281 122.626875 5.4296875 122.59765625 C4.01139648 122.60152344 4.01139648 122.60152344 2.56445312 122.60546875 C-2.40835311 122.53518174 -5.13231198 122.45148689 -9.0078125 119.09765625 C-8.5128125 118.10765625 -8.5128125 118.10765625 -8.0078125 117.09765625 C-7.0178125 117.75765625 -6.0278125 118.41765625 -5.0078125 119.09765625 C-1.52291074 119.55357458 1.98059276 119.46795532 5.4921875 119.47265625 C6.93658203 119.50939453 6.93658203 119.50939453 8.41015625 119.546875 C9.79654297 119.55267578 9.79654297 119.55267578 11.2109375 119.55859375 C12.05591797 119.56681152 12.90089844 119.5750293 13.77148438 119.58349609 C16.12086022 119.29062212 16.12086022 119.29062212 17.60843372 117.35835648 C19.18702707 114.77933816 19.36320929 113.43601985 19.35295105 110.44061279 C19.35913704 109.04402939 19.35913704 109.04402939 19.365448 107.61923218 C19.35466217 106.60503204 19.34387634 105.59083191 19.33276367 104.54589844 C19.33320175 103.47242157 19.33363983 102.3989447 19.33409119 101.29293823 C19.33200049 97.74328449 19.30865551 94.19410253 19.28515625 90.64453125 C19.27956131 88.18402362 19.27529073 85.72351265 19.27229309 83.26300049 C19.26083635 76.78563212 19.23136174 70.30846542 19.19818115 63.83117676 C19.16749832 57.22211434 19.15379156 50.61301935 19.13867188 44.00390625 C19.10649308 31.03507019 19.0558628 18.06637394 18.9921875 5.09765625 C14.14247942 2.46715354 14.14247942 2.46715354 8.79296875 1.953125 C7.69178711 2.02176758 7.69178711 2.02176758 6.56835938 2.09179688 C5.4478418 2.18750977 5.4478418 2.18750977 4.3046875 2.28515625 C3.54607422 2.32962891 2.78746094 2.37410156 2.00585938 2.41992188 C-1.74443942 2.68803679 -3.82699202 2.97710927 -7.0078125 5.09765625 C-7.93958092 8.30971434 -8.13837306 11.39230682 -8.16603088 14.72309875 C-8.1758197 15.62187241 -8.18560852 16.52064606 -8.19569397 17.44665527 C-8.20144943 18.41985718 -8.2072049 19.39305908 -8.21313477 20.39575195 C-8.22303436 21.43036057 -8.23293396 22.46496918 -8.24313354 23.53092957 C-8.27467954 26.94507573 -8.29947876 30.3592358 -8.32421875 33.7734375 C-8.34479423 36.14284117 -8.36579086 38.51224122 -8.38719177 40.88163757 C-8.44235106 47.1139126 -8.49178747 53.34622042 -8.54003906 59.57855225 C-8.59029892 65.9397676 -8.64596158 72.30093541 -8.70117188 78.66210938 C-8.80867833 91.14058437 -8.91014001 103.61910067 -9.0078125 116.09765625 C-9.3378125 116.09765625 -9.6678125 116.09765625 -10.0078125 116.09765625 C-10.07792215 101.8418276 -10.13061072 87.58602572 -10.16324902 73.33006001 C-10.17891281 66.7106205 -10.20016443 60.09129672 -10.23413086 53.47192383 C-10.26669836 47.08529203 -10.28466014 40.69877163 -10.29244423 34.31206322 C-10.29799239 31.87397699 -10.3088264 29.43589693 -10.32500267 26.99785805 C-10.34674177 23.5860839 -10.34978083 20.17477159 -10.34838867 16.76293945 C-10.36456741 15.24703217 -10.36456741 15.24703217 -10.381073 13.70050049 C-10.34277012 5.04026212 -10.34277012 5.04026212 -7.0078125 1.09765625 C-4.50284246 -0.15482877 -2.79927976 -0.01608781 0 0 Z " fill="#D2BCC7" transform="translate(277.0078125,188.90234375)"/>
<path d="M0 0 C0.85078125 -0.02900391 1.7015625 -0.05800781 2.578125 -0.08789062 C3.40570313 -0.09626953 4.23328125 -0.10464844 5.0859375 -0.11328125 C6.21201416 -0.13515503 6.21201416 -0.13515503 7.36083984 -0.1574707 C10.85583361 0.56798358 12.20736565 1.64274681 14.625 4.3125 C15.39798992 7.9186599 15.30756604 11.49186318 15.27197266 15.16796875 C15.28511505 16.82706772 15.28511505 16.82706772 15.29852295 18.51968384 C15.32055107 22.18018686 15.30595069 25.83948444 15.2890625 29.5 C15.29242961 32.04061109 15.29728135 34.58122061 15.30355835 37.12182617 C15.31093439 42.44825045 15.30067614 47.77424166 15.27685547 53.10058594 C15.24964412 59.25612395 15.25845857 65.41083394 15.2859875 71.56635189 C15.31142192 77.49097011 15.30871672 83.41533131 15.29407883 89.33999634 C15.29073925 91.85983394 15.29485116 94.37969262 15.30647659 96.89950562 C15.31915091 100.41925333 15.29985306 103.93740284 15.27197266 107.45703125 C15.28209381 108.50235016 15.29221497 109.54766907 15.30264282 110.62466431 C15.19895827 117.67662072 15.19895827 117.67662072 12.23655701 120.95861816 C9.46598746 122.39493519 7.784216 122.82685781 4.68359375 122.84375 C3.31364258 122.85148437 3.31364258 122.85148437 1.91601562 122.859375 C0.97435547 122.84390625 0.03269531 122.8284375 -0.9375 122.8125 C-2.35579102 122.83570313 -2.35579102 122.83570313 -3.80273438 122.859375 C-4.71474609 122.85421875 -5.62675781 122.8490625 -6.56640625 122.84375 C-7.39342041 122.83923828 -8.22043457 122.83472656 -9.07250977 122.83007812 C-12.44013092 122.0730686 -13.34973573 121.15288992 -15.375 118.3125 C-15.98661619 114.69522181 -15.91051706 111.10204885 -15.87670898 107.44116211 C-15.88211197 106.33348984 -15.88751495 105.22581757 -15.89308167 104.08457947 C-15.9055998 100.41939666 -15.88905754 96.75499454 -15.87109375 93.08984375 C-15.87124865 90.54683898 -15.8727362 88.00383396 -15.87550354 85.46083069 C-15.87688889 80.13026608 -15.86473868 74.79997769 -15.84155273 69.46948242 C-15.81492981 63.30614183 -15.81320049 57.14317762 -15.8249411 50.97979921 C-15.83571787 45.04986917 -15.82943277 39.12005405 -15.81538582 33.19012642 C-15.81086089 30.66667643 -15.81054356 28.14321535 -15.81445122 25.61976433 C-15.81735218 22.09775746 -15.80090954 18.57637185 -15.77905273 15.05444336 C-15.78355438 14.00552917 -15.78805603 12.95661499 -15.79269409 11.87591553 C-15.78278946 10.91835861 -15.77288483 9.9608017 -15.76268005 8.97422791 C-15.76025016 8.14151336 -15.75782026 7.30879881 -15.75531673 6.45085049 C-15.28206274 3.78995545 -14.50121547 2.93744472 -12.375 1.3125 C-8.23608843 -0.06713719 -4.33606224 0.04882953 0 0 Z M-14.375 5.3125 C-14.96785404 7.42707606 -14.96785404 7.42707606 -14.86947632 9.82237244 C-14.8778653 10.74627274 -14.88625427 11.67017303 -14.89489746 12.62207031 C-14.88365845 13.63358154 -14.87241943 14.64509277 -14.86083984 15.68725586 C-14.86463654 16.75416153 -14.86843323 17.8210672 -14.87234497 18.92030334 C-14.87977009 22.45628005 -14.8583383 25.99143973 -14.8359375 29.52734375 C-14.83355398 31.97969974 -14.83264756 34.43205758 -14.8331604 36.88441467 C-14.83002893 42.02844648 -14.81343752 47.17220025 -14.78662109 52.31616211 C-14.75265888 58.91510233 -14.74499183 65.5137365 -14.74651146 72.11275387 C-14.74596794 77.178461 -14.73500326 82.24410102 -14.72050858 87.30978584 C-14.71413676 89.74309341 -14.71020078 92.17640859 -14.70872116 94.60972404 C-14.70439132 98.00939797 -14.68689611 101.40874563 -14.66552734 104.80834961 C-14.66643372 105.81783661 -14.66734009 106.82732361 -14.66827393 107.86740112 C-14.65974396 108.79412125 -14.65121399 109.72084137 -14.64242554 110.67564392 C-14.63907385 111.47923812 -14.63572216 112.28283232 -14.63226891 113.11077785 C-14.34225187 115.59276037 -13.69607195 117.19945354 -12.375 119.3125 C-8.73602049 121.13198976 -4.44340712 120.49720453 -0.4375 120.5 C0.48224609 120.51224609 1.40199219 120.52449219 2.34960938 120.53710938 C3.23326172 120.53904297 4.11691406 120.54097656 5.02734375 120.54296875 C6.24151978 120.54913208 6.24151978 120.54913208 7.48022461 120.55541992 C9.92277907 120.44442317 9.92277907 120.44442317 12.625 118.3125 C13.57754701 115.45485896 13.74860206 113.70031871 13.74525452 110.73774719 C13.74662918 109.7996521 13.74800385 108.86155701 13.74942017 107.89503479 C13.74582489 106.86788864 13.74222961 105.84074249 13.73852539 104.7824707 C13.73867142 103.69938629 13.73881744 102.61630188 13.7389679 101.50039673 C13.73827007 97.91300467 13.73048372 94.32566426 13.72265625 90.73828125 C13.72079161 88.2539218 13.71936792 85.76956198 13.71836853 83.28520203 C13.7149378 77.40978397 13.7070527 71.53438504 13.69701904 65.65897483 C13.68474734 58.31366851 13.67937462 50.9683611 13.67382812 43.62304688 C13.66309721 30.5195218 13.64621684 17.41601208 13.625 4.3125 C8.89529523 1.81442688 4.90562914 1.98114061 -0.375 2 C-1.27734375 1.98388672 -2.1796875 1.96777344 -3.109375 1.95117188 C-3.98078125 1.95052734 -4.8521875 1.94988281 -5.75 1.94921875 C-6.54148438 1.94623779 -7.33296875 1.94325684 -8.1484375 1.94018555 C-10.99587741 2.41631996 -12.26758474 3.35341159 -14.375 5.3125 Z " fill="#DEBFC6" transform="translate(217.375,188.6875)"/>
<path d="M0 0 C1.32 0.66 2.64 1.32 4 2 C4.24758818 16.7597546 4.46611666 31.51970143 4.65021229 46.28038979 C4.73636951 53.1343109 4.83197301 59.98785527 4.94995117 66.84130859 C5.06376941 73.45465925 5.15108254 80.06801723 5.22220421 86.68198776 C5.25368294 89.20588063 5.29405893 91.72967866 5.34345436 94.25328445 C5.41110492 97.78701926 5.44717134 101.31976774 5.47583008 104.85400391 C5.5031572 105.89841644 5.53048431 106.94282898 5.55863953 108.01889038 C5.56595286 112.61080322 5.5615578 115.95558052 2.63946533 119.65107727 C-0.39366312 122.35033014 -1.59864713 122.743087 -5.59765625 122.69140625 C-6.64630859 122.68560547 -7.69496094 122.67980469 -8.77539062 122.67382812 C-9.86013672 122.63708984 -10.94488281 122.60035156 -12.0625 122.5625 C-13.15111328 122.56056641 -14.23972656 122.55863281 -15.36132812 122.55664062 C-24.39939242 122.40646971 -24.39939242 122.40646971 -28 119 C-28.49219131 116.83485889 -28.49219131 116.83485889 -28.48101807 114.27339172 C-28.48651672 113.30164001 -28.49201538 112.32988831 -28.49768066 111.32868958 C-28.48329956 110.26414047 -28.46891846 109.19959137 -28.45410156 108.1027832 C-28.45468567 106.98068451 -28.45526978 105.85858582 -28.45587158 104.70248413 C-28.45307969 100.98493768 -28.42193406 97.26818803 -28.390625 93.55078125 C-28.38316658 90.97674498 -28.37747177 88.40270303 -28.37347412 85.82865906 C-28.35974997 79.74060271 -28.3282089 73.65287635 -28.28807616 67.56494445 C-28.24337709 60.63397116 -28.22137617 53.70298421 -28.20129442 46.77190268 C-28.15947643 32.51444757 -28.0891128 18.25723398 -28 4 C-27.67 4 -27.34 4 -27 4 C-26.99761165 4.57960637 -26.99522329 5.15921274 -26.99276257 5.75638294 C-26.93365381 19.85259867 -26.85813043 33.94864625 -26.76428509 48.04467487 C-26.7192991 54.86139189 -26.67989105 61.67805633 -26.65356445 68.49487305 C-26.62815708 75.06963314 -26.58727142 81.64417796 -26.53681374 88.2188015 C-26.52008858 90.73106172 -26.50860964 93.24336236 -26.50238609 95.75567055 C-26.49280647 99.26615681 -26.46482037 102.77603822 -26.43237305 106.28637695 C-26.43380814 107.33222458 -26.43524323 108.3780722 -26.4367218 109.45561218 C-26.42418365 110.41053558 -26.41164551 111.36545898 -26.39872742 112.34931946 C-26.39411845 113.17985494 -26.38950949 114.01039042 -26.38476086 114.86609364 C-25.90977871 117.50037258 -25.10368598 118.39102003 -23 120 C-20.75115602 120.46011827 -20.75115602 120.46011827 -18.25390625 120.3984375 C-17.33416016 120.40230469 -16.41441406 120.40617187 -15.46679688 120.41015625 C-14.02916992 120.39275391 -14.02916992 120.39275391 -12.5625 120.375 C-11.13067383 120.39240234 -11.13067383 120.39240234 -9.66992188 120.41015625 C-8.74888672 120.40628906 -7.82785156 120.40242188 -6.87890625 120.3984375 C-6.0391626 120.39505371 -5.19941895 120.39166992 -4.33422852 120.38818359 C-1.41617858 119.90291015 -0.15122131 119.01712954 2 117 C2.59363886 114.81495222 2.59363886 114.81495222 2.49447632 112.33154297 C2.5028653 111.37254089 2.51125427 110.41353882 2.51989746 109.42547607 C2.50865845 108.37499084 2.49741943 107.32450562 2.48583984 106.2421875 C2.48963654 105.13466125 2.49343323 104.02713501 2.49734497 102.88604736 C2.5047704 99.2154126 2.4833391 95.54556474 2.4609375 91.875 C2.45855418 89.33056735 2.45764752 86.78613293 2.4581604 84.24169922 C2.45502895 78.90515314 2.43892139 73.56888123 2.41162109 68.23242188 C2.38016997 62.06177228 2.36962489 55.89137177 2.3710922 49.72064781 C2.37231284 43.78592298 2.36188504 37.85126997 2.34550858 31.91656494 C2.33913157 29.39032482 2.33519958 26.86407733 2.33372116 24.33782959 C2.32939782 20.81102927 2.31191722 17.28454519 2.29052734 13.7578125 C2.29143372 12.70732727 2.29234009 11.65684204 2.29327393 10.57452393 C2.28474396 9.61552185 2.27621399 8.65651978 2.26742554 7.66845703 C2.26407385 6.83444366 2.26072216 6.0004303 2.25726891 5.1411438 C2.12768414 2.70242512 2.12768414 2.70242512 0 0 Z " fill="#B5B5C5" transform="translate(229,190)"/>
<path d="M0 0 C0.99 0.33 1.98 0.66 3 1 C3.11674031 16.20298463 3.20494243 31.40594859 3.25906086 46.60928059 C3.28485569 53.66830225 3.32002994 60.72704562 3.37719727 67.78588867 C3.43230758 74.59397721 3.46139528 81.40177599 3.47438622 88.21007347 C3.48364784 90.81172433 3.50173286 93.41335877 3.52865028 96.01488686 C3.56477711 99.65000682 3.56995195 103.28391981 3.56762695 106.91918945 C3.58560333 108.00244003 3.60357971 109.08569061 3.62210083 110.20176697 C3.6033708 112.89567986 3.55428498 115.36401286 3 118 C-0.29574881 121.0153322 -3.02959746 121.37751403 -7.4140625 121.36328125 C-8.42210937 121.36263672 -9.43015625 121.36199219 -10.46875 121.36132812 C-11.5103125 121.34521484 -12.551875 121.32910156 -13.625 121.3125 C-14.67429687 121.31572266 -15.72359375 121.31894531 -16.8046875 121.32226562 C-24.59904185 121.26730543 -24.59904185 121.26730543 -28 119 C-27.505 118.01 -27.505 118.01 -27 117 C-26.01 117.66 -25.02 118.32 -24 119 C-20.53611866 119.45642994 -17.05329246 119.37030492 -13.5625 119.375 C-12.13067383 119.41173828 -12.13067383 119.41173828 -10.66992188 119.44921875 C-9.74888672 119.45308594 -8.82785156 119.45695312 -7.87890625 119.4609375 C-7.0391626 119.46915527 -6.19941895 119.47737305 -5.33422852 119.48583984 C-1.93111559 118.77752537 -1.03568582 117.85803455 1 115 C1.60153635 111.40666169 1.51478785 107.84001053 1.4699707 104.20458984 C1.4732563 102.55530235 1.4732563 102.55530235 1.47660828 100.87269592 C1.47892149 97.23513808 1.45265304 93.59838756 1.42578125 89.9609375 C1.42085914 87.43796038 1.41755909 84.91497961 1.41581726 82.39199829 C1.40817305 77.10430456 1.38813493 71.81688582 1.35668945 66.52929688 C1.31635832 59.73855792 1.29899538 52.94796967 1.28938007 46.15712547 C1.28019536 39.69587348 1.25951997 33.23465938 1.23828125 26.7734375 C1.23318763 24.91367342 1.23318763 24.91367342 1.2279911 23.01633835 C1.21645918 19.52304629 1.19794574 16.02986785 1.17700195 12.53662109 C1.17431305 11.49346237 1.17162415 10.45030365 1.16885376 9.37553406 C1.16169846 8.42776596 1.15454315 7.47999786 1.14717102 6.50350952 C1.14289754 5.67724752 1.13862406 4.85098553 1.13422108 3.99968529 C1.12442471 1.9269249 1.12442471 1.9269249 0 0 Z " fill="#ACB0C0" transform="translate(296,191)"/>
<path d="M0 0 C0.66 0.33 1.32 0.66 2 1 C0.30818483 4.94756873 -1.60148873 6.49450439 -5.3125 8.375 C-9.41490593 10.48271909 -11.84645261 12.75235392 -14.65234375 16.37109375 C-16 18 -16 18 -18.8125 20.125 C-21.40390082 22.34620071 -21.72165399 23.65984783 -22 27 C-22.99 26.67 -23.98 26.34 -25 26 C-23.51820355 20.48857003 -19.63108445 17.1884157 -15.6875 13.3125 C-15.02298828 12.63638672 -14.35847656 11.96027344 -13.67382812 11.26367188 C-7.61497543 5.24077676 -7.61497543 5.24077676 -3 4 C-3 3.34 -3 2.68 -3 2 C-2.01 1.34 -1.02 0.68 0 0 Z " fill="#BED1DB" transform="translate(176,147)"/>
<path d="M0 0 C0.33 0 0.66 0 1 0 C1.1358035 2.71003427 1.23444624 5.41318941 1.3125 8.125 C1.35439453 8.88554687 1.39628906 9.64609375 1.43945312 10.4296875 C1.52756521 14.51808814 1.10536383 16.78997166 -0.765625 20.51953125 C-3.42655132 23.25637625 -5.86518241 23.46425708 -9.59765625 23.69140625 C-11.75299954 23.67948364 -13.90835883 23.63545665 -16.0625 23.5625 C-17.15111328 23.56056641 -18.23972656 23.55863281 -19.36132812 23.55664062 C-28.14821298 23.41064315 -28.14821298 23.41064315 -32 20 C-31.67 18.68 -31.34 17.36 -31 16 C-30.5565625 16.8146875 -30.113125 17.629375 -29.65625 18.46875 C-26.17446063 21.78669046 -24.04531205 21.59906382 -19.37890625 21.5859375 C-18.42886719 21.55757813 -17.47882813 21.52921875 -16.5 21.5 C-15.54996094 21.50257813 -14.59992188 21.50515625 -13.62109375 21.5078125 C-7.21823047 21.46712251 -7.21823047 21.46712251 -2 18 C-0.81304447 14.43913342 -0.64904582 11.02668976 -0.4375 7.3125 C-0.39431641 6.61060547 -0.35113281 5.90871094 -0.30664062 5.18554688 C-0.2008264 3.45724794 -0.09993419 1.7286489 0 0 Z " fill="#A4AEBE" transform="translate(233,289)"/>
<path d="M0 0 C2.1875 0.3125 2.1875 0.3125 4 1 C0.0299782 5.21814817 -4.30840284 8.61227103 -9 12 C-9.66 10.68 -10.32 9.36 -11 8 C-8.37206573 5.09050135 -6.7769323 3.85285568 -3 3 C-2.505 2.46375 -2.01 1.9275 -1.5 1.375 C-1.005 0.92125 -0.51 0.4675 0 0 Z " fill="#B9C9D5" transform="translate(331,342)"/>
<path d="M0 0 C1.03125 0.01804688 2.0625 0.03609375 3.125 0.0546875 C5.66761064 0.10177288 8.20833162 0.1675195 10.75 0.25 C10.75 0.58 10.75 0.91 10.75 1.25 C10.12955811 1.3001123 9.50911621 1.35022461 8.86987305 1.40185547 C6.0582627 1.63398505 3.24795882 1.87933693 0.4375 2.125 C-0.53896484 2.20363281 -1.51542969 2.28226563 -2.52148438 2.36328125 C-3.45927734 2.44707031 -4.39707031 2.53085938 -5.36328125 2.6171875 C-6.22735596 2.69050293 -7.09143066 2.76381836 -7.98168945 2.83935547 C-10.52164237 3.14393458 -10.52164237 3.14393458 -13.25 5.25 C-13.97965366 7.81282742 -13.97965366 7.81282742 -14.25 10.25 C-14.58 10.25 -14.91 10.25 -15.25 10.25 C-15.5473933 6.97867371 -15.65157663 4.91929439 -13.9375 2.0625 C-9.59803991 -0.86411262 -5.09789245 -0.16820457 0 0 Z " fill="#D3BCC6" transform="translate(283.25,188.75)"/>
<path d="M0 0 C2.96404505 2.80804268 5.44499019 5.18315774 7 9 C7.66 9 8.32 9 9 9 C10.38938077 10.96147874 11.7260411 12.96166576 13 15 C12.67 15.66 12.34 16.32 12 17 C5.58933279 13.79466639 2.88447333 8.34584133 0 2 C0 1.34 0 0.68 0 0 Z " fill="#C1D2DA" transform="translate(342,164)"/>
<path d="M0 0 C-4.43402484 5.13413402 -11.50770091 6.27159571 -18 7 C-19.34093127 6.69868253 -20.67632591 6.36983213 -22 6 C-19.39608461 5.02016072 -16.79188032 4.04110206 -14.1875 3.0625 C-13.44951172 2.78470703 -12.71152344 2.50691406 -11.95117188 2.22070312 C-11.23896484 1.95322266 -10.52675781 1.68574219 -9.79296875 1.41015625 C-9.1383667 1.16402588 -8.48376465 0.91789551 -7.80932617 0.66430664 C-3.14485681 -1.0482856 -3.14485681 -1.0482856 0 0 Z " fill="#B1C2D1" transform="translate(219,129)"/>
<path d="M0 0 C1.11826172 0.00966797 2.23652344 0.01933594 3.38867188 0.02929688 C5.13954102 0.06700195 5.13954102 0.06700195 6.92578125 0.10546875 C8.10462891 0.11900391 9.28347656 0.13253906 10.49804688 0.14648438 C13.41191536 0.18187549 16.3248707 0.23125066 19.23828125 0.29296875 C19.56828125 1.28296875 19.89828125 2.27296875 20.23828125 3.29296875 C19.57828125 3.29296875 18.91828125 3.29296875 18.23828125 3.29296875 C18.23828125 2.63296875 18.23828125 1.97296875 18.23828125 1.29296875 C10.31828125 1.62296875 2.39828125 1.95296875 -5.76171875 2.29296875 C-6.42171875 3.94296875 -7.08171875 5.59296875 -7.76171875 7.29296875 C-8.44921875 5.48046875 -8.44921875 5.48046875 -8.76171875 3.29296875 C-6.3549267 -0.18374175 -4.03502646 -0.0614471 0 0 Z " fill="#A2AEBE" transform="translate(275.76171875,187.70703125)"/>
<path d="M0 0 C0.66 0 1.32 0 2 0 C2 0.99 2 1.98 2 3 C1.01 3.495 1.01 3.495 0 4 C-0.144375 4.78375 -0.28875 5.5675 -0.4375 6.375 C-1.05384083 9.25125721 -1.77728856 10.16384707 -4 12 C-4.66 11.67 -5.32 11.34 -6 11 C-4.54997977 6.89160936 -2.6020866 3.49655387 0 0 Z " fill="#BACCD7" transform="translate(149,173)"/>
<path d="M0 0 C3.81684226 1.55500981 6.19195732 4.03595495 9 7 C6.69 7.33 4.38 7.66 2 8 C1.67 7.34 1.34 6.68 1 6 C1.33 5.01 1.66 4.02 2 3 C1.34 2.01 0.68 1.02 0 0 Z " fill="#B5CAD8" transform="translate(327,151)"/>
<path d="M0 0 C0.66 0.33 1.32 0.66 2 1 C1 4 1 4 -1.8125 5.75 C-5 7 -5 7 -9 6 C-6.03 4.02 -3.06 2.04 0 0 Z " fill="#B8CBD7" transform="translate(187,140)"/>
<path d="M0 0 C0 4.41236026 -2.0697293 5.78384923 -5 9 C-5.33 9 -5.66 9 -6 9 C-6 7.35 -6 5.7 -6 4 C-5.34 4 -4.68 4 -4 4 C-3.67 3.01 -3.34 2.02 -3 1 C-2.01 0.67 -1.02 0.34 0 0 Z " fill="#C1D0D9" transform="translate(352,322)"/>
<path d="M0 0 C0.66 0.33 1.32 0.66 2 1 C1.1875 3.9375 1.1875 3.9375 0 7 C-0.99 7.33 -1.98 7.66 -3 8 C-3.33 6.35 -3.66 4.7 -4 3 C-2.68 2.01 -1.36 1.02 0 0 Z " fill="#AEC1D0" transform="translate(324,346)"/>
<path d="M0 0 C-2.25170312 2.25170312 -3.32987578 2.51474 -6.375 3.1875 C-7.53128906 3.45626953 -7.53128906 3.45626953 -8.7109375 3.73046875 C-11.11082272 4.01304909 -12.71670535 3.73503321 -15 3 C-13.06643218 2.30151736 -11.12797702 1.61655186 -9.1875 0.9375 C-8.10855469 0.55464844 -7.02960938 0.17179688 -5.91796875 -0.22265625 C-3 -1 -3 -1 0 0 Z " fill="#CFDDE7" transform="translate(219,129)"/>
<path d="M0 0 C0.99 0.66 1.98 1.32 3 2 C0.69 3.32 -1.62 4.64 -4 6 C-4.33 5.01 -4.66 4.02 -5 3 C-4.34 3 -3.68 3 -3 3 C-3 2.34 -3 1.68 -3 1 C-2.01 0.67 -1.02 0.34 0 0 Z " fill="#BBCBD5" transform="translate(316,354)"/>
<path d="M0 0 C-1.75 4.875 -1.75 4.875 -4 6 C-5.32 5.01 -6.64 4.02 -8 3 C-2.25 0 -2.25 0 0 0 Z " fill="#B2C5D3" transform="translate(197,136)"/>
<path d="M0 0 C1.4391134 0.28359887 2.87625518 0.57721399 4.3125 0.875 C5.11300781 1.03742188 5.91351563 1.19984375 6.73828125 1.3671875 C9 2 9 2 12 4 C7.45194365 4.17835515 4.1205746 3.99785435 0 2 C0 1.34 0 0.68 0 0 Z " fill="#C6D3DD" transform="translate(284,129)"/>
<path d="M0 0 C1.11003253 3.3300976 0.9343162 3.97843441 -0.25 7.125 C-0.62898438 8.18074219 -0.62898438 8.18074219 -1.015625 9.2578125 C-2 11 -2 11 -5 12 C-4.731875 11.505 -4.46375 11.01 -4.1875 10.5 C-2.56124507 7.0763054 -1.30484829 3.55867715 0 0 Z " fill="#9BB1C0" transform="translate(369,283)"/>
<path d="M0 0 C2.375 0.1875 2.375 0.1875 5 1 C6.3125 3.5625 6.3125 3.5625 7 6 C4.0625 4.6875 4.0625 4.6875 1 3 C0.67 2.01 0.34 1.02 0 0 Z " fill="#B3C8D4" transform="translate(348,175)"/>
<path d="M0 0 C0.66 0.66 1.32 1.32 2 2 C1.7578125 4.1640625 1.7578125 4.1640625 1.125 6.625 C0.92132813 7.44226563 0.71765625 8.25953125 0.5078125 9.1015625 C0.34023437 9.72804687 0.17265625 10.35453125 0 11 C-0.66 11 -1.32 11 -2 11 C-1 3.57142857 -1 3.57142857 0 0 Z " fill="#C2D2DD" transform="translate(130,209)"/>
<path d="M0 0 C0 0.99 0 1.98 0 3 C-0.66 3.66 -1.32 4.32 -2 5 C-2.64767793 7.57061311 -2.64767793 7.57061311 -3 10 C-3.99 9.67 -4.98 9.34 -6 9 C-4.68775452 5.06326356 -3.08089673 2.77280706 0 0 Z " fill="#C7D7E4" transform="translate(157,164)"/>
<path d="M0 0 C8.03571429 0.80357143 8.03571429 0.80357143 12 3 C10.37509046 3.02698189 8.75005367 3.04638757 7.125 3.0625 C5.76761719 3.07990234 5.76761719 3.07990234 4.3828125 3.09765625 C2 3 2 3 0 2 C0 1.34 0 0.68 0 0 Z " fill="#C7D8E1" transform="translate(272,126)"/>
<path d="M0 0 C0.33 0 0.66 0 1 0 C1 1.98 1 3.96 1 6 C-0.32 6.33 -1.64 6.66 -3 7 C-1.125 1.125 -1.125 1.125 0 0 Z " fill="#BACCD6" transform="translate(142,184)"/>
<path d="M0 0 C2.75 0.25 2.75 0.25 5 1 C2.23776722 3.76223278 -0.20706617 3.57856291 -4 4 C-2.3125 1.9375 -2.3125 1.9375 0 0 Z " fill="#CAD8DF" transform="translate(288,367)"/>
<path d="M0 0 C0.99 0.33 1.98 0.66 3 1 C3 2.32 3 3.64 3 5 C3.66 5.33 4.32 5.66 5 6 C5 6.99 5 7.98 5 9 C1.9083091 6.47043472 1.09068668 3.77545388 0 0 Z " fill="#BCCCD7" transform="translate(136,303)"/>
<path d="M0 0 C1.13643966 3.40931897 0.86747764 4.00335456 -0.4375 7.1875 C-0.86869141 8.26064453 -0.86869141 8.26064453 -1.30859375 9.35546875 C-1.53675781 9.89816406 -1.76492188 10.44085938 -2 11 C-2.33 11 -2.66 11 -3 11 C-3.32613618 6.32538149 -2.70582788 3.83325617 0 0 Z " fill="#D2DDE5" transform="translate(368,290)"/>
</svg>
