<?xml version="1.0" encoding="UTF-8"?>
<svg version="1.1" xmlns="http://www.w3.org/2000/svg" width="500" height="500">
<path d="M0 0 C0 0.66 0 1.32 0 2 C0.56203125 2.24621094 1.1240625 2.49242187 1.703125 2.74609375 C24.46745557 15.17355993 38.20455828 44.831666 45.31005859 68.4699707 C53.9631255 100.20094464 48.82326242 135.03155384 33.31542969 163.74365234 C29.50138157 170.28586331 24.82434053 176.18280952 20 182 C19.24976563 182.92167969 18.49953125 183.84335937 17.7265625 184.79296875 C-2.42900974 208.35775489 -32.15844274 223.85256506 -63.07421875 226.4765625 C-94.39860163 228.62907217 -129.10306011 222.7796165 -154 202 C-154 201.34 -154 200.68 -154 200 C-154.87785156 199.59587891 -154.87785156 199.59587891 -155.7734375 199.18359375 C-163.75052874 194.94313999 -170.38004146 186.94433402 -176 180 C-176 179.34 -176 178.68 -176 178 C-176.66 178 -177.32 178 -178 178 C-199.02805275 152.73608051 -205.34777463 117.50752364 -202.53491211 85.62597656 C-200.31225166 64.38017285 -191.75181411 40.47663176 -178 24 C-177.34 24 -176.68 24 -176 24 C-175.73574219 23.41863281 -175.47148437 22.83726562 -175.19921875 22.23828125 C-171.21500686 14.80195092 -163.15595918 6.50560393 -156 2 C-155.34 2 -154.68 2 -154 2 C-154 1.34 -154 0.68 -154 0 C-112.96959805 -34.15105312 -41.09182003 -34.29627357 0 0 Z " fill="#94B3CA" transform="translate(327,149)"/>
<path d="M0 0 C0.639375 0.0103125 1.27875 0.020625 1.9375 0.03125 C4.69302701 0.65750614 6.63528388 1.96859961 9 3.5 C14.60032711 6.89626277 20.23641307 10.21298757 25.9375 13.4375 C31.34586661 16.49645096 36.60078828 19.73500158 41.79296875 23.15234375 C44.04094197 24.63837545 44.04094197 24.63837545 47 25.5 C47 26.16 47 26.82 47 27.5 C48.98 28.16 50.96 28.82 53 29.5 C53 30.16 53 30.82 53 31.5 C53.94875 31.78875 54.8975 32.0775 55.875 32.375 C59 33.5 59 33.5 61 35.5 C61.680625 35.768125 62.36125 36.03625 63.0625 36.3125 C67.24751726 38.00431549 71.08442753 40.26496735 75 42.5 C75 43.16 75 43.82 75 44.5 C76.02673828 44.88285156 76.02673828 44.88285156 77.07421875 45.2734375 C80.44961726 46.68849108 83.59974038 48.37258566 86.8125 50.125 C87.40998047 50.44984375 88.00746094 50.7746875 88.62304688 51.109375 C90.08337135 51.90379151 91.54187491 52.70155376 93 53.5 C93 54.16 93 54.82 93 55.5 C93.86625 55.7475 94.7325 55.995 95.625 56.25 C100.53461211 58.06837486 104.07561985 60.11342978 107 64.5 C107.46270344 68.04739308 107.32279766 69.92457809 105.5625 73.0625 C102.09212851 76.36358508 98.22352175 78.30527709 94 80.5 C93.030625 81.098125 92.06125 81.69625 91.0625 82.3125 C89 83.5 89 83.5 87 83.5 C87 84.16 87 84.82 87 85.5 C85.85402344 86.04527344 84.70804687 86.59054687 83.52734375 87.15234375 C78.19034992 89.81907928 73.3498135 93.14349245 68.44335938 96.52148438 C63.50010486 99.82152665 58.72424899 101.90364598 53 103.5 C53 104.16 53 104.82 53 105.5 C52.34515625 105.8403125 51.6903125 106.180625 51.015625 106.53125 C45.90437637 109.24569843 41.02065164 112.095177 36.25 115.375 C31.59100018 118.54214161 26.83765223 121.34746595 21.875 124 C20.89708496 124.5256958 20.89708496 124.5256958 19.89941406 125.06201172 C15.25925299 127.5 15.25925299 127.5 13 127.5 C13 128.16 13 128.82 13 129.5 C8.53605536 133.51390117 4.0923012 135.05589943 -1.82421875 135.1640625 C-5.18252927 134.13908442 -7.23321377 132.47404718 -9 129.5 C-9.76047545 125.5503508 -9.68279013 121.64078387 -9.64697266 117.62890625 C-9.65573425 116.42676483 -9.66449585 115.22462341 -9.67352295 113.98605347 C-9.69173945 110.69652122 -9.68749833 107.40799749 -9.67162752 104.11848068 C-9.65894667 100.67214631 -9.67071467 97.22587811 -9.67855835 93.77954102 C-9.68764865 87.99255318 -9.67568365 82.20588464 -9.65185547 76.41894531 C-9.62464487 69.73344999 -9.63345951 63.0487171 -9.6609875 56.36324024 C-9.68369561 50.61781964 -9.68687049 44.87262823 -9.67379415 39.12717724 C-9.66600879 35.69803054 -9.66493223 32.26924194 -9.68147659 28.84011841 C-9.69416014 25.01658414 -9.67483902 21.19451849 -9.64697266 17.37109375 C-9.65709381 16.23743378 -9.66721497 15.1037738 -9.67764282 13.9357605 C-9.56221316 5.39668642 -9.56221316 5.39668642 -6.58847046 2.29516602 C-4.06492302 0.54502567 -3.00825052 -0.14556051 0 0 Z " fill="#EDBABE" transform="translate(209,182.5)"/>
<path d="M0 0 C0 0.66 0 1.32 0 2 C-1.60875 2.12375 -1.60875 2.12375 -3.25 2.25 C-7.41349211 3.08269842 -8.42881592 3.74451654 -11 7 C-11.59590341 9.45374271 -11.59590341 9.45374271 -11.50793457 12.16162109 C-11.51921387 13.20469421 -11.53049316 14.24776733 -11.54211426 15.32244873 C-11.53401733 16.46127502 -11.52592041 17.60010132 -11.51757812 18.7734375 C-11.5245874 19.97703918 -11.53159668 21.18064087 -11.53881836 22.42071533 C-11.55340691 25.71851592 -11.54998877 29.01531262 -11.53730202 32.31305695 C-11.52716963 35.76519615 -11.53656834 39.21729269 -11.54284668 42.66943359 C-11.55012244 48.46654964 -11.54053745 54.26346179 -11.52148438 60.06054688 C-11.49971552 66.76128414 -11.50676696 73.46153458 -11.52879 80.16226006 C-11.54694623 85.91696271 -11.54950131 91.67151887 -11.53903532 97.42624092 C-11.53280151 100.86259058 -11.53196135 104.29871146 -11.54518127 107.73504639 C-11.55888914 111.56574403 -11.53988633 115.39589706 -11.51757812 119.2265625 C-11.52567505 120.36538879 -11.53377197 121.50421509 -11.54211426 122.67755127 C-11.53083496 123.72062439 -11.51955566 124.76369751 -11.50793457 125.83837891 C-11.50642647 126.7439151 -11.50491837 127.64945129 -11.50336456 128.58242798 C-10.83930888 131.77177136 -9.49656721 132.97570911 -7 135 C-4.65961239 135.68533632 -4.65961239 135.68533632 -2.25 135.75 C-1.45078125 135.80671875 -0.6515625 135.8634375 0.171875 135.921875 C0.77515625 135.94765625 1.3784375 135.9734375 2 136 C1.505 136.99 1.505 136.99 1 138 C-0.43791516 137.85831863 -1.8753237 137.71148957 -3.3125 137.5625 C-4.11300781 137.48128906 -4.91351563 137.40007812 -5.73828125 137.31640625 C-8 137 -8 137 -11 136 C-13.21111214 132.68333178 -13.25222987 131.66688968 -13.26069641 127.80677795 C-13.26778122 126.73142288 -13.27486603 125.65606781 -13.28216553 124.54812622 C-13.27968811 123.3683017 -13.27721069 122.18847717 -13.2746582 120.97290039 C-13.27976913 119.73043045 -13.28488007 118.48796051 -13.29014587 117.20783997 C-13.3016773 113.79868677 -13.30411338 110.38977643 -13.30158257 106.98062062 C-13.30051357 104.13513718 -13.30539444 101.28967622 -13.310188 98.4441976 C-13.32128697 91.73141739 -13.32171844 85.01869314 -13.31567383 78.3059082 C-13.30963301 71.37976798 -13.32194676 64.45383085 -13.3432439 57.52772528 C-13.36085454 51.58199075 -13.36686211 45.63632089 -13.36360615 39.69056123 C-13.36179224 36.13908553 -13.36444004 32.58775468 -13.37832069 29.03630257 C-13.39321875 25.0762852 -13.38393356 21.11652686 -13.37231445 17.15649414 C-13.37995819 15.97869385 -13.38760193 14.80089355 -13.39547729 13.58740234 C-13.38846298 12.50922745 -13.38144867 11.43105255 -13.3742218 10.32020569 C-13.37438954 9.3838733 -13.37455729 8.44754091 -13.37473011 7.48283482 C-12.92995009 4.53587303 -12.0100951 3.16746175 -10 1 C-6.76668144 -0.33792492 -3.4585341 -0.07860305 0 0 Z " fill="#A8B0C2" transform="translate(212,181)"/>
<path d="M0 0 C0.66 0 1.32 0 2 0 C1.5130653 1.08017269 1.5130653 1.08017269 1.01629353 2.18216705 C-0.01571262 5.04356569 -0.2535369 7.06354958 -0.26069641 10.08532715 C-0.26778122 11.086259 -0.27486603 12.08719086 -0.28216553 13.11845398 C-0.27968811 14.20536026 -0.27721069 15.29226654 -0.2746582 16.41210938 C-0.27976913 17.56548294 -0.28488007 18.71885651 -0.29014587 19.90718079 C-0.30404536 23.71942331 -0.30308499 27.53148515 -0.30078125 31.34375 C-0.30368536 33.32317117 -0.30659409 35.30259242 -0.310188 37.28201246 C-0.32127228 43.50296815 -0.32172633 49.72386344 -0.31567383 55.94482422 C-0.30963071 62.35748691 -0.32195592 68.76993038 -0.3432439 75.18255568 C-0.36086705 80.6943805 -0.36686024 86.20613558 -0.36360615 91.71798754 C-0.36179467 95.0073487 -0.36573169 98.2965186 -0.37832069 101.58586121 C-0.39063567 105.25337707 -0.38392287 108.92038312 -0.37231445 112.58789062 C-0.37995819 113.67479691 -0.38760193 114.76170319 -0.39547729 115.88154602 C-0.44714312 122.97393373 -0.44714312 122.97393373 3 129 C7.17056448 130.18712697 11.12918198 129.39912493 15 127.625 C17.09716677 126.14913969 17.09716677 126.14913969 18 124 C19.32 124.33 20.64 124.66 22 125 C21.34 125 20.68 125 20 125 C20 125.66 20 126.32 20 127 C15.53605536 131.01390117 11.0923012 132.55589943 5.17578125 132.6640625 C1.81593849 131.63861678 -0.23702957 129.97891839 -2 127 C-2.74713818 123.03780478 -2.65184162 119.11861199 -2.59936523 115.09716797 C-2.60330795 113.89181396 -2.60725067 112.68645996 -2.61131287 111.44458008 C-2.61686945 108.14666683 -2.60014751 104.85032545 -2.57283282 101.55261755 C-2.54897305 98.10004712 -2.55194756 94.64749292 -2.55152893 91.19485474 C-2.54690405 85.39944898 -2.52328116 79.60437225 -2.48706055 73.80908203 C-2.4452894 67.10784442 -2.42774326 60.40690277 -2.4244408 53.70554245 C-2.42084234 46.56951712 -2.40197286 39.43359832 -2.37732053 32.29761744 C-2.37109105 30.24129728 -2.36745534 28.18498523 -2.36428642 26.12865829 C-2.3572938 22.30035219 -2.33290919 18.47226599 -2.30639648 14.64404297 C-2.30573181 13.50319244 -2.30506714 12.36234192 -2.30438232 11.18692017 C-2.28941963 9.62654022 -2.28941963 9.62654022 -2.27415466 8.03463745 C-2.26950416 7.12947828 -2.26485365 6.22431911 -2.26006222 5.29173088 C-2 3 -2 3 0 0 Z " fill="#DCBFC8" transform="translate(202,185)"/>
<path d="M0 0 C0.66 0.33 1.32 0.66 2 1 C0.60456833 3.79086335 -1.18355148 4.31315729 -3.9375 5.75 C-8.6383471 8.24407752 -13.19307631 10.89268292 -17.7109375 13.703125 C-20.07804032 15.04421397 -22.4548453 16.04669117 -25 17 C-25 17.66 -25 18.32 -25 19 C-26.32 18.67 -27.64 18.34 -29 18 C-23.25 14 -23.25 14 -21 14 C-21 13.34 -21 12.68 -21 12 C-20.5059668 11.74307373 -20.01193359 11.48614746 -19.50292969 11.22143555 C-17.25001235 10.04713806 -14.99999953 8.8673778 -12.75 7.6875 C-11.58404297 7.08131836 -11.58404297 7.08131836 -10.39453125 6.46289062 C-6.71990181 4.53135464 -3.20993621 2.66631798 0 0 Z " fill="#A4B1C0" transform="translate(243,298)"/>
<path d="M0 0 C0.66 0 1.32 0 2 0 C1.66471143 4.69403997 0.43790322 6.97395439 -2.73828125 10.4140625 C-4.12150256 12.15272459 -4.79530504 13.73556337 -5.5625 15.8125 C-7 19 -7 19 -9.1875 19.9375 C-10.0846875 19.9684375 -10.0846875 19.9684375 -11 20 C-8.4815791 12.90263201 -4.48880866 6.03667372 0 0 Z " fill="#B9CCD7" transform="translate(149,173)"/>
<path d="M0 0 C0.59296875 0.19851563 1.1859375 0.39703125 1.796875 0.6015625 C-3.95926817 4.80640467 -9.30476714 7.74243059 -16.203125 9.6015625 C-16.203125 10.2615625 -16.203125 10.9215625 -16.203125 11.6015625 C-18.183125 12.2615625 -20.163125 12.9215625 -22.203125 13.6015625 C-18.30553125 9.33856934 -14.16610743 6.51707879 -9.203125 3.6015625 C-8.56632812 3.19292969 -7.92953125 2.78429687 -7.2734375 2.36328125 C-2.70542118 -0.4892783 -2.70542118 -0.4892783 0 0 Z " fill="#D3BCC6" transform="translate(278.203125,276.3984375)"/>
<path d="M0 0 C1.98 0.66 3.96 1.32 6 2 C6 2.66 6 3.32 6 4 C6.68449219 4.25523437 7.36898438 4.51046875 8.07421875 4.7734375 C11.44961726 6.18849108 14.59974038 7.87258566 17.8125 9.625 C18.40998047 9.94984375 19.00746094 10.2746875 19.62304688 10.609375 C21.08337135 11.40379151 22.54187491 12.20155376 24 13 C24 13.66 24 14.32 24 15 C18.25 13.125 18.25 13.125 16 12 C16 11.34 16 10.68 16 10 C14.68 10 13.36 10 12 10 C12 9.34 12 8.68 12 8 C10.35 7.67 8.7 7.34 7 7 C7 6.34 7 5.68 7 5 C5.68 4.67 4.36 4.34 3 4 C3 3.34 3 2.68 3 2 C2.01 1.67 1.02 1.34 0 1 C0 0.67 0 0.34 0 0 Z " fill="#DBBDC7" transform="translate(278,223)"/>
<path d="M0 0 C0.99 0.33 1.98 0.66 3 1 C1.40143334 3.12942275 -0.20347458 5.25350334 -1.8125 7.375 C-2.26431641 7.97828125 -2.71613281 8.5815625 -3.18164062 9.203125 C-5.31213278 12.00231177 -7.04813965 14.0320931 -10 16 C-10.33 15.01 -10.66 14.02 -11 13 C-10.01 13 -9.02 13 -8 13 C-8.33 12.01 -8.66 11.02 -9 10 C-8.34 9.34 -7.68 8.68 -7 8 C-6.01 8 -5.02 8 -4 8 C-4.33 7.01 -4.66 6.02 -5 5 C-4.34 5 -3.68 5 -3 5 C-1.3553326 2.53673288 -1.3553326 2.53673288 0 0 Z " fill="#BFCEDA" transform="translate(350,322)"/>
<path d="M0 0 C0.33 0.66 0.66 1.32 1 2 C1.66 2 2.32 2 3 2 C5.18423179 5.9134153 6.24873006 8.52285887 6 13 C6.33 13.66 6.66 14.32 7 15 C6.01 16.485 6.01 16.485 5 18 C4.15875684 15.75267898 3.32685168 13.50261215 2.5 11.25 C2.26152344 10.61578125 2.02304688 9.9815625 1.77734375 9.328125 C0.55198242 5.96713393 0 3.63128413 0 0 Z " fill="#B3C5D4" transform="translate(128,280)"/>
<path d="M0 0 C0 2 0 2 -1.4375 3.5625 C-4.59101629 5.33154572 -7.17436748 5.52775869 -10.73828125 5.81640625 C-13.52465913 6.04258891 -16.24987945 6.50638862 -19 7 C-16.39350532 4.39350532 -13.46865679 3.55975019 -10.0625 2.375 C-9.42892578 2.14554688 -8.79535156 1.91609375 -8.14257812 1.6796875 C-5.29041404 0.67198284 -3.04816693 0 0 0 Z " fill="#BDD0DC" transform="translate(216,129)"/>
<path d="M0 0 C0.66 0.33 1.32 0.66 2 1 C-1.36873514 5.45862004 -3.83659448 7.64279313 -9 10 C-10.81554159 11.56102491 -10.81554159 11.56102491 -12 13 C-12.66 12.67 -13.32 12.34 -14 12 C-12.54712339 10.66072279 -11.08752741 9.32873153 -9.625 8 C-8.81289062 7.2575 -8.00078125 6.515 -7.1640625 5.75 C-5 4 -5 4 -3 4 C-3 3.34 -3 2.68 -3 2 C-2.01 1.34 -1.02 0.68 0 0 Z " fill="#C8DAE4" transform="translate(176,147)"/>
<path d="M0 0 C-1.65715896 1.01567807 -3.32733959 2.01005812 -5 3 C-5.74765625 3.44472656 -6.4953125 3.88945312 -7.265625 4.34765625 C-8.06484375 4.81042969 -8.8640625 5.27320313 -9.6875 5.75 C-10.83798828 6.42289062 -10.83798828 6.42289062 -12.01171875 7.109375 C-12.66785156 7.40328125 -13.32398438 7.6971875 -14 8 C-14.66 7.67 -15.32 7.34 -16 7 C-12.25 4 -12.25 4 -10 4 C-9.67 3.01 -9.34 2.02 -9 1 C-3.79245283 -1.26415094 -3.79245283 -1.26415094 0 0 Z " fill="#D9BCC7" transform="translate(240,301)"/>
<path d="M0 0 C0.33 0.66 0.66 1.32 1 2 C0.10333658 4.24310013 -0.89146683 6.44754321 -1.9375 8.625 C-2.50339844 9.81351562 -3.06929688 11.00203125 -3.65234375 12.2265625 C-4.09707031 13.14179688 -4.54179687 14.05703125 -5 15 C-5.33 15 -5.66 15 -6 15 C-6.19622241 10.78121808 -5.80230168 7.82989106 -4 4 C-3.34 4 -2.68 4 -2 4 C-2 3.01 -2 2.02 -2 1 C-1.34 0.67 -0.68 0.34 0 0 Z " fill="#B6C7D3" transform="translate(366,296)"/>
<path d="M0 0 C0.66 0.33 1.32 0.66 2 1 C1.67 1.66 1.34 2.32 1 3 C0.01 3 -0.98 3 -2 3 C-2.33 3.99 -2.66 4.98 -3 6 C-4.99609375 7.203125 -4.99609375 7.203125 -7.4375 8.25 C-8.24058594 8.60578125 -9.04367187 8.9615625 -9.87109375 9.328125 C-12 10 -12 10 -14 9 C-11.71439353 7.4693001 -9.42237333 5.95034956 -7.125 4.4375 C-6.14853516 3.78104492 -6.14853516 3.78104492 -5.15234375 3.11132812 C-3.47374503 2.01245164 -1.73976613 0.9992182 0 0 Z " fill="#A4B1C0" transform="translate(291,269)"/>
<path d="M0 0 C-2.73704754 2.73704754 -5.26044774 3.16182449 -9 4 C-11.4375 3.625 -11.4375 3.625 -13 3 C-12 1 -12 1 -8.75 -0.1875 C-5.22790825 -0.95061988 -3.38319499 -1.0252106 0 0 Z " fill="#C0CED8" transform="translate(293,368)"/>
<path d="M0 0 C0.75929472 2.98613386 1.4118332 5.97514219 2 9 C1.34 8.67 0.68 8.34 0 8 C-0.66 10.64 -1.32 13.28 -2 16 C-2.66 16 -3.32 16 -4 16 C-3.39891424 10.34979382 -1.92471317 5.33835539 0 0 Z " fill="#C2D6DF" transform="translate(132,204)"/>
<path d="M0 0 C1.49828872 3.88235819 0.43110582 6.43449288 -0.9375 10.25 C-1.31777344 11.32765625 -1.69804687 12.4053125 -2.08984375 13.515625 C-2.39019531 14.33546875 -2.69054687 15.1553125 -3 16 C-3.33 16 -3.66 16 -4 16 C-4.1799928 10.78020872 -3.97094808 6.92737019 -2 2 C-1.34 2 -0.68 2 0 2 C0 1.34 0 0.68 0 0 Z " fill="#C4D3DC" transform="translate(371,280)"/>
<path d="M0 0 C0.94875 0.04125 1.8975 0.0825 2.875 0.125 C-0.23516455 3.41288824 -3.14118925 5.96235988 -7.125 8.125 C-7.455 7.135 -7.785 6.145 -8.125 5.125 C-7.465 5.125 -6.805 5.125 -6.125 5.125 C-5.795 4.135 -5.465 3.145 -5.125 2.125 C-3.125 0.125 -3.125 0.125 0 0 Z " fill="#BCCAD7" transform="translate(332.125,342.875)"/>
<path d="M0 0 C0.66 0.99 1.32 1.98 2 3 C0.62845496 5.95409701 -0.98863724 8.44008376 -3 11 C-4 8 -4 8 -3.22265625 5.95703125 C-2.83980469 5.24933594 -2.45695313 4.54164063 -2.0625 3.8125 C-1.68222656 3.09707031 -1.30195313 2.38164062 -0.91015625 1.64453125 C-0.60980469 1.10183594 -0.30945313 0.55914062 0 0 Z " fill="#B5C6D3" transform="translate(137,194)"/>
<path d="M0 0 C0.33 0 0.66 0 1 0 C1.2935821 3.05325385 1.42375383 5.95525026 1 9 C-1.25 11.625 -1.25 11.625 -4 13 C-6.3125 12.75 -6.3125 12.75 -8 12 C-6.576875 11.2575 -6.576875 11.2575 -5.125 10.5 C-2.23635876 8.61965806 -1.42872548 7.08309684 -0.625 3.75 C-0.41875 2.5125 -0.2125 1.275 0 0 Z " fill="#A3B0BD" transform="translate(316,247)"/>
<path d="M0 0 C1.32 0.33 2.64 0.66 4 1 C1.62949916 3.62002725 -0.87276017 5.35819909 -4 7 C-4.99 7 -5.98 7 -7 7 C-6.67 6.01 -6.34 5.02 -6 4 C-4.02 3.67 -2.04 3.34 0 3 C0 2.01 0 1.02 0 0 Z " fill="#B8CAD5" transform="translate(315,354)"/>
<path d="M0 0 C0.66 0.33 1.32 0.66 2 1 C-1.1994328 4.71134205 -4.3705719 6.42930118 -9 8 C-11.21875 7.57421875 -11.21875 7.57421875 -13 7 C-12.14535156 6.57847656 -11.29070312 6.15695312 -10.41015625 5.72265625 C-9.30542969 5.17480469 -8.20070313 4.62695312 -7.0625 4.0625 C-5.96035156 3.51722656 -4.85820312 2.97195313 -3.72265625 2.41015625 C-1.15205586 1.25295022 -1.15205586 1.25295022 0 0 Z " fill="#A6AFC0" transform="translate(275,279)"/>
<path d="M0 0 C0.33 0.99 0.66 1.98 1 3 C0.113125 3.721875 -0.77375 4.44375 -1.6875 5.1875 C-4.63741207 7.63992096 -7.32793794 10.24934788 -10 13 C-8.56501627 9.79111679 -6.78256013 7.42193016 -4.4375 4.8125 C-3.81746094 4.11769531 -3.19742188 3.42289063 -2.55859375 2.70703125 C-1.72141231 1.79011824 -0.8779528 0.8779528 0 0 Z " fill="#C9D8E5" transform="translate(161,160)"/>
<path d="M0 0 C4.571279 0.54855348 8.67435795 1.41744803 13 3 C13 3.33 13 3.66 13 4 C9.37 3.67 5.74 3.34 2 3 C2 2.34 2 1.68 2 1 C1.34 0.67 0.68 0.34 0 0 Z " fill="#C6D6DF" transform="translate(280,128)"/>
<path d="M0 0 C1.32 0 2.64 0 4 0 C4.66 0.66 5.32 1.32 6 2 C6.66 2.33 7.32 2.66 8 3 C8 4.32 8 5.64 8 7 C4.2047869 5.50902342 2.38957269 3.24299151 0 0 Z " fill="#BCCFD9" transform="translate(161,339)"/>
<path d="M0 0 C0.66 0.33 1.32 0.66 2 1 C-0.475 5.455 -0.475 5.455 -3 10 C-3.33 10 -3.66 10 -4 10 C-4.41176754 6.39703406 -4.1535853 5.21597933 -2 2.1875 C-1.34 1.465625 -0.68 0.74375 0 0 Z " fill="#BDCDD8" transform="translate(358,311)"/>
<path d="M0 0 C0 0.66 0 1.32 0 2 C-0.99 2 -1.98 2 -3 2 C-3 2.66 -3 3.32 -3 4 C-5.30276574 6.21747812 -6.52480092 6.96760006 -9.75 7.1875 C-10.86375 7.0946875 -10.86375 7.0946875 -12 7 C-2.9 0 -2.9 0 0 0 Z " fill="#A8B0C0" transform="translate(308,260)"/>
<path d="M0 0 C0.515625 0.2475 1.03125 0.495 1.5625 0.75 C-2.82262875 4.06558515 -5.81208159 5.29996653 -11.4375 5.75 C-8.34207491 2.65457491 -4.52793747 -0.46440384 0 0 Z " fill="#E0BCCA" transform="translate(278.4375,276.25)"/>
<path d="M0 0 C1.33917261 0.30903983 2.67088318 0.65023242 4 1 C5.051875 1.268125 6.10375 1.53625 7.1875 1.8125 C10 3 10 3 10.875 5.125 C10.936875 6.053125 10.936875 6.053125 11 7 C6.89188572 5.55007731 3.53144334 3.54592427 0 1 C0 0.67 0 0.34 0 0 Z " fill="#A7B1C1" transform="translate(240,199)"/>
<path d="M0 0 C4.61513112 1.31860889 8.09897612 3.21355437 12 6 C11.01 6.495 11.01 6.495 10 7 C7.87109375 6.07421875 7.87109375 6.07421875 5.4375 4.6875 C4.63183594 4.23761719 3.82617188 3.78773438 2.99609375 3.32421875 C1 2 1 2 0 0 Z " fill="#D9BDC8" transform="translate(224,191)"/>
<path d="M0 0 C3.77545388 1.09068668 6.47043472 1.9083091 9 5 C6.36 5 3.72 5 1 5 C0.67 3.35 0.34 1.7 0 0 Z " fill="#B1C6D3" transform="translate(303,136)"/>
<path d="M0 0 C-5.17578125 3.22265625 -5.17578125 3.22265625 -7 4 C-7.99 3.67 -8.98 3.34 -10 3 C-9.34 3 -8.68 3 -8 3 C-7.67 2.01 -7.34 1.02 -7 0 C-3.86650268 -1.04449911 -3.01031744 -0.93423645 0 0 Z " fill="#B8C8D4" transform="translate(308,362)"/>
<path d="M0 0 C1 3 1 3 0 6 C-2.0625 6.6875 -2.0625 6.6875 -4 7 C-2.92598892 4.08482708 -2.22189824 2.22189824 0 0 Z " fill="#B0C3D1" transform="translate(142,186)"/>
<path d="M0 0 C0.33 0.66 0.66 1.32 1 2 C1.66 2 2.32 2 3 2 C3 4.64 3 7.28 3 10 C0.70366176 6.55549263 0.45983515 4.06187717 0 0 Z " fill="#CBD9E1" transform="translate(128,280)"/>
<path d="M0 0 C2.5 2.3125 2.5 2.3125 5 5 C5 5.99 5 6.98 5 8 C3.0625 7.375 3.0625 7.375 1 6 C0.25 2.875 0.25 2.875 0 0 Z " fill="#CBD7DE" transform="translate(343,165)"/>
</svg>
