<?xml version="1.0" encoding="UTF-8"?>
<svg version="1.1" xmlns="http://www.w3.org/2000/svg" width="500" height="500">
<path d="M0 0 C1.63654784 1.44536234 3.26216627 2.90322268 4.875 4.375 C5.69742188 5.05691406 6.51984375 5.73882812 7.3671875 6.44140625 C23.59386717 20.16584092 34.07458401 38.89527264 41.875 58.375 C42.20242188 59.18195313 42.52984375 59.98890625 42.8671875 60.8203125 C47.56678706 73.56252573 48.45734581 87.12499388 48.375 100.5625 C48.37356995 101.32236206 48.37213989 102.08222412 48.3706665 102.8651123 C48.31175493 115.56671472 47.0540934 127.29840726 42.875 139.375 C42.63974609 140.06916016 42.40449219 140.76332031 42.16210938 141.47851562 C37.97188143 153.51820639 32.10272201 166.51701728 23.875 176.375 C23.215 176.375 22.555 176.375 21.875 176.375 C21.6275 177.096875 21.38 177.81875 21.125 178.5625 C18.66047939 184.10767137 14.59722194 187.64034172 10.05859375 191.49609375 C8.62728871 192.72768181 7.22197139 193.99028129 5.84765625 195.28515625 C-17.34182519 217.00640237 -49.67261981 227.33269847 -81.07421875 226.6171875 C-102.84261228 225.76153163 -123.07831722 219.90669519 -142.125 209.375 C-142.125 208.715 -142.125 208.055 -142.125 207.375 C-142.74375 207.230625 -143.3625 207.08625 -144 206.9375 C-146.125 206.375 -146.125 206.375 -148.125 205.375 C-148.125 204.715 -148.125 204.055 -148.125 203.375 C-149.16914063 203.0346875 -149.16914063 203.0346875 -150.234375 202.6875 C-153.75567448 201.0886397 -156.47463238 198.88041112 -159.375 196.375 C-159.94202637 195.89023193 -160.50905273 195.40546387 -161.09326172 194.90600586 C-166.21032904 190.45081535 -170.81048094 185.61405885 -175.125 180.375 C-175.69992188 179.68277344 -176.27484375 178.99054688 -176.8671875 178.27734375 C-178.125 176.375 -178.125 176.375 -178.125 173.375 C-178.785 173.375 -179.445 173.375 -180.125 173.375 C-188.15366069 162.43018209 -194.04282532 149.70776335 -197.9375 136.75 C-198.13239014 136.10643555 -198.32728027 135.46287109 -198.52807617 134.79980469 C-201.6987315 123.55927959 -202.4897647 112.25762818 -202.4375 100.625 C-202.43186035 99.30532227 -202.4262207 97.98564453 -202.42041016 96.62597656 C-202.11249145 71.84004519 -194.95305161 47.5211292 -180.125 27.375 C-179.465 27.375 -178.805 27.375 -178.125 27.375 C-178.03863281 26.81941406 -177.95226562 26.26382813 -177.86328125 25.69140625 C-175.45740986 18.14282565 -167.59748638 11.63315885 -161.875 6.3125 C-161.3802417 5.8477124 -160.8854834 5.3829248 -160.37573242 4.90405273 C-157.47121689 2.27852677 -154.85454596 0.57961612 -151.125 -0.625 C-151.125 -1.285 -151.125 -1.945 -151.125 -2.625 C-150.135 -2.625 -149.145 -2.625 -148.125 -2.625 C-148.125 -3.285 -148.125 -3.945 -148.125 -4.625 C-101.97125695 -31.65485415 -43.56391226 -35.13417218 0 0 Z " fill="#94B2C7" transform="translate(327.125,149.625)"/>
<path d="M0 0 C1.68579645 2.11944286 1.75761289 3.12313927 1.75698566 5.80381298 C1.76399998 6.62937695 1.77101429 7.45494091 1.77824116 8.30552197 C1.77059742 9.20789089 1.76295368 10.11025982 1.75507832 11.03997326 C1.75872898 11.99316448 1.76237965 12.94635571 1.76614094 13.92843151 C1.77426369 17.08794362 1.7606168 20.24694541 1.74604511 23.40642834 C1.7455265 25.60258007 1.74604425 27.79873227 1.74755573 29.99488354 C1.74746592 34.60422198 1.7370215 39.21338587 1.7189455 43.8226881 C1.69632482 49.71948503 1.69570127 55.61602531 1.70246315 61.51285362 C1.70581291 66.05200494 1.69915295 70.59109824 1.68933392 75.13023853 C1.68549398 77.30346211 1.68432868 79.47669217 1.68591976 81.64991856 C1.68629249 84.69672723 1.67360974 87.74321326 1.65742207 90.78997326 C1.65989948 91.68222103 1.6623769 92.5744688 1.66492939 93.49375439 C1.60931067 100.08546157 1.42886727 106.37757104 -3.05473614 111.55095959 C-4.32317364 112.63377209 -4.32317364 112.63377209 -5.61723614 113.73845959 C-6.11223614 114.27470959 -6.60723614 114.81095959 -7.11723614 115.36345959 C-13.00629665 120.76176505 -19.54604809 122.02662014 -27.26957989 121.87517834 C-29.79252018 121.7282517 -32.17339749 121.39014989 -34.61723614 120.73845959 C-34.61723614 120.07845959 -34.61723614 119.41845959 -34.61723614 118.73845959 C-35.33911114 118.69720959 -36.06098614 118.65595959 -36.80473614 118.61345959 C-40.81747948 117.36505055 -42.21605605 115.11309106 -44.61723614 111.73845959 C-47.10950088 106.45764687 -47.44604434 101.4908809 -46.61723614 95.73845959 C-45.25709643 92.80076008 -43.86687516 91.14878711 -41.61723614 88.73845959 C-40.95723614 88.73845959 -40.29723614 88.73845959 -39.61723614 88.73845959 C-39.12223614 87.25345959 -39.12223614 87.25345959 -38.61723614 85.73845959 C-35.05473614 84.55095959 -35.05473614 84.55095959 -31.61723614 83.73845959 C-31.61723614 83.07845959 -31.61723614 82.41845959 -31.61723614 81.73845959 C-23.83021488 78.37109904 -16.4692067 79.12113607 -8.61723614 81.73845959 C-8.61723614 64.57845959 -8.61723614 47.41845959 -8.61723614 29.73845959 C-34.68912305 35.39797317 -34.68912305 35.39797317 -60.26176739 42.90642834 C-63.34851103 43.67182577 -66.16661155 44.02283376 -69.32695293 44.29046154 C-70.31761257 44.37576626 -71.30827221 44.46107098 -72.32895184 44.54896069 C-73.46165257 44.64276264 -73.46165257 44.64276264 -74.61723614 44.73845959 C-74.60058155 46.15214321 -74.60058155 46.15214321 -74.58359051 47.5943861 C-74.48189746 56.50914628 -74.40711952 65.4237876 -74.35817528 74.33899784 C-74.33216573 78.92161788 -74.29692745 83.50376684 -74.24003887 88.08611584 C-74.1854083 92.51468136 -74.15575072 96.94279595 -74.14284992 101.37167263 C-74.13366538 103.05487821 -74.11573071 104.73806122 -74.08858585 106.42107296 C-73.93294027 116.47820258 -73.97208909 125.53010075 -81.13119793 133.40346813 C-83.70683915 135.72787742 -86.13582227 137.33675799 -89.61723614 137.73845959 C-89.61723614 138.39845959 -89.61723614 139.05845959 -89.61723614 139.73845959 C-96.65238095 142.08350786 -105.67124555 141.6332918 -112.60942364 138.99627209 C-117.11225579 136.17543171 -120.26728961 131.43835264 -122.61723614 126.73845959 C-122.68719627 125.03143223 -122.70163768 123.32177956 -122.67973614 121.61345959 C-122.6707127 120.70338146 -122.66168926 119.79330334 -122.65239239 118.85564709 C-122.64079082 118.15697521 -122.62918926 117.45830334 -122.61723614 116.73845959 C-121.95723614 116.73845959 -121.29723614 116.73845959 -120.61723614 116.73845959 C-120.39036114 115.87220959 -120.16348614 115.00595959 -119.92973614 114.11345959 C-117.24180803 107.20164446 -113.11022553 103.71969232 -106.50395489 100.64861584 C-98.69071523 98.18517221 -91.28792621 99.46896088 -83.61723614 101.73845959 C-83.63055981 100.20749897 -83.63055981 100.20749897 -83.64415264 98.64560986 C-83.72516501 89.03696446 -83.78516612 79.42838815 -83.82448483 69.81947899 C-83.84537846 64.87916066 -83.87372844 59.93911755 -83.91899395 54.99895763 C-83.96238847 50.23328279 -83.98635985 45.46787301 -83.99674511 40.70201588 C-84.004148 38.88187326 -84.01860385 37.06174549 -84.04015636 35.24171543 C-84.0691059 32.69628212 -84.07319577 30.15195039 -84.0713377 27.60637951 C-84.09290936 26.47241741 -84.09290936 26.47241741 -84.1149168 25.31554699 C-84.07450749 20.21475998 -84.07450749 20.21475998 -81.72264385 17.76502514 C-78.2573253 16.07538725 -75.42846871 16.54789796 -71.61723614 16.73845959 C-71.61723614 16.07845959 -71.61723614 15.41845959 -71.61723614 14.73845959 C-70.98744854 14.60270519 -70.35766094 14.4669508 -69.70878887 14.32708263 C-66.82247876 13.70061521 -63.93864657 13.06337868 -61.05473614 12.42595959 C-60.06409161 12.21261974 -59.07344707 11.9992799 -58.05278301 11.77947521 C-51.81259383 10.39468367 -51.81259383 10.39468367 -45.84379864 8.16033459 C-42.39331571 6.63978279 -39.26285144 5.95058588 -35.55473614 5.30095959 C-29.17886588 4.13108982 -23.03858272 2.51073032 -16.83598614 0.60564709 C-3.74497191 -2.92130092 -3.74497191 -2.92130092 0 0 Z " fill="#ECBABE" transform="translate(303.61723613739014,179.26154041290283)"/>
<path d="M0 0 C-2.70597779 2.70597779 -5.5530476 2.82297906 -9.1875 3.4375 C-14.56974661 4.37657593 -18.99519668 5.85196894 -24 8 C-27.03567591 8.86231091 -30.10106071 9.53357181 -33.1875 10.1875 C-33.98091797 10.36474609 -34.77433594 10.54199219 -35.59179688 10.72460938 C-39.22085601 11.51380024 -42.24620179 12 -46 12 C-46 12.66 -46 13.32 -46 14 C-46.71027344 14.13277344 -47.42054688 14.26554688 -48.15234375 14.40234375 C-49.07144531 14.57894531 -49.99054688 14.75554687 -50.9375 14.9375 C-51.85402344 15.11152344 -52.77054688 15.28554687 -53.71484375 15.46484375 C-55.95289844 15.77714988 -55.95289844 15.77714988 -57 17 C-57.12502642 19.55499309 -57.18604177 22.08430642 -57.20532227 24.64086914 C-57.21522186 25.44080795 -57.22512146 26.24074677 -57.23532104 27.06492615 C-57.26702918 29.72163892 -57.29173008 32.3783696 -57.31640625 35.03515625 C-57.33696775 36.87219215 -57.357964 38.70922324 -57.37937927 40.54624939 C-57.43468304 45.39104318 -57.48405555 50.23588025 -57.53222656 55.08074951 C-57.58238111 60.02066925 -57.63809866 64.96052583 -57.69335938 69.90039062 C-57.80104246 79.60020651 -57.90246473 89.30007714 -58 99 C-59.09022461 98.84136475 -60.18044922 98.68272949 -61.30371094 98.51928711 C-72.09274654 97.00354875 -79.99177117 97.40022124 -89 104 C-92.060896 107.060896 -93.60152414 109.92111207 -95 114 C-95.66 114 -96.32 114 -97 114 C-97.12822535 122.60941622 -94.21339283 127.35547973 -89 134 C-88.67 134.66 -88.34 135.32 -88 136 C-93.2083219 133.78080197 -95.81590811 130.14569222 -98 125 C-98.96896356 117.99245553 -99.2233335 111.9064713 -95 106 C-90.36932152 100.55214296 -84.06705636 96.42968544 -77 95 C-74.98535156 94.97827148 -74.98535156 94.97827148 -72.890625 95.12109375 C-72.13652344 95.16943359 -71.38242188 95.21777344 -70.60546875 95.26757812 C-69.82816406 95.32365234 -69.05085938 95.37972656 -68.25 95.4375 C-67.45722656 95.48970703 -66.66445312 95.54191406 -65.84765625 95.59570312 C-63.89806003 95.72489324 -61.94897114 95.86169965 -60 96 C-60.00666183 95.00441574 -60.01332367 94.00883148 -60.02018738 92.983078 C-60.0809493 83.60986351 -60.12594893 74.23668887 -60.15543652 64.86332226 C-60.17110592 60.04413343 -60.19236741 55.22510333 -60.22631836 50.40600586 C-60.25886641 45.75705208 -60.2768434 41.10825118 -60.28463173 36.45919228 C-60.29018344 34.68372503 -60.30102435 32.90826633 -60.31719017 31.132864 C-60.33890417 28.64983278 -60.3419695 26.16743675 -60.34057617 23.68432617 C-60.351362 22.94705292 -60.36214783 22.20977966 -60.3732605 21.45016479 C-60.34318796 16.51154939 -60.34318796 16.51154939 -58.71455383 14.0839386 C-55.66586483 12.15656156 -52.11842976 11.73248761 -48.625 11.0625 C-41.95621623 9.68920184 -35.51853982 8.03011699 -29.03125 5.94140625 C-24.94476655 4.6722793 -20.81153419 3.66032951 -16.65234375 2.66015625 C-14.47746646 2.11883922 -12.32733315 1.47900541 -10.1875 0.8125 C-6.68514736 -0.08025656 -3.59974256 -0.14692827 0 0 Z " fill="#A6B0BF" transform="translate(278,182)"/>
<path d="M0 0 C1.68579645 2.11944286 1.75761289 3.12313927 1.75698566 5.80381298 C1.76750713 7.04215893 1.76750713 7.04215893 1.77824116 8.30552197 C1.77059742 9.20789089 1.76295368 10.11025982 1.75507832 11.03997326 C1.75872898 11.99316448 1.76237965 12.94635571 1.76614094 13.92843151 C1.77426369 17.08794362 1.7606168 20.24694541 1.74604511 23.40642834 C1.7455265 25.60258007 1.74604425 27.79873227 1.74755573 29.99488354 C1.74746592 34.60422198 1.7370215 39.21338587 1.7189455 43.8226881 C1.69632482 49.71948503 1.69570127 55.61602531 1.70246315 61.51285362 C1.70581291 66.05200494 1.69915295 70.59109824 1.68933392 75.13023853 C1.68549398 77.30346211 1.68432868 79.47669217 1.68591976 81.64991856 C1.68629249 84.69672723 1.67360974 87.74321326 1.65742207 90.78997326 C1.65989948 91.68222103 1.6623769 92.5744688 1.66492939 93.49375439 C1.60931067 100.08546157 1.42886727 106.37757104 -3.05473614 111.55095959 C-4.32317364 112.63377209 -4.32317364 112.63377209 -5.61723614 113.73845959 C-6.11223614 114.27470959 -6.60723614 114.81095959 -7.11723614 115.36345959 C-13.00629665 120.76176505 -19.54604809 122.02662014 -27.26957989 121.87517834 C-29.79252018 121.7282517 -32.17339749 121.39014989 -34.61723614 120.73845959 C-34.61723614 120.07845959 -34.61723614 119.41845959 -34.61723614 118.73845959 C-35.33911114 118.69720959 -36.06098614 118.65595959 -36.80473614 118.61345959 C-40.81747948 117.36505055 -42.21605605 115.11309106 -44.61723614 111.73845959 C-47.10950088 106.45764687 -47.44604434 101.4908809 -46.61723614 95.73845959 C-45.25709643 92.80076008 -43.86687516 91.14878711 -41.61723614 88.73845959 C-40.95723614 88.73845959 -40.29723614 88.73845959 -39.61723614 88.73845959 C-39.28723614 87.74845959 -38.95723614 86.75845959 -38.61723614 85.73845959 C-35.05473614 84.55095959 -35.05473614 84.55095959 -31.61723614 83.73845959 C-31.61723614 83.07845959 -31.61723614 82.41845959 -31.61723614 81.73845959 C-25.97324255 79.29781371 -20.63972135 79.5455686 -14.61723614 79.73845959 C-14.61723614 80.06845959 -14.61723614 80.39845959 -14.61723614 80.73845959 C-17.58723614 80.73845959 -20.55723614 80.73845959 -23.61723614 80.73845959 C-23.61723614 81.39845959 -23.61723614 82.05845959 -23.61723614 82.73845959 C-24.77223614 83.10970959 -25.92723614 83.48095959 -27.11723614 83.86345959 C-33.79299118 86.37724301 -39.47685525 90.19043136 -42.61723614 96.73845959 C-43.01460476 99.69091844 -43.01460476 99.69091844 -42.86723614 102.73845959 C-42.85176739 103.74908459 -42.83629864 104.75970959 -42.82036114 105.80095959 C-42.63150969 108.53204199 -42.22488905 111.07262743 -41.61723614 113.73845959 C-41.03973614 113.84158459 -40.46223614 113.94470959 -39.86723614 114.05095959 C-37.28715744 114.83931697 -35.76271338 116.12935165 -33.61723614 117.73845959 C-27.50347844 120.14029297 -19.9391526 118.64159051 -13.61723614 117.73845959 C-13.61723614 117.07845959 -13.61723614 116.41845959 -13.61723614 115.73845959 C-12.70973614 115.38783459 -11.80223614 115.03720959 -10.86723614 114.67595959 C-6.65447976 112.16450867 -5.7894991 110.08298551 -3.61723614 105.73845959 C-2.62723614 104.25345959 -2.62723614 104.25345959 -1.61723614 102.73845959 C-0.33662419 96.71471909 -0.47708798 90.4020382 -0.50371075 84.27141857 C-0.50356472 83.37277584 -0.50341869 82.47413311 -0.50326824 81.54825878 C-0.50395881 78.61033146 -0.5117107 75.67246943 -0.51957989 72.73455334 C-0.52144711 70.68475409 -0.52286958 68.63495439 -0.52386761 66.58515453 C-0.5276688 61.21434814 -0.53747841 55.84356918 -0.54857159 50.47277355 C-0.55883746 44.9825633 -0.56337628 39.49234857 -0.56840801 34.00213146 C-0.57910301 23.24756218 -0.59615037 12.49301317 -0.61723614 1.73845959 C-2.68000721 1.88040723 -4.74244645 2.02718175 -6.80473614 2.17595959 C-7.95329082 2.25717052 -9.10184551 2.33838146 -10.28520489 2.42205334 C-14.08661583 2.7830314 -17.45078937 3.20252458 -20.92973614 4.80095959 C-24.61788569 6.08752338 -27.72090175 5.87053872 -31.61723614 5.73845959 C-28.15053389 3.82016033 -24.6075508 2.75953516 -20.80473614 1.67595959 C-19.62266582 1.33435802 -18.44059551 0.99275646 -17.22270489 0.64080334 C-3.56151572 -2.77819417 -3.56151572 -2.77819417 0 0 Z " fill="#D5BDC6" transform="translate(303.61723613739014,179.26154041290283)"/>
<path d="M0 0 C2.68492887 4.42223579 2.27774906 9.56351931 2.37890625 14.58203125 C2.39968735 15.4508342 2.42046844 16.31963715 2.44187927 17.21476746 C2.48510149 19.05808749 2.52614856 20.90145963 2.56518555 22.74487305 C2.62397661 25.51429198 2.68928274 28.28349285 2.75585938 31.05273438 C3.12369465 46.84147929 3.14302294 62.613494 2.80004883 78.40283203 C2.7666125 80.05442354 2.73864034 81.70613449 2.71606445 83.35791016 C2.36941112 108.27269629 2.36941112 108.27269629 -3.27734375 115.91796875 C-4.56318359 116.91763672 -4.56318359 116.91763672 -5.875 117.9375 C-6.72964844 118.63230469 -7.58429688 119.32710938 -8.46484375 120.04296875 C-16.16886 125.36153921 -23.16750315 126.31837658 -32.4140625 125.48046875 C-39.36692544 124.03902156 -44.16085263 120.41497106 -48.0625 114.5625 C-49.27945843 109.26003829 -49.17753184 104.16405139 -48.9375 98.75 C-48.6075 98.75 -48.2775 98.75 -47.9375 98.75 C-47.91171875 99.3790625 -47.8859375 100.008125 -47.859375 100.65625 C-47.39446585 107.67215168 -46.15873241 113.7239938 -40.875 118.6875 C-38.82476491 119.88695916 -38.82476491 119.88695916 -35.9375 120.75 C-35.9375 121.41 -35.9375 122.07 -35.9375 122.75 C-24.50343144 123.43212575 -24.50343144 123.43212575 -13.9375 119.75 C-12.885625 119.13125 -11.83375 118.5125 -10.75 117.875 C-7.93329074 115.74681967 -6.0917142 113.51970398 -3.9375 110.75 C-3.2775 110.75 -2.6175 110.75 -1.9375 110.75 C-1.06107488 104.72074652 -0.78914963 98.87353457 -0.79223633 92.78564453 C-0.78887772 91.82208542 -0.7855191 90.85852631 -0.78205872 89.86576843 C-0.77261656 86.70476977 -0.77060971 83.54382435 -0.76953125 80.3828125 C-0.76631648 78.17943297 -0.76295224 75.97605365 -0.75944519 73.77267456 C-0.75347263 69.16810612 -0.75160361 64.56355641 -0.75219727 59.95898438 C-0.75229936 54.04719281 -0.73859058 48.13552008 -0.72142506 42.22375679 C-0.71033806 37.68058718 -0.70827695 33.13744674 -0.70880699 28.59426498 C-0.70762406 26.41328391 -0.70318487 24.23230215 -0.69547462 22.05133438 C-0.68573149 19.01346556 -0.68852902 15.9758609 -0.69458008 12.93798828 C-0.68896057 12.03202408 -0.68334106 11.12605988 -0.67755127 10.19264221 C-0.46880595 5.48788841 -0.46880595 5.48788841 -2.9375 1.75 C-8.49398019 1.64741883 -14.08325492 2.40005701 -19.4375 3.875 C-22.80787066 4.71759267 -23.80451124 4.72562369 -26.9375 3.75 C-20.9319507 -0.25369954 -6.66115022 -4.29751627 0 0 Z " fill="#A6B0BE" transform="translate(304.9375,177.25)"/>
<path d="M0 0 C-1.32 0.33 -2.64 0.66 -4 1 C-4 1.66 -4 2.32 -4 3 C-6.8314037 3.81977607 -9.66482902 4.63094274 -12.5 5.4375 C-13.29148437 5.66759766 -14.08296875 5.89769531 -14.8984375 6.13476562 C-18.70152406 7.21022863 -22.38490228 8.12420715 -26.31640625 8.5703125 C-29.31675488 8.92030015 -31.64387534 9.38648721 -34.4375 10.4375 C-38.26921256 11.79885368 -42.07299288 12.75684801 -46.0546875 13.5703125 C-48.19964631 14.00867747 -48.19964631 14.00867747 -51 15 C-50.98747192 15.7345491 -50.97494385 16.46909821 -50.96203613 17.22590637 C-50.84270367 24.23956382 -50.72494833 31.2532457 -50.60884857 38.26695728 C-50.54914651 41.87045035 -50.48889064 45.47393217 -50.42724609 49.07739258 C-50.28870108 57.19485958 -50.16029317 65.3123301 -50.04980469 73.43023682 C-50.01819962 75.69553792 -49.98400324 77.96080555 -49.94628906 80.22601318 C-49.90224125 82.94624652 -49.87054572 85.66626998 -49.84375 88.38671875 C-49.8288855 89.1525679 -49.814021 89.91841705 -49.79870605 90.70747375 C-49.78882789 92.47289706 -49.88353025 94.2383951 -50 96 C-50.66 96.66 -51.32 97.32 -52 98 C-54.12769368 97.79736251 -56.25503019 97.584291 -58.375 97.3125 C-67.25976467 96.25478992 -74.62146329 96.35986199 -82 102 C-84.36721837 104.82554209 -86.26062171 107.75457465 -88 111 C-88.33 110.34 -88.66 109.68 -89 109 C-87.8125 106.6875 -87.8125 106.6875 -86 104 C-85.484375 103.175 -84.96875 102.35 -84.4375 101.5 C-79.00465115 95.92784733 -73.05312309 93.68734876 -65.3125 93.5625 C-60.56518761 93.6630035 -56.5416777 94.65627061 -52 96 C-52.01332367 94.46903938 -52.01332367 94.46903938 -52.0269165 92.90715027 C-52.10792887 83.29850487 -52.16792998 73.68992856 -52.20724869 64.0810194 C-52.22814232 59.14070107 -52.2564923 54.20065796 -52.30175781 49.26049805 C-52.34515233 44.4948232 -52.36912372 39.72941342 -52.37950897 34.96355629 C-52.38691187 33.14341367 -52.40136772 31.32328591 -52.42292023 29.50325584 C-52.45186976 26.95782253 -52.45595963 24.4134908 -52.45410156 21.86791992 C-52.47567322 20.73395782 -52.47567322 20.73395782 -52.49768066 19.5770874 C-52.45727136 14.47630039 -52.45727136 14.47630039 -50.10540771 12.02656555 C-46.64008917 10.33692766 -43.81123257 10.80943837 -40 11 C-40 10.34 -40 9.68 -40 9 C-39.3702124 8.86424561 -38.7404248 8.72849121 -38.09155273 8.58862305 C-35.20524262 7.96215563 -32.32141044 7.32491909 -29.4375 6.6875 C-28.44685547 6.47416016 -27.45621094 6.26082031 -26.43554688 6.04101562 C-20.96229221 4.82271641 -16.08712399 3.34687765 -11 1 C-7.27513075 0.18052877 -3.80855588 -0.11201635 0 0 Z " fill="#D6BCC8" transform="translate(272,185)"/>
<path d="M0 0 C-0.33 0.66 -0.66 1.32 -1 2 C-3 2.33333333 -5 2.66666667 -7 3 C-8.40298025 5.8059605 -8.11180476 8.11194139 -8.09765625 11.25048828 C-8.09435303 12.56590607 -8.0910498 13.88132385 -8.08764648 15.23660278 C-8.08146805 16.29514151 -8.08146805 16.29514151 -8.07516479 17.37506485 C-8.06240398 19.58695694 -8.05588522 21.79878902 -8.05102539 24.01071167 C-8.03764789 29.51004106 -8.01356276 35.00931417 -7.98962402 40.50860596 C-7.96981517 45.14662233 -7.9542 49.78461674 -7.94406128 54.42266464 C-7.93762198 56.59172242 -7.92510849 58.76068958 -7.91235352 60.92971802 C-7.87178009 71.66907301 -7.92047892 80.75370888 -14 90 C-16.6875 91.9375 -16.6875 91.9375 -19 93 C-19.66 93.99 -20.32 94.98 -21 96 C-26.58935476 98.17926915 -31.80455196 98.27479792 -37.75 98.1875 C-39.02423828 98.1865332 -39.02423828 98.1865332 -40.32421875 98.18554688 C-43.87003285 98.16033967 -46.60659584 98.13113472 -50 97 C-50 96.34 -50 95.68 -50 95 C-49.01 95.165 -48.02 95.33 -47 95.5 C-40.05119475 96.39377749 -32.99117499 96.07635992 -26 96 C-26 95.34 -26 94.68 -26 94 C-24.42578125 92.9921875 -24.42578125 92.9921875 -22.3125 91.875 C-16.7922415 88.58633536 -14.00545647 84.0163694 -12 78 C-11.88061589 75.52206304 -11.81479492 73.07001924 -11.79467773 70.59106445 C-11.78477814 69.83960144 -11.77487854 69.08813843 -11.76467896 68.31390381 C-11.73309504 65.83039499 -11.70831884 63.34686704 -11.68359375 60.86328125 C-11.66302154 59.14120487 -11.64202499 57.4191335 -11.62062073 55.69706726 C-11.56542766 51.16466334 -11.51600618 46.63221406 -11.46777344 42.09973145 C-11.41753824 37.47464969 -11.36186271 32.8496338 -11.30664062 28.22460938 C-11.19909287 19.14979586 -11.09764036 10.07492514 -11 1 C-7.24725989 0.18807837 -3.84545686 -0.08942923 0 0 Z " fill="#AAB1BE" transform="translate(240,223)"/>
<path d="M0 0 C0.66 0 1.32 0 2 0 C2.90620792 1.44322002 3.81195939 2.88672967 4.71484375 4.33203125 C6.97091468 7.26012331 9.92572048 8.98989416 13 11 C10.80161026 13.19838974 8.59978365 15.39068739 6.375 17.5625 C3.89526499 19.95845617 3.89526499 19.95845617 2 23 C-2.21928204 21.43730295 -4.18373412 18.37951905 -7 15 C-9.14980497 13.62745412 -9.14980497 13.62745412 -11 13 C-11 12.01 -11 11.02 -11 10 C-9.00715862 8.6559907 -7.00580329 7.32458708 -5 6 C-4.04681477 4.94865477 -3.12849632 3.86451025 -2.25 2.75 C-1.5075 1.8425 -0.765 0.935 0 0 Z " fill="#757372" transform="translate(472,461)"/>
<path d="M0 0 C0 17.16 0 34.32 0 52 C-2.97 51.505 -2.97 51.505 -6 51 C-11.73924488 50.72593494 -17.36348151 50.7812933 -23 52 C-23 52.66 -23 53.32 -23 54 C-24.051875 54.37125 -25.10375 54.7425 -26.1875 55.125 C-30.39987121 56.90715705 -32.29383485 59.3660068 -35 63 C-35.99 63.99 -35.99 63.99 -37 65 C-36.49270927 60.56120611 -35.06272483 58.22827752 -32 55 C-22.2209507 47.61138497 -15.95842414 48 -3 48 C-2.34 33.15 -1.68 18.3 -1 3 C-4.96 3 -8.92 3 -13 3 C-8.72816203 0.15210802 -5.07638947 0 0 0 Z " fill="#A6ADBC" transform="translate(295,209)"/>
<path d="M0 0 C0.99 0.33 1.98 0.66 3 1 C3.05063836 7.92338952 3.08570749 14.84673141 3.10986328 21.77026367 C3.11993155 24.12640162 3.13358706 26.48252704 3.15087891 28.83862305 C3.17509076 32.22187386 3.18647478 35.60495972 3.1953125 38.98828125 C3.20563507 40.04461258 3.21595764 41.10094391 3.22659302 42.18928528 C3.22674408 43.17007553 3.22689514 44.15086578 3.22705078 45.16137695 C3.231492 46.02519485 3.23593323 46.88901276 3.24050903 47.77900696 C3 50 3 50 1 53 C-2.125 53.1875 -2.125 53.1875 -5 53 C-5.33 52.34 -5.66 51.68 -6 51 C-4.02 51.33 -2.04 51.66 0 52 C0 34.84 0 17.68 0 0 Z " fill="#D7BDC6" transform="translate(295,209)"/>
<path d="M0 0 C0.33 0 0.66 0 1 0 C1.11623967 9.86671865 1.20488986 19.73327237 1.25906086 29.60053825 C1.28507041 34.1831583 1.32030869 38.76530726 1.37719727 43.34765625 C1.43182783 47.77622177 1.46148542 52.20433636 1.47438622 56.63321304 C1.48357076 58.31641862 1.50150543 59.99960163 1.52865028 61.68261337 C1.68429587 71.73974299 1.64514704 80.79164117 -5.51396179 88.66500854 C-8.08960301 90.98941783 -10.51858613 92.5982984 -14 93 C-14 93.66 -14 94.32 -14 95 C-17.42232972 96.14077657 -20.08673217 96.09815117 -23.6875 96.0625 C-24.86699219 96.05347656 -26.04648438 96.04445313 -27.26171875 96.03515625 C-28.61716797 96.01775391 -28.61716797 96.01775391 -30 96 C-30 95.67 -30 95.34 -30 95 C-29.29875 94.98582031 -28.5975 94.97164063 -27.875 94.95703125 C-21.6720234 94.64519683 -17.59457274 93.75443696 -12.55859375 90.05859375 C-11 89 -11 89 -9 89 C-9 88.34 -9 87.68 -9 87 C-7.515 86.505 -7.515 86.505 -6 86 C-4.78369719 83.88515387 -4.78369719 83.88515387 -3.875 81.3125 C-3.54242188 80.46300781 -3.20984375 79.61351562 -2.8671875 78.73828125 C-1.20243931 73.48157637 -0.86406089 68.3842477 -0.79467773 62.89306641 C-0.77982834 61.86762726 -0.77982834 61.86762726 -0.76467896 60.82147217 C-0.73331237 58.58153645 -0.70840581 56.34157958 -0.68359375 54.1015625 C-0.66300271 52.54071529 -0.6420057 50.9798734 -0.62062073 49.41903687 C-0.56562195 45.32562579 -0.5161155 41.23216625 -0.46777344 37.13867188 C-0.41739559 32.95568568 -0.36179481 28.77276921 -0.30664062 24.58984375 C-0.19933082 16.39328826 -0.09782637 8.19667414 0 0 Z " fill="#D7BDC5" transform="translate(228,224)"/>
<path d="M0 0 C0.99 0.33 1.98 0.66 3 1 C3 1.33 3 1.66 3 2 C13.64564414 2.43066737 13.64564414 2.43066737 24.125 0.9375 C27.99906319 0.00022665 30.21872441 -0.17039483 34 1 C35.6640625 2.55078125 35.6640625 2.55078125 37 4 C20.52622417 7.00989053 4.49315135 6.54790752 -12 4 C-12 3.67 -12 3.34 -12 3 C-7.83861737 2.91840426 -4.0527516 3.01751476 0 4 C0 2.68 0 1.36 0 0 Z " fill="#9DA8B5" transform="translate(237,370)"/>
<path d="M0 0 C0 0.33 0 0.66 0 1 C-8.56636371 1.88558429 -17.05770158 2.15772788 -25.66772461 2.13037109 C-27.72321606 2.12490502 -29.77849863 2.13040837 -31.83398438 2.13671875 C-33.13013672 2.13542969 -34.42628906 2.13414062 -35.76171875 2.1328125 C-36.93694092 2.13168457 -38.11216309 2.13055664 -39.32299805 2.12939453 C-42 2 -42 2 -43 1 C-45.67058851 0.85884839 -48.32432238 0.95752893 -51 1 C-51 0.67 -51 0.34 -51 0 C-34.51791247 -3.24998909 -16.45406236 -3.59932614 0 0 Z " fill="#99A2AA" transform="translate(275,126)"/>
<path d="M0 0 C2.05078125 0.03255208 4.1015625 0.06510417 6.15234375 0.09765625 C2.9559622 2.22857729 0.69330913 2.82605548 -3.02734375 3.68359375 C-4.26742187 3.97492188 -5.5075 4.26625 -6.78515625 4.56640625 C-8.09752487 4.86905985 -9.41002561 5.17114109 -10.72265625 5.47265625 C-19.2395271 7.44076751 -27.61605284 9.52949902 -35.91918945 12.27685547 C-40.50286199 13.56158303 -45.10609286 13.90761363 -49.84765625 14.09765625 C-45.21027211 11.00606682 -41.85755468 9.59553503 -36.41015625 8.72265625 C-30.28930912 7.67165731 -24.67023231 6.11845286 -18.81640625 4.01171875 C-14.40293593 2.65283447 -9.93929801 2.07251469 -5.3671875 1.4921875 C-2.87304739 1.10163223 -2.34630656 0.12401197 0 0 Z " fill="#DABDC7" transform="translate(278.84765625,209.90234375)"/>
<path d="M0 0 C1.890625 0.22265625 1.890625 0.22265625 4 1 C5.046875 2.99609375 5.046875 2.99609375 5.75 5.4375 C5.99234375 6.24058594 6.2346875 7.04367187 6.484375 7.87109375 C7 10 7 10 7 12 C8.32 12.33 9.64 12.66 11 13 C11.309375 14.134375 11.61875 15.26875 11.9375 16.4375 C12.62924531 19.78775099 12.62924531 19.78775099 14 21 C14.14115161 23.67058851 14.04247107 26.32432238 14 29 C10.36417399 24.87504941 8.14876296 20.57021829 5.875 15.625 C5.52824219 14.89539063 5.18148437 14.16578125 4.82421875 13.4140625 C2.76938444 9.00522259 1.20614721 4.71267826 0 0 Z " fill="#95A2B0" transform="translate(130,288)"/>
<path d="M0 0 C-4.16446399 3.15924854 -8.34535818 3.77443943 -13.37890625 4.5703125 C-17.82502342 5.29918417 -21.9637046 6.61863466 -26.25 8 C-31.21932373 9.54626082 -35.82002817 10.5937277 -41 11 C-41.33 10.34 -41.66 9.68 -42 9 C-31.85865269 6.01927121 -21.70926912 3.06464143 -11.4375 0.5625 C-10.74277588 0.38686523 -10.04805176 0.21123047 -9.33227539 0.03027344 C-5.9275554 -0.7750257 -3.32087794 -1.29286088 0 0 Z " fill="#ABB0BF" transform="translate(282,213)"/>
<path d="M0 0 C3.78340784 3.40071831 6.22523683 7.24206215 8.8125 11.5625 C9.23208984 12.23474609 9.65167969 12.90699219 10.08398438 13.59960938 C11.14011541 15.35170815 12.0792794 17.17310743 13 19 C12.67 19.99 12.34 20.98 12 22 C9.5 20.25 9.5 20.25 7 18 C7 16.68 7 15.36 7 14 C6.01 14 5.02 14 4 14 C3.34 12.68 2.68 11.36 2 10 C1.01 10.495 1.01 10.495 0 11 C-0.84098656 6.98195309 -1.05404945 3.98196457 0 0 Z " fill="#9EA9AF" transform="translate(349,173)"/>
<path d="M0 0 C0.58315454 5.77687468 -1.35666315 9.43660379 -4 14.375 C-4.3815625 15.11105469 -4.763125 15.84710938 -5.15625 16.60546875 C-6.09331735 18.4093234 -7.04519207 20.20547259 -8 22 C-8.66 21.67 -9.32 21.34 -10 21 C-10 20.34 -10 19.68 -10 19 C-9.34 19 -8.68 19 -8 19 C-7.896875 18.030625 -7.79375 17.06125 -7.6875 16.0625 C-5.3648167 0 -5.3648167 0 0 0 Z " fill="#9FA7B3" transform="translate(368,289)"/>
<path d="M0 0 C0.33 0 0.66 0 1 0 C1 2.31 1 4.62 1 7 C1.66 7 2.32 7 3 7 C3 15.91 3 24.82 3 34 C2.34 34 1.68 34 1 34 C0.96241577 33.03960815 0.96241577 33.03960815 0.92407227 32.05981445 C0.8076454 29.14386274 0.68513133 26.2281971 0.5625 23.3125 C0.52318359 22.30509766 0.48386719 21.29769531 0.44335938 20.25976562 C0.40146484 19.28330078 0.35957031 18.30683594 0.31640625 17.30078125 C0.26141968 15.95753784 0.26141968 15.95753784 0.20532227 14.5871582 C0.0543572 11.98292984 0.0543572 11.98292984 -0.54711914 9.40698242 C-1.16509982 6.12252337 -0.57629606 3.26567768 0 0 Z " fill="#AAB6BF" transform="translate(372,230)"/>
<path d="M0 0 C0.66 0 1.32 0 2 0 C2.02505615 0.64960693 2.0501123 1.29921387 2.07592773 1.96850586 C2.19313851 4.95831088 2.31528919 7.94789535 2.4375 10.9375 C2.47681641 11.95908203 2.51613281 12.98066406 2.55664062 14.03320312 C2.80720001 20.06590209 3.25643055 26.007705 4 32 C3.34 30.68 2.68 29.36 2 28 C1.34 28 0.68 28 0 28 C0 18.76 0 9.52 0 0 Z " fill="#AEB9C2" transform="translate(125,236)"/>
<path d="M0 0 C1.19698464 4.33906933 0.87487337 7.62563313 0 12 C0 12.99 0 13.98 0 15 C-1.49739583 13.73046875 -2.99479167 12.4609375 -4.4921875 11.19140625 C-6.00594079 9.9121848 -6.00594079 9.9121848 -8 9 C-8 8.01 -8 7.02 -8 6 C-6.04690112 4.59886384 -4.04291182 3.26660533 -2 2 C-1.34 1.34 -0.68 0.68 0 0 Z " fill="#605C5C" transform="translate(469,465)"/>
<path d="M0 0 C5.58490476 4.44512827 9.79211991 9.24454091 14 15 C13.01 15.66 12.02 16.32 11 17 C8.01753234 14.22321976 6.08568584 11.47614306 4 8 C3.278125 7.319375 2.55625 6.63875 1.8125 5.9375 C0 4 0 4 0 0 Z " fill="#90999E" transform="translate(335,157)"/>
<path d="M0 0 C0.33 0 0.66 0 1 0 C1 1.65 1 3.3 1 5 C1.66 5.33 2.32 5.66 3 6 C1 8 1 8 -2.125 8.125 C-3.07375 8.08375 -4.0225 8.0425 -5 8 C-5.66 10.31 -6.32 12.62 -7 15 C-9 14 -9 14 -11 12 C-9.19073245 9.99698881 -7.377813 7.99751914 -5.5625 6 C-4.7880957 5.14148438 -4.7880957 5.14148438 -3.99804688 4.265625 C-2.6858708 2.82480421 -1.34509096 1.41014216 0 0 Z " fill="#7F8A95" transform="translate(164,157)"/>
<path d="M0 0 C2.97 0 5.94 0 9 0 C9.33 1.32 9.66 2.64 10 4 C10.66 4.33 11.32 4.66 12 5 C12 5.66 12 6.32 12 7 C9.69 6.67 7.38 6.34 5 6 C5 5.34 5 4.68 5 4 C4.360625 3.896875 3.72125 3.79375 3.0625 3.6875 C2.381875 3.460625 1.70125 3.23375 1 3 C0.67 2.01 0.34 1.02 0 0 Z " fill="#9DABB5" transform="translate(180,353)"/>
<path d="M0 0 C0.66 0 1.32 0 2 0 C2 0.66 2 1.32 2 2 C3.32 2.66 4.64 3.32 6 4 C6 4.66 6 5.32 6 6 C6.61875 6.28875 7.2375 6.5775 7.875 6.875 C10 8 10 8 12 10 C11.34 10.66 10.68 11.32 10 12 C8.32448647 10.57282151 6.65980691 9.13291518 5 7.6875 C3.6078125 6.48673828 3.6078125 6.48673828 2.1875 5.26171875 C0 3 0 3 0 0 Z " fill="#8F969C" transform="translate(158,334)"/>
<path d="M0 0 C3.465 1.98 3.465 1.98 7 4 C4.63707344 6.52588702 3.33537489 7.88820837 0 9 C0 8.34 0 7.68 0 7 C-0.66 7 -1.32 7 -2 7 C-1.34 4.69 -0.68 2.38 0 0 Z " fill="#645F60" transform="translate(478,468)"/>
<path d="M0 0 C1.921875 0.3671875 1.921875 0.3671875 4 1 C6.30238787 4.91405938 6.17461992 8.54719212 6 13 C4 12 4 12 2.9296875 9.27734375 C2.58164063 8.17519531 2.23359375 7.07304687 1.875 5.9375 C1.52179688 4.83277344 1.16859375 3.72804688 0.8046875 2.58984375 C0.53914062 1.73519531 0.27359375 0.88054687 0 0 Z " fill="#87939B" transform="translate(130,288)"/>
<path d="M0 0 C1.32 0.33 2.64 0.66 4 1 C3.01 1.495 3.01 1.495 2 2 C1.7834375 2.928125 1.7834375 2.928125 1.5625 3.875 C0.90282543 6.36710392 -0.08288629 7.3329446 -2 9 C-2 8.01 -2 7.02 -2 6 C-3.32 5.67 -4.64 5.34 -6 5 C-2.25 2 -2.25 2 0 2 C0 1.34 0 0.68 0 0 Z " fill="#8D9CA5" transform="translate(176,147)"/>
<path d="M0 0 C0.99 0.33 1.98 0.66 3 1 C3 1.33 3 1.66 3 2 C5.475 2.495 5.475 2.495 8 3 C1.98824959 6.50454574 -5.41315598 5.38670401 -12 4 C-12 3.67 -12 3.34 -12 3 C-7.83861737 2.91840426 -4.0527516 3.01751476 0 4 C0 2.68 0 1.36 0 0 Z " fill="#75838F" transform="translate(237,370)"/>
<path d="M0 0 C1.32 0 2.64 0 4 0 C5.19287411 3.87684087 6 6.91621923 6 11 C5.34 11 4.68 11 4 11 C1.63496961 8.00893216 0.08446819 5.97138418 -0.25 2.125 C-0.1675 1.42375 -0.085 0.7225 0 0 Z " fill="#8394A0" transform="translate(369,226)"/>
<path d="M0 0 C0 0.66 0 1.32 0 2 C0.66 2.33 1.32 2.66 2 3 C0.25364835 3.53293835 -1.49727652 4.05090663 -3.25 4.5625 C-4.22453125 4.85253906 -5.1990625 5.14257812 -6.203125 5.44140625 C-8.96243932 5.99249836 -10.3912824 5.93789609 -13 5 C-11.35 4.67 -9.7 4.34 -8 4 C-8 3.34 -8 2.68 -8 2 C-2.25 0 -2.25 0 0 0 Z " fill="#A0B4C1" transform="translate(216,130)"/>
<path d="M0 0 C2.49361571 1.20381448 4.68143083 2.45428722 7 4 C7.6875 7.625 7.6875 7.625 8 11 C2.42857143 5.85714286 2.42857143 5.85714286 2 2 C1.34 2 0.68 2 0 2 C0 1.34 0 0.68 0 0 Z " fill="#88919E" transform="translate(147,321)"/>
<path d="M0 0 C-2.16099373 2.16099373 -3.5210418 2.71563716 -6.375 3.6875 C-7.14585937 3.95949219 -7.91671875 4.23148437 -8.7109375 4.51171875 C-11.20055308 5.04278009 -12.61553018 4.81115526 -15 4 C-13.02 3.67 -11.04 3.34 -9 3 C-9 2.01 -9 1.02 -9 0 C-5.93109813 -1.53445094 -3.29905734 -0.54984289 0 0 Z " fill="#767E85" transform="translate(298,366)"/>
<path d="M0 0 C0 0.66 0 1.32 0 2 C0.99 1.67 1.98 1.34 3 1 C3.33 1.66 3.66 2.32 4 3 C3.071875 3.144375 2.14375 3.28875 1.1875 3.4375 C-2.00725111 3.92100111 -2.00725111 3.92100111 -5 5 C-6.02104551 4.02149805 -7.0206121 3.02019573 -8 2 C-8 1.67 -8 1.34 -8 1 C-2.25 0 -2.25 0 0 0 Z " fill="#95A6B3" transform="translate(204,361)"/>
<path d="M0 0 C2.02350324 3.03525486 2.32124018 4.19426202 2.625 7.6875 C2.69976562 8.49574219 2.77453125 9.30398437 2.8515625 10.13671875 C2.90054687 10.75160156 2.94953125 11.36648437 3 12 C0.9375 10.5 0.9375 10.5 -1 8 C-1.05928384 5.17593353 -0.55954815 2.79774073 0 0 Z " fill="#8E989F" transform="translate(369,211)"/>
<path d="M0 0 C0.66 0 1.32 0 2 0 C2.56638908 4.81430721 0.82561627 7.20307814 -2 11 C-3.53445094 7.93109813 -2.54984289 5.29905734 -2 2 C-1.34 2 -0.68 2 0 2 C0 1.34 0 0.68 0 0 Z " fill="#A1B3C1" transform="translate(140,191)"/>
<path d="M0 0 C0.66 0.33 1.32 0.66 2 1 C1.34 2.65 0.68 4.3 0 6 C-0.66 6 -1.32 6 -2 6 C-2.33 6.99 -2.66 7.98 -3 9 C-3.66 7.68 -4.32 6.36 -5 5 C-3.35 3.35 -1.7 1.7 0 0 Z " fill="#87909C" transform="translate(351,320)"/>
<path d="M0 0 C0.99 0 1.98 0 3 0 C3.99 2.97 4.98 5.94 6 9 C5.01 9.33 4.02 9.66 3 10 C2.690625 8.906875 2.38125 7.81375 2.0625 6.6875 C1.41662103 4.44592006 0.7376883 2.2130649 0 0 Z " fill="#959FA7" transform="translate(363,201)"/>
<path d="M0 0 C1.14926266 0.95421808 2.29430541 1.91352045 3.4375 2.875 C4.07558594 3.40867188 4.71367187 3.94234375 5.37109375 4.4921875 C7 6 7 6 8 8 C5.2980567 7.63487253 3.41609148 7.30130763 1.1875 5.6875 C0 4 0 4 0 0 Z " fill="#727A7E" transform="translate(335,157)"/>
<path d="M0 0 C0.99 0.66 1.98 1.32 3 2 C-1.76307437 2.95261487 -6.1666528 3.08333357 -11 3 C-7.23763061 0.01605186 -4.7425355 -1.63024658 0 0 Z " fill="#6F7784" transform="translate(271,372)"/>
<path d="M0 0 C0.99 0.33 1.98 0.66 3 1 C1.90931332 4.77545388 1.0916909 7.47043472 -2 10 C-2.33 9.01 -2.66 8.02 -3 7 C-2.34 7 -1.68 7 -1 7 C-0.67 4.69 -0.34 2.38 0 0 Z " fill="#868A94" transform="translate(361,301)"/>
<path d="M0 0 C0.33 0 0.66 0 1 0 C1 2.64 1 5.28 1 8 C1.66 8 2.32 8 3 8 C2.67 9.32 2.34 10.64 2 12 C2 11.34 2 10.68 2 10 C1.01 9.67 0.02 9.34 -1 9 C-1.09765625 2.84765625 -1.09765625 2.84765625 -1 1 C-0.67 0.67 -0.34 0.34 0 0 Z " fill="#8798A8" transform="translate(372,256)"/>
<path d="M0 0 C1.32 0.33 2.64 0.66 4 1 C4 2.98 4 4.96 4 7 C2.68 6.67 1.36 6.34 0 6 C0 4.02 0 2.04 0 0 Z " fill="#9FB0BF" transform="translate(130,282)"/>
<path d="M0 0 C0.33 0 0.66 0 1 0 C1.25 6.625 1.25 6.625 -1 10 C-1.99 10.495 -1.99 10.495 -3 11 C-2.44894091 7.0507432 -1.61064629 3.65079826 0 0 Z " fill="#80878E" transform="translate(135,198)"/>
<path d="M0 0 C1.32 1.32 2.64 2.64 4 4 C2.92598892 6.91517292 2.22189824 8.77810176 0 11 C-0.84098656 6.98195309 -1.05404945 3.98196457 0 0 Z " fill="#84939D" transform="translate(349,173)"/>
<path d="M0 0 C2 0.75 2 0.75 5 2.75 C-1.0546875 3.7265625 -1.0546875 3.7265625 -3 3.75 C-3.66 3.09 -4.32 2.43 -5 1.75 C-2 -0.25 -2 -0.25 0 0 Z " fill="#A1B0BC" transform="translate(284,129.25)"/>
<path d="M0 0 C1.32 1.32 2.64 2.64 4 4 C0.25 7 0.25 7 -2 7 C-2.125 4.625 -2.125 4.625 -2 2 C-1.34 1.34 -0.68 0.68 0 0 Z " fill="#8A98A3" transform="translate(323,346)"/>
<path d="M0 0 C0.99 0.33 1.98 0.66 3 1 C3 3.64 3 6.28 3 9 C0.9375 6.75 0.9375 6.75 -1 4 C-0.75 1.6875 -0.75 1.6875 0 0 Z " fill="#88919A" transform="translate(141,308)"/>
<path d="M0 0 C0.33 0.99 0.66 1.98 1 3 C1.66 3 2.32 3 3 3 C3 3.66 3 4.32 3 5 C-1.38461538 8 -1.38461538 8 -4 8 C-2.87548273 5.0280615 -1.77706209 2.66559313 0 0 Z " fill="#84919C" transform="translate(146,179)"/>
<path d="M0 0 C1.79240663 0.11389875 3.58394835 0.24147687 5.375 0.375 C6.87160156 0.47941406 6.87160156 0.47941406 8.3984375 0.5859375 C11 1 11 1 13 3 C8.07872966 3.16682272 4.49656104 3.24828052 0 1 C0 0.67 0 0.34 0 0 Z " fill="#B8C4D0" transform="translate(217,370)"/>
<path d="M0 0 C0.33 0.66 0.66 1.32 1 2 C1.99 2.33 2.98 2.66 4 3 C1.6875 4.5625 1.6875 4.5625 -1 6 C-1.99 5.67 -2.98 5.34 -4 5 C-2.25 1.125 -2.25 1.125 0 0 Z " fill="#89939F" transform="translate(313,354)"/>
<path d="M0 0 C3.78611227 0.54087318 5.55400767 2.11722332 8 5 C8 5.66 8 6.32 8 7 C4.63718422 5.55879324 2.4480582 3.71035015 0 1 C0 0.67 0 0.34 0 0 Z " fill="#9CB1BF" transform="translate(162,336)"/>
<path d="M0 0 C0.33 0 0.66 0 1 0 C1.3125 2.1875 1.3125 2.1875 1 5 C-1.5 7.8125 -1.5 7.8125 -4 10 C-4.66 9.67 -5.32 9.34 -6 9 C-5.02501855 7.4972763 -4.04490611 5.99788037 -3.0625 4.5 C-2.51722656 3.6646875 -1.97195312 2.829375 -1.41015625 1.96875 C-0.94480469 1.3190625 -0.47945312 0.669375 0 0 Z " fill="#B0B0BD" transform="translate(227,304)"/>
<path d="M0 0 C3.6875 -0.3125 3.6875 -0.3125 7 0 C5.68 0.33 4.36 0.66 3 1 C3 1.66 3 2.32 3 3 C1.02 3.66 -0.96 4.32 -3 5 C-1.9375 2.5 -1.9375 2.5 0 0 Z " fill="#B2B0C1" transform="translate(269,260)"/>
<path d="M0 0 C0.5534764 2.07553648 1 3.84365964 1 6 C-0.98 6.66 -2.96 7.32 -5 8 C-4.67 7.01 -4.34 6.02 -4 5 C-3.34 4.67 -2.68 4.34 -2 4 C-2 3.01 -2 2.02 -2 1 C-1.34 0.67 -0.68 0.34 0 0 Z " fill="#A7B8C5" transform="translate(155,169)"/>
<path d="M0 0 C0 0.66 0 1.32 0 2 C-2.97 2.66 -5.94 3.32 -9 4 C-9 3.01 -9 2.02 -9 1 C-5.94152152 0.45627049 -3.11227195 0 0 0 Z " fill="#A6AFBA" transform="translate(302,363)"/>
<path d="M0 0 C2.97 0.495 2.97 0.495 6 1 C6 2.32 6 3.64 6 5 C4.35 4.67 2.7 4.34 1 4 C0.67 2.68 0.34 1.36 0 0 Z " fill="#A3B2BC" transform="translate(173,347)"/>
<path d="M0 0 C0.66 0 1.32 0 2 0 C2 0.66 2 1.32 2 2 C2.99 2.33 3.98 2.66 5 3 C4.67 4.32 4.34 5.64 4 7 C2.35 5.02 0.7 3.04 -1 1 C-0.67 0.67 -0.34 0.34 0 0 Z " fill="#656C71" transform="translate(158,334)"/>
<path d="M0 0 C1.32 0.66 2.64 1.32 4 2 C3.67 3.65 3.34 5.3 3 7 C2.01 7 1.02 7 0 7 C-0.93423645 3.98968256 -1.04449911 3.13349732 0 0 Z " fill="#9EB1BF" transform="translate(370,264)"/>
<path d="M0 0 C0.66 0.33 1.32 0.66 2 1 C0.875 2.5 0.875 2.5 -1 4 C-4.1875 4.1875 -4.1875 4.1875 -7 4 C-4.61426621 2.10786631 -2.92824652 0.97608217 0 0 Z " fill="#82898F" transform="translate(200,134)"/>
<path d="M0 0 C1.32 0.66 2.64 1.32 4 2 C4 2.66 4 3.32 4 4 C2.02 4.99 2.02 4.99 0 6 C-0.38218767 4.34385343 -0.71395102 2.67542976 -1 1 C-0.67 0.67 -0.34 0.34 0 0 Z " fill="#8C98A6" transform="translate(339,332)"/>
<path d="M0 0 C0.33 0.99 0.66 1.98 1 3 C-0.9375 6.1875 -0.9375 6.1875 -3 9 C-3.625 7.1875 -3.625 7.1875 -4 5 C-3.34 4.01 -2.68 3.02 -2 2 C-1.34 2 -0.68 2 0 2 C0 1.34 0 0.68 0 0 Z " fill="#848990" transform="translate(358,311)"/>
<path d="M0 0 C0.99 0.33 1.98 0.66 3 1 C3 2.32 3 3.64 3 5 C1.35 4.67 -0.3 4.34 -2 4 C-2 3.34 -2 2.68 -2 2 C-1.34 2 -0.68 2 0 2 C0 1.34 0 0.68 0 0 Z " fill="#8E9CA6" transform="translate(332,155)"/>
</svg>
