<svg width="32" height="32" viewBox="0 0 512 512" fill="none" xmlns="http://www.w3.org/2000/svg">
  <defs>
    <linearGradient id="trayBgGrad" x1="0%" y1="0%" x2="100%" y2="100%">
      <stop offset="0%" style="stop-color:#1a1a2e"/>
      <stop offset="100%" style="stop-color:#16213e"/>
    </linearGradient>
    <linearGradient id="trayWaveGrad" x1="0%" y1="0%" x2="100%" y2="0%">
      <stop offset="0%" style="stop-color:#667eea"/>
      <stop offset="50%" style="stop-color:#764ba2"/>
      <stop offset="100%" style="stop-color:#667eea"/>
    </linearGradient>
  </defs>
  
  <!-- Background -->
  <rect width="512" height="512" rx="100" fill="url(#trayBgGrad)"/>
  
  <!-- Sound Wave Bars -->
  <g transform="translate(80, 256)">
    <rect x="0" y="-40" width="24" height="80" rx="12" fill="url(#trayWaveGrad)" opacity="0.7"/>
    <rect x="44" y="-80" width="24" height="160" rx="12" fill="url(#trayWaveGrad)" opacity="0.85"/>
    <rect x="88" y="-120" width="24" height="240" rx="12" fill="url(#trayWaveGrad)"/>
    <rect x="132" y="-150" width="24" height="300" rx="12" fill="url(#trayWaveGrad)"/>
    <rect x="176" y="-170" width="24" height="340" rx="12" fill="url(#trayWaveGrad)"/>
    <rect x="220" y="-150" width="24" height="300" rx="12" fill="url(#trayWaveGrad)"/>
    <rect x="264" y="-120" width="24" height="240" rx="12" fill="url(#trayWaveGrad)"/>
    <rect x="308" y="-80" width="24" height="160" rx="12" fill="url(#trayWaveGrad)" opacity="0.85"/>
    <rect x="352" y="-40" width="24" height="80" rx="12" fill="url(#trayWaveGrad)" opacity="0.7"/>
  </g>
</svg>
