<?xml version="1.0" encoding="UTF-8"?>
<svg version="1.1" xmlns="http://www.w3.org/2000/svg" width="500" height="500">
<path d="M0 0 C2.1581619 3.23724285 2.25186843 4.11091037 2.26069641 7.84481812 C2.26778122 8.84300064 2.27486603 9.84118317 2.28216553 10.86961365 C2.27968811 11.96371048 2.27721069 13.05780731 2.2746582 14.18505859 C2.27976913 15.33814011 2.28488007 16.49122162 2.29014587 17.679245 C2.30407991 21.50236153 2.3030821 25.32529854 2.30078125 29.1484375 C2.30368476 31.13023718 2.30659262 33.11203693 2.310188 35.09383547 C2.32128647 41.3272238 2.32171905 47.56055188 2.31567383 53.79394531 C2.30963619 60.22133517 2.32193874 66.64850599 2.3432439 73.07585847 C2.36086851 78.59613546 2.36685981 84.11634279 2.36360615 89.63664687 C2.36179411 92.93274461 2.36573532 96.22865143 2.37832069 99.52473068 C2.39063698 103.20204348 2.38392155 106.87884788 2.37231445 110.55615234 C2.37995819 111.64620071 2.38760193 112.73624908 2.39547729 113.85932922 C2.32852268 123.44124184 2.32852268 123.44124184 -1 127 C-6.00504929 127.88012519 -8.82113224 127.44694436 -13.0625 124.6640625 C-14.38982232 123.67054203 -15.70232742 122.65694638 -17 121.625 C-18.01900391 120.86316406 -18.01900391 120.86316406 -19.05859375 120.0859375 C-20.75647004 118.78776247 -22.38528361 117.40026187 -24 116 C-24 115.34 -24 114.68 -24 114 C-24.70640625 113.76667969 -25.4128125 113.53335938 -26.140625 113.29296875 C-29.55097628 111.75085635 -31.91887271 109.75790493 -34.75 107.3125 C-36.24646783 106.02609784 -37.74411186 104.74078717 -39.26220703 103.47998047 C-40.52648811 102.40326343 -41.75226914 101.28083898 -42.95263672 100.13330078 C-49.26104758 94.50145659 -54.35605976 94.06340871 -62.625 94.25 C-76.61243221 94.36546229 -76.61243221 94.36546229 -82 91 C-86.43106382 85.84958482 -86.57776507 81.6947618 -86.49609375 75.21875 C-86.49754898 74.28703979 -86.49900421 73.35532959 -86.50050354 72.39538574 C-86.49884883 70.43201561 -86.48733565 68.46863193 -86.46655273 66.50537109 C-86.4375921 63.50952751 -86.44595434 60.5154548 -86.45898438 57.51953125 C-86.45274639 55.60676228 -86.44435498 53.69399887 -86.43359375 51.78125 C-86.43652939 50.89046753 -86.43946503 49.99968506 -86.44248962 49.08190918 C-86.36549568 43.97652886 -85.8187337 40.42851312 -83 36 C-80.36149121 33.48993788 -78.41680657 32.59956866 -74.8125 32.3125 C-73.93851563 32.23515625 -73.06453125 32.1578125 -72.1640625 32.078125 C-69 32 -69 32 -65.0234375 32.296875 C-56.58860113 32.87669788 -51.24655749 32.56512358 -44.5625 27 C-43.51446391 26.07108392 -42.47345366 25.13414823 -41.44140625 24.1875 C-39 22 -39 22 -37 22 C-37 21.34 -37 20.68 -37 20 C-35.671875 18.80859375 -35.671875 18.80859375 -33.75 17.4375 C-28.94361942 13.96622514 -24.24286529 10.36604603 -19.5390625 6.7578125 C-17 5 -17 5 -15 5 C-15 4.34 -15 3.68 -15 3 C-9.40051694 -1.10628758 -6.5742637 -2.79755902 0 0 Z " fill="#E8B8BC" transform="translate(255,187)"/>
<path d="M0 0 C3.13074632 2.19766114 5.51116998 5.1106686 8 8 C8.59039062 8.67804688 9.18078125 9.35609375 9.7890625 10.0546875 C14.0752771 15.55435098 16.71128764 21.58446443 19.3125 28 C19.65023438 28.83047852 19.98796875 29.66095703 20.3359375 30.51660156 C23.70367222 39.18476896 25.36938134 47.57766378 25.25 56.875 C25.23984863 58.04216553 25.23984863 58.04216553 25.22949219 59.23291016 C24.87908452 78.93315524 17.75870495 99.08034067 3.9140625 113.4765625 C0.93575654 115.84705092 -1.24318561 116.36123215 -5 116 C-7.5 114.5 -7.5 114.5 -9 112 C-9.20708102 108.41059563 -8.83553546 106.08362162 -6.60546875 103.19140625 C-5.40085905 101.8834666 -4.18938265 100.58183181 -2.97265625 99.28515625 C8.96968724 85.45095636 11.76221185 68.64813583 11 51 C9.58194383 37.23229008 3.60631961 24.166965 -5.4375 13.75 C-8.88565134 9.61748274 -8.88565134 9.61748274 -9.390625 6.890625 C-9.1875 5 -9.1875 5 -8 2 C-4.74944242 -0.16703839 -3.76953876 -0.49568858 0 0 Z " fill="#E7BCBF" transform="translate(306,192)"/>
<path d="M0 0 C6.35871301 1.58455577 9.1265379 6.65744299 12.63671875 11.90625 C20.46508889 25.95182452 21.72309367 41.92521078 18.984375 57.65234375 C18.07986984 60.57548705 17.01263404 63.17465347 15.63671875 65.90625 C15.1159375 66.95167969 14.59515625 67.99710937 14.05859375 69.07421875 C10.91090067 74.89461519 7.61150978 80.65101902 1.63671875 83.90625 C-1.72217284 84.48759662 -3.32161745 84.53124828 -6.23828125 82.78125 C-7.87479604 80.05372535 -7.68830928 78.02651907 -7.36328125 74.90625 C-6.70328125 73.91625 -6.04328125 72.92625 -5.36328125 71.90625 C-4.70328125 71.90625 -4.04328125 71.90625 -3.36328125 71.90625 C-2.96109375 71.09220703 -2.96109375 71.09220703 -2.55078125 70.26171875 C-1.69610485 68.56642313 -0.81821028 66.88276076 0.07421875 65.20703125 C6.19188406 53.50699634 8.6696355 43.28236532 4.94921875 30.34375 C2.61514428 23.35796374 -0.23813495 17.16577058 -5.17578125 11.65625 C-7.36328125 8.90625 -7.36328125 8.90625 -7.92578125 6.28125 C-6.81196706 1.578479 -4.83810134 -0.13485997 0 0 Z " fill="#E6BABC" transform="translate(288.36328125,208.09375)"/>
<path d="M0 0 C3.375 1 3.375 1 4.8125 3.0625 C5.0909375 4.0215625 5.0909375 4.0215625 5.375 5 C6.035 5 6.695 5 7.375 5 C13.05124964 14.86586246 14.77860419 22.7949564 13.375 34 C12.45547905 37.33442444 11.2056656 40.07593344 9.375 43 C8.694375 44.11375 8.01375 45.2275 7.3125 46.375 C6.673125 47.24125 6.03375 48.1075 5.375 49 C4.7253125 49.928125 4.7253125 49.928125 4.0625 50.875 C1.13849524 52.82433651 -1.24719365 52.48254376 -4.625 52 C-6.625 49.8125 -6.625 49.8125 -7.625 47 C-7.37256206 43.4658688 -6.62289249 41.99683874 -4.625 39 C-3.965 39 -3.305 39 -2.625 39 C-2.50125 38.46375 -2.3775 37.9275 -2.25 37.375 C-1.625 35 -1.625 35 -0.5 32.3125 C0.78021741 27.46596267 0.60848672 22.45776832 -1.671875 17.9140625 C-2.625 16 -2.625 16 -2.625 13 C-3.285 13 -3.945 13 -4.625 13 C-4.625 12.34 -4.625 11.68 -4.625 11 C-5.285 11 -5.945 11 -6.625 11 C-8.06944444 4.74074074 -8.06944444 4.74074074 -6.125 1.5 C-3.625 0 -3.625 0 0 0 Z " fill="#E6B9BC" transform="translate(272.625,224)"/>
<path d="M0 0 C1 2 1 2 0.4765625 3.83984375 C0.19554687 4.53207031 -0.08546875 5.22429687 -0.375 5.9375 C-0.65085937 6.62714844 -0.92671875 7.31679688 -1.2109375 8.02734375 C-1.60152344 9.00380859 -1.60152344 9.00380859 -2 10 C-2.33 10.99 -2.66 11.98 -3 13 C-1.68 13.33 -0.36 13.66 1 14 C1.99 12.35 2.98 10.7 4 9 C4.33 9.66 4.66 10.32 5 11 C5.99 11.33 6.98 11.66 8 12 C5.26191346 14.57702263 3.64875512 15.90917428 -0.125 16.4375 C-3 16 -3 16 -4.875 14.875 C-6.51151479 12.14747535 -6.32502803 10.12026907 -6 7 C-5.34 6.01 -4.68 5.02 -4 4 C-3.34 4 -2.68 4 -2 4 C-1.34 2.68 -0.68 1.36 0 0 Z " fill="#EDD5D5" transform="translate(287,276)"/>
<path d="M0 0 C1.98 0.99 1.98 0.99 4 2 C4 2.66 4 3.32 4 4 C4.66 4 5.32 4 6 4 C11.79453254 14.07144942 12.78724946 21.64319759 12 33 C11.67 33 11.34 33 11 33 C10.96132813 31.46279297 10.96132813 31.46279297 10.921875 29.89453125 C10.86556942 28.53381301 10.80822263 27.17313757 10.75 25.8125 C10.73582031 25.13896484 10.72164063 24.46542969 10.70703125 23.77148438 C10.46747047 18.86048843 9.20872592 16.61618318 6 13 C5.75 9.6875 5.75 9.6875 6 7 C4.35 6.67 2.7 6.34 1 6 C0.67 4.02 0.34 2.04 0 0 Z " fill="#EED6D7" transform="translate(274,225)"/>
<path d="M0 0 C0.66 0 1.32 0 2 0 C2.98696801 5.88868833 2.87253859 10.6085168 1.6875 16.4375 C1.5436084 17.17814697 1.3997168 17.91879395 1.25146484 18.68188477 C0.96695182 20.1365414 0.67775342 21.59029148 0.38330078 23.04296875 C0.05903659 24.69857495 -0.21273708 26.36433034 -0.47265625 28.03125 C-0.875 30.4375 -0.875 30.4375 -2 34 C-4.625 35.5625 -4.625 35.5625 -7 36 C-6.56880859 34.93265625 -6.56880859 34.93265625 -6.12890625 33.84375 C-5.02947535 31.07424933 -3.96996793 28.29512232 -2.9375 25.5 C-2.59589844 24.5821875 -2.25429688 23.664375 -1.90234375 22.71875 C-0.16555735 17.48583512 0.13077154 12.67548133 0.0625 7.1875 C0.05798828 6.49462891 0.05347656 5.80175781 0.04882812 5.08789062 C0.03713156 3.39188932 0.01919924 1.69593297 0 0 Z " fill="#F0D6D8" transform="translate(295,240)"/>
<path d="M0 0 C0.66 0.33 1.32 0.66 2 1 C0 4 0 4 -2.25 5.25 C-4.88328021 6.92572377 -6.06089497 8.21151847 -7.9375 10.625 C-10.19171717 13.40617702 -10.75570091 13.93213914 -14.375 14.9375 C-15.24125 14.958125 -16.1075 14.97875 -17 15 C-17 14.34 -17 13.68 -17 13 C-15.56640625 11.73828125 -15.56640625 11.73828125 -13.5625 10.3125 C-10.32932057 7.97003547 -7.14639516 5.58327704 -4 3.125 C-3.236875 2.52945313 -2.47375 1.93390625 -1.6875 1.3203125 C-1.130625 0.88460937 -0.57375 0.44890625 0 0 Z " fill="#E9D1D2" transform="translate(235,194)"/>
<path d="M0 0 C4.58321382 -0.08704 9.16621534 -0.14040632 13.75 -0.1875 C15.05195313 -0.21263672 16.35390625 -0.23777344 17.6953125 -0.26367188 C19.57089844 -0.27817383 19.57089844 -0.27817383 21.484375 -0.29296875 C22.63647461 -0.3086792 23.78857422 -0.32438965 24.97558594 -0.34057617 C28.31532267 0.03550816 29.63252993 0.66262489 32 3 C33.25 5.6875 33.25 5.6875 34 8 C31.50624369 6.89166386 29.77792159 5.80061381 27.7277832 3.95996094 C24.54696597 1.67448696 22.91385473 1.47002779 19.04296875 1.390625 C17.37524414 1.34228516 17.37524414 1.34228516 15.67382812 1.29296875 C14.52333984 1.27878906 13.37285156 1.26460938 12.1875 1.25 C11.01767578 1.22035156 9.84785156 1.19070313 8.64257812 1.16015625 C5.76164991 1.08960291 2.88152422 1.03683271 0 1 C0 0.67 0 0.34 0 0 Z " fill="#EDD9D8" transform="translate(180,280)"/>
<path d="M0 0 C-0.99 0.495 -0.99 0.495 -2 1 C-2.66 0.67 -3.32 0.34 -4 0 C-4 0.66 -4 1.32 -4 2 C-4.70125 2.0825 -5.4025 2.165 -6.125 2.25 C-9.19995012 2.88052857 -9.19995012 2.88052857 -12.125 5.125 C-13.548125 6.053125 -13.548125 6.053125 -15 7 C-15.99 6.67 -16.98 6.34 -18 6 C-17.01 5.67 -16.02 5.34 -15 5 C-15 4.34 -15 3.68 -15 3 C-9.26838709 -1.2031828 -6.7222027 -2.5394988 0 0 Z " fill="#E7D2D2" transform="translate(255,187)"/>
<path d="M0 0 C0.66 0 1.32 0 2 0 C1.41347648 4.48993869 0.2356462 8.22543184 -1.5625 12.375 C-2.01753906 13.43460937 -2.47257812 14.49421875 -2.94140625 15.5859375 C-3.29074219 16.38257813 -3.64007813 17.17921875 -4 18 C-4.33 18 -4.66 18 -5 18 C-4.71311275 10.99995111 -3.49595688 6.08973134 0 0 Z " fill="#EACED0" transform="translate(326,270)"/>
<path d="M0 0 C-1.1875 1.5625 -1.1875 1.5625 -3 3 C-5.35620117 2.67993164 -5.35620117 2.67993164 -8 2 C-9.76732575 1.98515693 -11.535836 2.02820189 -13.30078125 2.12109375 C-14.76547852 2.19360352 -14.76547852 2.19360352 -16.25976562 2.26757812 C-17.26716797 2.32365234 -18.27457031 2.37972656 -19.3125 2.4375 C-20.85260742 2.51581055 -20.85260742 2.51581055 -22.42382812 2.59570312 C-24.94956087 2.72492666 -27.47485261 2.85987291 -30 3 C-29.67 2.34 -29.34 1.68 -29 1 C-19.43547145 -0.5426659 -9.66048279 -0.08926524 0 0 Z " fill="#ECDEDF" transform="translate(205,219)"/>
<path d="M0 0 C0.86625 0.3403125 0.86625 0.3403125 1.75 0.6875 C0.76 1.1825 0.76 1.1825 -0.25 1.6875 C-0.435625 2.8940625 -0.435625 2.8940625 -0.625 4.125 C-1.25 6.6875 -1.25 6.6875 -3.3125 8 C-3.951875 8.226875 -4.59125 8.45375 -5.25 8.6875 C-5.58 6.7075 -5.91 4.7275 -6.25 2.6875 C-2.80384615 -0.38942308 -2.80384615 -0.38942308 0 0 Z " fill="#E3B1B4" transform="translate(305.25,194.3125)"/>
<path d="M0 0 C0 0.99 0 1.98 0 3 C-2.48760699 5.48760699 -4.10361222 6.8719446 -7.625 7.375 C-10 7 -10 7 -13 5 C-12.67 4.34 -12.34 3.68 -12 3 C-11.01 3.33 -10.02 3.66 -9 4 C-5.85472185 2.95157395 -2.94017338 1.52453435 0 0 Z " fill="#EACECF" transform="translate(311,301)"/>
<path d="M0 0 C1.98 0 3.96 0 6 0 C6.33 1.32 6.66 2.64 7 4 C7.598125 4.04125 8.19625 4.0825 8.8125 4.125 C11 5 11 5 12.75 8.0625 C13.1625 9.031875 13.575 10.00125 14 11 C10.03935893 9.25731793 6.25563451 6.85325271 3 4 C3 3.34 3 2.68 3 2 C2.01 1.67 1.02 1.34 0 1 C0 0.67 0 0.34 0 0 Z " fill="#EFD5D7" transform="translate(228,299)"/>
<path d="M0 0 C-1.62339805 1.70884005 -3.29319053 3.37446717 -5 5 C-5.66 5 -6.32 5 -7 5 C-6.67 6.98 -6.34 8.96 -6 11 C-6.66 11 -7.32 11 -8 11 C-8.75 7.75 -8.75 7.75 -9 4 C-6.46998447 0.20497671 -4.46653861 -0.49628207 0 0 Z " fill="#EDD6D7" transform="translate(274,224)"/>
<path d="M0 0 C0.66 0.33 1.32 0.66 2 1 C-1.84147426 6.26267902 -4.51152543 8.83207458 -11 10 C-7.50640535 6.40365256 -3.88901869 3.16548033 0 0 Z " fill="#EBD4D4" transform="translate(216,209)"/>
<path d="M0 0 C-2.31 3.3 -4.62 6.6 -7 10 C-8 8 -8 8 -7.3125 4.5 C-6 1 -6 1 -4 -0.5 C-2 -1 -2 -1 0 0 Z " fill="#E8D1D2" transform="translate(321,290)"/>
<path d="M0 0 C0.33 0.66 0.66 1.32 1 2 C-0.98 4.97 -2.96 7.94 -5 11 C-6 9 -6 9 -5.546875 7.08984375 C-5.28390625 6.37957031 -5.0209375 5.66929687 -4.75 4.9375 C-4.49734375 4.22464844 -4.2446875 3.51179688 -3.984375 2.77734375 C-3 1 -3 1 0 0 Z " fill="#EFDCDB" transform="translate(301,276)"/>
<path d="M0 0 C0.33 0 0.66 0 1 0 C1.125 7.75 1.125 7.75 0 10 C-0.66 10 -1.32 10 -2 10 C-2.12375 10.804375 -2.2475 11.60875 -2.375 12.4375 C-2.58125 13.283125 -2.7875 14.12875 -3 15 C-3.99 15.495 -3.99 15.495 -5 16 C-4.19429304 12.50577615 -3.08208283 9.14682647 -1.9375 5.75 C-1.57527344 4.67234375 -1.21304687 3.5946875 -0.83984375 2.484375 C-0.56269531 1.66453125 -0.28554688 0.8446875 0 0 Z " fill="#ECD7D7" transform="translate(316,265)"/>
<path d="M0 0 C3.87051275 3.07881696 7.02911382 6.00073014 10 10 C9.67 10.66 9.34 11.32 9 12 C7.0625 11.3125 7.0625 11.3125 5 10 C4.25 7.375 4.25 7.375 4 5 C2.68 4.67 1.36 4.34 0 4 C0 2.68 0 1.36 0 0 Z " fill="#EFD9DA" transform="translate(308,195)"/>
<path d="M0 0 C0.99 0 1.98 0 3 0 C3.08097324 2.27024968 3.13917704 4.54132075 3.1875 6.8125 C3.22230469 8.07707031 3.25710938 9.34164062 3.29296875 10.64453125 C3 14 3 14 1.48828125 15.94921875 C0.99714844 16.29597656 0.50601562 16.64273437 0 17 C0.08378906 16.27554687 0.16757812 15.55109375 0.25390625 14.8046875 C0.79527805 9.6650818 1.23721798 5.08634058 0 0 Z " fill="#E9D3D4" transform="translate(272,241)"/>
<path d="M0 0 C2.31 0 4.62 0 7 0 C7 0.99 7 1.98 7 3 C7.66 3.33 8.32 3.66 9 4 C8.34 4.66 7.68 5.32 7 6 C5.83054208 5.19152271 4.66449539 4.37810888 3.5 3.5625 C2.8503125 3.11003906 2.200625 2.65757812 1.53125 2.19140625 C1.0259375 1.79824219 0.520625 1.40507812 0 1 C0 0.67 0 0.34 0 0 Z " fill="#E9D0D0" transform="translate(216,290)"/>
<path d="M0 0 C0.33 0.66 0.66 1.32 1 2 C-1.90673575 6.22797927 -1.90673575 6.22797927 -4 8 C-7.8125 8.375 -7.8125 8.375 -11 8 C-9.07588218 5.64830044 -7.89464717 4.96559908 -4.9375 4 C-1.71801108 3.23665888 -1.71801108 3.23665888 0 0 Z " fill="#E7CACA" transform="translate(280,267)"/>
<path d="M0 0 C2.67901932 2.31881505 3.66204403 4.31814468 4.6875 7.6875 C4.93886719 8.49574219 5.19023437 9.30398437 5.44921875 10.13671875 C5.63097656 10.75160156 5.81273437 11.36648437 6 12 C5.01 11.67 4.02 11.34 3 11 C2.05078125 9.00390625 2.05078125 9.00390625 1.3125 6.5625 C1.06113281 5.75941406 0.80976563 4.95632812 0.55078125 4.12890625 C0 2 0 2 0 0 Z " fill="#ECD7D7" transform="translate(319,209)"/>
<path d="M0 0 C-2.3125 2.5 -2.3125 2.5 -5 5 C-5.99 5 -6.98 5 -8 5 C-8.33 6.32 -8.66 7.64 -9 9 C-9.36337162 5.72965541 -9.28544288 4.39116247 -7.3125 1.6875 C-4.60883753 -0.28544288 -3.27034459 -0.36337162 0 0 Z " fill="#EDDCDD" transform="translate(290,208)"/>
<path d="M0 0 C0.99 0 1.98 0 3 0 C4.20272819 2.40545638 4.10071472 3.94996953 4.0625 6.625 C4.05347656 7.44226563 4.04445313 8.25953125 4.03515625 9.1015625 C4.02355469 9.72804687 4.01195312 10.35453125 4 11 C1.54176828 7.31265242 0.98757384 4.30300029 0 0 Z " fill="#EAD6D7" transform="translate(313,224)"/>
<path d="M0 0 C0.33 0.66 0.66 1.32 1 2 C1.99 2.33 2.98 2.66 4 3 C2.75 4.5625 2.75 4.5625 1 6 C-1.1875 5.6875 -1.1875 5.6875 -3 5 C-2.01 3.35 -1.02 1.7 0 0 Z " fill="#E9CCCB" transform="translate(291,285)"/>
<path d="M0 0 C2.31 0.66 4.62 1.32 7 2 C6.47731534 4.76276177 5.89130413 7.3260876 5 10 C3.33333333 6.66666667 1.66666667 3.33333333 0 0 Z " fill="#F1D7D9" transform="translate(287,224)"/>
<path d="M0 0 C0.33 0.99 0.66 1.98 1 3 C-1 5 -1 5 -2.9453125 5.1953125 C-4.96354167 5.13020833 -6.98177083 5.06510417 -9 5 C-9 4.67 -9 4.34 -9 4 C-7.6078125 3.566875 -7.6078125 3.566875 -6.1875 3.125 C-2.90208333 2.1125 -2.90208333 2.1125 0 0 Z " fill="#E8CDD0" transform="translate(255,309)"/>
<path d="M0 0 C3.76024616 2.50683077 4.39192086 4.86493934 6 9 C2.83884224 7.63016497 2.0072908 7.0109362 0 4 C0 2.68 0 1.36 0 0 Z " fill="#E3CACB" transform="translate(170,270)"/>
<path d="M0 0 C1.65 1.65 3.3 3.3 5 5 C4.67 5.99 4.34 6.98 4 8 C4 7.34 4 6.68 4 6 C2.68 6.33 1.36 6.66 0 7 C0 4.69 0 2.38 0 0 Z " fill="#EAD3D1" transform="translate(296,215)"/>
<path d="M0 0 C1 3 1 3 -0.4375 6.1875 C-1.2109375 7.5796875 -1.2109375 7.5796875 -2 9 C-3.0625 7.125 -3.0625 7.125 -4 5 C-3.67 4.34 -3.34 3.68 -3 3 C-2.34 3 -1.68 3 -1 3 C-0.67 2.01 -0.34 1.02 0 0 Z " fill="#E9CCCD" transform="translate(284,258)"/>
<path d="M0 0 C1.9375 0.6875 1.9375 0.6875 4 2 C4.75 4.625 4.75 4.625 5 7 C3.68 6.67 2.36 6.34 1 6 C0.67 4.02 0.34 2.04 0 0 Z " fill="#E9CACB" transform="translate(274,225)"/>
<path d="M0 0 C3.63 0 7.26 0 11 0 C9.515 1.485 9.515 1.485 8 3 C5.15124622 2.79846293 2.74900747 1.85624823 0 1 C0 0.67 0 0.34 0 0 Z " fill="#EBCFD0" transform="translate(194,219)"/>
<path d="M0 0 C0.66 0 1.32 0 2 0 C2.125 2.875 2.125 2.875 2 6 C1.34 6.66 0.68 7.32 0 8 C0 7.01 0 6.02 0 5 C-0.66 4.67 -1.32 4.34 -2 4 C-1.34 2.68 -0.68 1.36 0 0 Z " fill="#ECD3D4" transform="translate(306,256)"/>
</svg>
